<svg width="140" height="35" viewBox="0 0 140 35" fill="none" xmlns="http://www.w3.org/2000/svg">
<path d="M4.24478 20.279H7.44637V22.3038H4.24478V26.9534C4.24478 27.4687 4.37936 27.8631 4.64955 28.1395C4.91973 28.416 5.31198 28.5547 5.82628 28.5547H7.44637V30.9082H5.94207C4.95207 30.9082 4.14151 30.783 3.51141 30.5316C2.88132 30.2812 2.41501 29.8535 2.11248 29.2484C1.80995 28.6444 1.65869 27.8276 1.65869 26.798V22.3028H0V20.2779H1.65869V17.3455H4.24374V20.2779L4.24478 20.279ZM15.0471 19.9514H14.9313C14.1208 19.9514 13.4479 20.1444 12.9148 20.5304C12.4151 20.8913 12.0354 21.4119 11.7673 22.0764V16.6904H9.00908V30.7736H11.7673V24.7157C11.7673 24.0345 11.9634 23.4847 12.3557 23.0664C12.7479 22.6491 13.2653 22.4395 13.909 22.4395C14.5141 22.4395 15.0023 22.6293 15.3757 23.008C15.7482 23.3877 15.9349 23.8989 15.9349 24.5415V30.7725H18.6931V24.7919C18.6931 23.2229 18.3843 22.0232 17.7668 21.1939C17.1492 20.3645 16.2426 19.9493 15.0471 19.9493V19.9514ZM30.0369 22.6231C30.4354 23.4274 30.6346 24.2922 30.6346 25.2175V26.22H22.7877C22.8336 26.6018 22.916 26.9555 23.0433 27.2716C23.2425 27.7671 23.5513 28.1562 23.9696 28.4389C24.3879 28.7216 24.9179 28.8635 25.5615 28.8635C26.2052 28.8635 26.7247 28.7352 27.1243 28.4775C27.5228 28.2209 27.7804 27.9121 27.8962 27.5511H30.4427C30.2883 28.2584 29.992 28.8854 29.5549 29.432C29.1178 29.9787 28.5618 30.4001 27.8858 30.6953C27.2108 30.9906 26.4357 31.1387 25.5615 31.1387C24.6873 31.1387 23.8736 30.9843 23.1987 30.6755C22.5227 30.3667 21.9604 29.9515 21.5108 29.431C21.0612 28.9104 20.7232 28.3283 20.4979 27.6847C20.2725 27.041 20.1609 26.3859 20.1609 25.7172V25.3312C20.1609 24.6364 20.2725 23.9677 20.4979 23.3251C20.7232 22.6825 21.0581 22.1035 21.5014 21.5892C21.9448 21.075 22.4977 20.6671 23.1611 20.3645C23.8236 20.063 24.5851 19.9107 25.4468 19.9107C26.5776 19.9107 27.5269 20.1622 28.2926 20.6639C29.0573 21.1657 29.6394 21.8188 30.039 22.622L30.0369 22.6231ZM23.0537 23.7424C22.9535 23.9834 22.8784 24.2515 22.8273 24.5426H27.9912C27.9432 24.2223 27.8691 23.9271 27.7617 23.6652C27.5687 23.1958 27.2797 22.8327 26.8937 22.5751C26.5077 22.3174 26.0258 22.1891 25.4468 22.1891C24.8678 22.1891 24.3765 22.3237 23.9707 22.5949C23.5649 22.8651 23.2602 23.2479 23.0547 23.7424H23.0537ZM43.9459 23.0956C43.1864 22.7482 42.2997 22.5292 41.2836 22.4395L40.0871 22.3435C39.3923 22.2788 38.8916 22.0858 38.5828 21.7645C38.274 21.4432 38.1196 21.0697 38.1196 20.6462C38.1196 20.2988 38.2062 19.9775 38.3794 19.6812C38.5536 19.386 38.8133 19.1482 39.1607 18.9677C39.5081 18.7883 39.9452 18.6975 40.472 18.6975C40.9988 18.6975 41.4818 18.7966 41.8417 18.9969C42.2016 19.1961 42.4718 19.4569 42.6523 19.7783C42.8328 20.0996 42.9225 20.448 42.9225 20.8204H45.6818C45.6818 19.9076 45.4721 19.1096 45.0548 18.4284C44.6365 17.7461 44.0387 17.2193 43.2605 16.8458C42.4823 16.4734 41.5528 16.2867 40.472 16.2867C39.3913 16.2867 38.5463 16.463 37.7806 16.8176C37.0148 17.1713 36.4171 17.6731 35.9863 18.3219C35.5544 18.9719 35.3395 19.747 35.3395 20.6472C35.3395 21.8563 35.7453 22.8275 36.5548 23.5599C37.3654 24.2932 38.4513 24.7168 39.8148 24.8336L41.0113 24.9296C41.8991 25.0068 42.5511 25.1935 42.9694 25.4887C43.3878 25.785 43.5964 26.1772 43.5964 26.6655C43.5964 27.0514 43.4869 27.3988 43.2688 27.7076C43.0498 28.0164 42.7222 28.2636 42.2851 28.4504C41.847 28.6371 41.3014 28.73 40.6452 28.73C39.9118 28.73 39.3235 28.6246 38.8801 28.4118C38.4367 28.199 38.1113 27.9225 37.9057 27.5824C37.7002 27.2424 37.597 26.8783 37.597 26.4923H34.8387C34.8387 27.3926 35.0641 28.1938 35.5147 28.8948C35.9643 29.5958 36.6205 30.1456 37.4822 30.5441C38.3439 30.9426 39.3986 31.1418 40.6462 31.1418C41.8157 31.1418 42.8286 30.9551 43.6851 30.5827C44.5405 30.2103 45.1998 29.6855 45.6619 29.0106C46.1251 28.3346 46.3567 27.5543 46.3567 26.6665C46.3567 25.7787 46.1449 25.0975 45.7204 24.506C45.2958 23.9145 44.7043 23.4451 43.9459 23.0977V23.0956ZM54.4603 26.4714C54.4603 27.1276 54.2704 27.6482 53.8907 28.0341C53.511 28.4201 53.0134 28.6131 52.3958 28.6131C51.7782 28.6131 51.3307 28.4306 50.977 28.0634C50.6234 27.6972 50.4471 27.1985 50.4471 26.5684V20.28H47.6889V26.3567C47.6889 27.9392 48.0164 29.1253 48.6726 29.9161C49.3288 30.7068 50.2677 31.1022 51.4893 31.1022H51.6051C52.4156 31.1022 53.0874 30.9259 53.6205 30.5712C54.1546 30.2176 54.5594 29.6866 54.8358 28.9793C54.9162 28.7738 54.9819 28.5474 55.0382 28.3106V30.7736H57.2185V20.279H54.4603V26.4714ZM70.4244 23.201C70.6497 23.8509 70.7624 24.5551 70.7624 25.3135V25.7182C70.7624 26.4777 70.6529 27.185 70.4338 27.8401C70.2147 28.4963 69.8903 29.068 69.4594 29.5572C69.0286 30.0465 68.5143 30.4283 67.9165 30.7047C67.3177 30.9812 66.6397 31.1199 65.8813 31.1199C65.1228 31.1199 64.379 30.9562 63.7302 30.6275C63.1773 30.349 62.7214 29.9317 62.3511 29.3924V34.6313H59.5928V20.2779H61.7731V22.9245C61.8681 22.6356 61.9755 22.3591 62.1101 22.1108C62.5023 21.391 63.026 20.8507 63.6832 20.4908C64.3394 20.1309 65.0717 19.9504 65.8823 19.9504C66.6282 19.9504 67.301 20.0881 67.8978 20.3645C68.4966 20.641 69.0098 21.0207 69.4417 21.5027C69.8725 21.9846 70.2001 22.5511 70.4254 23.2L70.4244 23.201ZM68.0031 25.5075C68.0031 24.8639 67.8842 24.3016 67.6464 23.8196C67.4075 23.3366 67.0768 22.9611 66.6522 22.6909C66.2276 22.4207 65.7331 22.2851 65.1667 22.2851C64.6524 22.2851 64.1756 22.3977 63.7385 22.6231C63.3014 22.8484 62.9478 23.1822 62.6776 23.6266C62.4074 24.07 62.2728 24.601 62.2728 25.2185V25.9707C62.2728 26.5622 62.4105 27.0702 62.687 27.4948C62.9634 27.9194 63.3244 28.2438 63.7677 28.4692C64.2111 28.6945 64.6774 28.8061 65.1667 28.8061C65.7321 28.8061 66.2276 28.6653 66.6522 28.3815C67.0768 28.0988 67.4075 27.7097 67.6464 27.2142C67.8842 26.7197 68.0031 26.1501 68.0031 25.5065V25.5075ZM81.5846 22.6231C81.9831 23.4274 82.1823 24.2922 82.1823 25.2175V26.22H74.3354C74.3813 26.6018 74.4637 26.9555 74.5909 27.2716C74.7902 27.7671 75.099 28.1562 75.5173 28.4389C75.9356 28.7216 76.4656 28.8635 77.1092 28.8635C77.7529 28.8635 78.2724 28.7352 78.6719 28.4775C79.0704 28.2209 79.3281 27.9121 79.4439 27.5511H81.9904C81.836 28.2584 81.5397 28.8854 81.1026 29.432C80.6655 29.9787 80.1095 30.4001 79.4335 30.6953C78.7585 30.9906 77.9834 31.1387 77.1092 31.1387C76.235 31.1387 75.4213 30.9843 74.7464 30.6755C74.0704 30.3667 73.5081 29.9515 73.0585 29.431C72.6089 28.9104 72.2709 28.3283 72.0455 27.6847C71.8202 27.041 71.7086 26.3859 71.7086 25.7172V25.3312C71.7086 24.6364 71.8202 23.9677 72.0455 23.3251C72.2709 22.6825 72.6057 22.1035 73.0491 21.5892C73.4924 21.075 74.0453 20.6671 74.7088 20.3645C75.3713 20.063 76.1328 19.9107 76.9945 19.9107C78.1253 19.9107 79.0746 20.1622 79.8403 20.6639C80.605 21.1657 81.1871 21.8188 81.5866 22.622L81.5846 22.6231ZM74.6003 23.7424C74.5002 23.9834 74.4251 24.2515 74.374 24.5426H79.5378C79.4898 24.2223 79.4157 23.9271 79.3083 23.6652C79.1153 23.1958 78.8263 22.8327 78.4403 22.5751C78.0544 22.3174 77.5724 22.1891 76.9934 22.1891C76.4145 22.1891 75.9231 22.3237 75.5173 22.5949C75.1115 22.8651 74.8069 23.2479 74.6014 23.7424H74.6003ZM86.7933 21.3201C86.3061 21.9147 86.0046 22.7138 85.8867 23.7143V20.279H83.7064V30.7736H86.4657V25.3333C86.4657 24.433 86.7098 23.7445 87.1991 23.2688C87.6873 22.7931 88.3758 22.5553 89.2636 22.5553H90.0157V20.1434H89.6109C88.3758 20.1434 87.438 20.5356 86.7943 21.3201H86.7933ZM97.6352 27.8412C97.4422 28.1239 97.1825 28.3492 96.8539 28.5161C96.5263 28.683 96.1309 28.7665 95.6678 28.7665C95.0627 28.7665 94.5714 28.6288 94.1916 28.3513C93.8119 28.0748 93.5323 27.6888 93.3519 27.1944C93.1714 26.6999 93.0817 26.1501 93.0817 25.5451C93.0817 24.9014 93.1787 24.3391 93.3717 23.8572C93.5647 23.3742 93.8505 22.9924 94.2302 22.7096C94.6089 22.4269 95.0815 22.2851 95.6479 22.2851C96.3302 22.2851 96.857 22.4655 97.2305 22.8254C97.6039 23.1853 97.822 23.6297 97.8867 24.1566H100.587C100.536 23.3074 100.291 22.5646 99.8541 21.9283C99.417 21.2919 98.8381 20.7964 98.1182 20.4428C97.3974 20.0891 96.5743 19.9118 95.6479 19.9118C94.7737 19.9118 94.0049 20.063 93.3425 20.3656C92.68 20.6681 92.124 21.0729 91.6734 21.5809C91.2227 22.0889 90.8857 22.671 90.6604 23.3272C90.4351 23.9834 90.3224 24.6646 90.3224 25.3719V25.7381C90.3224 26.4068 90.4319 27.0629 90.651 27.7055C90.869 28.3492 91.2008 28.9303 91.6441 29.4519C92.0885 29.9724 92.6446 30.3845 93.3133 30.686C93.9819 30.9885 94.7664 31.1398 95.6678 31.1398C96.5691 31.1398 97.4422 30.9593 98.1756 30.5994C98.909 30.2395 99.4974 29.7377 99.9407 29.094C100.384 28.4514 100.625 27.7055 100.664 26.8564H97.9826C97.944 27.2298 97.8282 27.5574 97.6352 27.8401V27.8412ZM108.149 19.9514H108.033C107.222 19.9514 106.55 20.1444 106.016 20.5304C105.517 20.8913 105.138 21.4109 104.869 22.0764V16.6914H102.111V30.7746H104.869V24.7168C104.869 24.0356 105.064 23.4858 105.457 23.0675C105.849 22.6502 106.367 22.4405 107.01 22.4405C107.615 22.4405 108.103 22.6304 108.476 23.009C108.85 23.3888 109.036 23.8999 109.036 24.5426V30.7736H111.795V24.7929C111.795 23.2239 111.486 22.0243 110.868 21.1949C110.251 20.3656 109.344 19.9504 108.148 19.9504L108.149 19.9514ZM121.933 21.9095C122.3 22.5208 122.483 23.3147 122.483 24.2922V30.7746H120.303V28.7519C120.218 29.0241 120.114 29.2766 119.985 29.5019C119.696 30.0037 119.296 30.3866 118.789 30.6494C118.28 30.9134 117.661 31.0448 116.928 31.0448C116.196 31.0448 115.503 30.9102 114.932 30.6401C114.359 30.3699 113.915 29.9839 113.6 29.4821C113.285 28.9803 113.128 28.3763 113.128 27.669C113.128 26.8971 113.318 26.267 113.697 25.7787C114.076 25.2905 114.613 24.9233 115.308 24.6792C116.003 24.4351 116.813 24.313 117.74 24.313H119.843V24.2359C119.843 23.6444 119.698 23.201 119.409 22.9047C119.12 22.6095 118.672 22.4614 118.068 22.4614C117.76 22.4614 117.38 22.4676 116.93 22.4801C116.48 22.4927 116.02 22.5094 115.55 22.5281C115.081 22.5469 114.665 22.5699 114.306 22.5959V20.2613C114.602 20.2352 114.936 20.2101 115.308 20.1841C115.682 20.158 116.071 20.1423 116.475 20.1361C116.881 20.1298 117.257 20.1267 117.604 20.1267C118.685 20.1267 119.585 20.2706 120.305 20.5607C121.025 20.8496 121.568 21.3003 121.936 21.9116L121.933 21.9095ZM119.492 28.2084C119.698 27.8871 119.814 27.45 119.84 26.896V25.9321H117.717C117.112 25.9321 116.65 26.0802 116.328 26.3755C116.007 26.6717 115.846 27.0577 115.846 27.5334C115.846 28.0091 116.007 28.3732 116.328 28.6622C116.65 28.9511 117.113 29.0961 117.717 29.0961C118.077 29.0961 118.412 29.0294 118.72 28.8937C119.029 28.7592 119.286 28.5307 119.492 28.2084ZM123.679 20.279V22.3435H125.145V30.7736H127.904V20.279H123.679ZM126.168 19.0637C126.695 19.0637 127.087 18.926 127.344 18.6485C127.601 18.372 127.729 18.0152 127.729 17.5781C127.729 17.141 127.601 16.7832 127.344 16.5078C127.087 16.2314 126.694 16.0926 126.168 16.0926C125.642 16.0926 125.229 16.2303 124.971 16.5078C124.714 16.7843 124.585 17.141 124.585 17.5781C124.585 18.0152 124.714 18.372 124.971 18.6485C125.228 18.9249 125.627 19.0637 126.168 19.0637ZM138.996 21.1574C138.352 20.3531 137.407 19.9514 136.161 19.9514H136.045C135.208 19.9514 134.51 20.1309 133.951 20.4918C133.392 20.8517 132.971 21.3921 132.688 22.1119C132.593 22.3539 132.52 22.622 132.456 22.9026V20.28H130.276V30.7746H133.034V24.6208C133.034 23.9646 133.23 23.4378 133.623 23.0393C134.015 22.6408 134.532 22.4415 135.176 22.4415C135.82 22.4415 136.3 22.6345 136.661 23.0205C137.021 23.4065 137.202 23.9145 137.202 24.5446V30.7757H139.96V24.7762C139.96 23.1687 139.639 21.9627 138.996 21.1595V21.1574ZM108.441 2.29004H110.9V9.34416H112.501V2.29004H114.961V0.874413H108.441V2.29004ZM129.277 3.41565C129.462 3.92578 129.555 4.44112 129.555 4.95854V5.21309C129.555 5.68461 129.464 6.17387 129.282 6.68087C129.1 7.18786 128.827 7.65939 128.464 8.09649C128.101 8.53359 127.639 8.88724 127.077 9.15743C126.516 9.42762 125.857 9.56323 125.099 9.56323C124.34 9.56323 123.669 9.42762 123.109 9.15743C122.549 8.88724 122.084 8.53359 121.718 8.09649C121.35 7.65939 121.077 7.18786 120.9 6.68087C120.721 6.17387 120.633 5.68566 120.633 5.21309V4.95854C120.633 4.44007 120.725 3.92578 120.911 3.41565C121.097 2.90553 121.375 2.43921 121.747 2.01776C122.118 1.59631 122.582 1.25935 123.139 1.00899C123.696 0.757575 124.35 0.631348 125.1 0.631348C125.85 0.631348 126.49 0.757575 127.043 1.00899C127.596 1.2604 128.06 1.59631 128.436 2.01776C128.81 2.43921 129.091 2.90553 129.277 3.41565ZM127.931 5.09833C127.931 4.67271 127.865 4.28046 127.734 3.92056C127.602 3.56066 127.412 3.24561 127.165 2.97542C126.918 2.70419 126.62 2.49555 126.272 2.34846C125.924 2.20136 125.534 2.12834 125.1 2.12834C124.666 2.12834 124.263 2.20241 123.91 2.34846C123.559 2.49555 123.258 2.70419 123.011 2.97542C122.764 3.24561 122.576 3.56066 122.449 3.92056C122.322 4.28046 122.257 4.67271 122.257 5.09833C122.257 5.49997 122.321 5.87969 122.449 6.23542C122.576 6.59115 122.764 6.90829 123.011 7.18682C123.258 7.46536 123.559 7.6813 123.91 7.83673C124.262 7.99217 124.658 8.06937 125.1 8.06937C125.541 8.06937 125.926 7.99217 126.277 7.83673C126.629 7.68234 126.928 7.46536 127.177 7.18682C127.424 6.90829 127.612 6.59115 127.739 6.23542C127.866 5.87969 127.931 5.50101 127.931 5.09833ZM138.453 8.00991H138.291L134.671 0.874413H132.037V9.34416H133.534V2.20867H133.684L137.315 9.34416H139.961V0.874413H138.453V8.00991ZM83.9808 5.59072C84.2322 5.90368 84.3584 6.32722 84.3584 6.86134V7.02408C84.3584 7.5269 84.2478 7.9567 84.0277 8.31139C83.8076 8.66712 83.48 8.93836 83.0471 9.12405C82.6142 9.30973 82.0759 9.40258 81.4343 9.40258H78.07V0.817037H81.0859C82.0457 0.817037 82.7717 1.01838 83.2672 1.42001C83.7617 1.82164 84.01 2.39853 84.01 3.14859V3.31133C84.01 3.8371 83.8838 4.25647 83.6324 4.57047C83.4967 4.73843 83.333 4.87926 83.1441 4.99506C83.4884 5.13276 83.769 5.32888 83.9808 5.59177V5.59072ZM79.6473 2.11582V4.44842H81.2372C81.6471 4.44842 81.9465 4.34201 82.1364 4.1292C82.3263 3.91639 82.4212 3.63577 82.4212 3.28838C82.4212 2.94099 82.3263 2.64785 82.1364 2.43504C81.9476 2.22223 81.6471 2.11582 81.2372 2.11582H79.6473ZM82.7686 6.89577C82.7686 6.51709 82.6664 6.2229 82.4608 6.01426C82.2553 5.80562 81.9518 5.7013 81.5501 5.7013H79.6473V8.10275H81.5501C81.9445 8.10275 82.2459 7.99634 82.4556 7.78353C82.6653 7.57072 82.7686 7.27445 82.7686 6.89577ZM92.5131 6.02574C92.5131 6.44302 92.4359 6.80501 92.2815 7.11067C92.1271 7.41633 91.8987 7.65209 91.5972 7.81796C91.2957 7.98487 90.9285 8.06728 90.4956 8.06728C90.0626 8.06728 89.6829 7.98383 89.3814 7.81796C89.0799 7.65209 88.8515 7.41424 88.6971 7.10441C88.5427 6.79562 88.4655 6.43572 88.4655 6.02574V0.874413H86.8527V5.93289C86.8527 6.66731 86.9936 7.30575 87.2763 7.84717C87.5579 8.38859 87.9679 8.81004 88.5062 9.11153C89.0434 9.41301 89.7069 9.56427 90.4956 9.56427C91.2842 9.56427 91.9477 9.41405 92.485 9.11153C93.0222 8.81004 93.4291 8.38859 93.7034 7.84717C93.9778 7.30575 94.1155 6.66731 94.1155 5.93289V0.874413H92.5142V6.02574H92.5131ZM97.2576 9.34416H98.8704V0.874413H97.2576V9.34416ZM104.195 0.874413H102.582V9.34416H107.629V7.92854H104.195V0.874413Z" fill="black" fill-opacity="0.75"/>
</svg>
