<svg width="132" height="32" viewBox="0 0 132 32" fill="none" xmlns="http://www.w3.org/2000/svg">
<path d="M4.13181 18.4919H7.14506V20.3976H4.13181V24.7737C4.13181 25.2587 4.25847 25.6298 4.51276 25.89C4.76706 26.1502 5.13623 26.2808 5.62027 26.2808H7.14506V28.4958H5.72926C4.79749 28.4958 4.03461 28.378 3.44158 28.1414C2.84855 27.9057 2.40967 27.5032 2.12494 26.9337C1.8402 26.3652 1.69784 25.5965 1.69784 24.6274V20.3967H0.136719V18.4909H1.69784V15.731H4.13083V18.4909L4.13181 18.4919ZM14.2987 18.1836H14.1897C13.4269 18.1836 12.7936 18.3652 12.2918 18.7285C11.8215 19.0682 11.4642 19.5582 11.2118 20.1836V15.1144H8.61585V28.3692H11.2118V22.6676C11.2118 22.0265 11.3964 21.5091 11.7656 21.1154C12.1348 20.7226 12.6217 20.5253 13.2275 20.5253C13.797 20.5253 14.2565 20.704 14.608 21.0604C14.9585 21.4178 15.1343 21.8989 15.1343 22.5037V28.3682H17.7302V22.7393C17.7302 21.2626 17.4396 20.1335 16.8584 19.353C16.2771 18.5724 15.4239 18.1816 14.2987 18.1816V18.1836ZM28.4067 20.6981C28.7818 21.4551 28.9693 22.269 28.9693 23.1399V24.0835H21.5839C21.6271 24.4428 21.7047 24.7757 21.8245 25.0731C22.012 25.5395 22.3026 25.9057 22.6964 26.1718C23.0901 26.4379 23.5889 26.5714 24.1946 26.5714C24.8004 26.5714 25.2894 26.4507 25.6654 26.2081C26.0405 25.9666 26.283 25.676 26.392 25.3363H28.7887C28.6433 26.002 28.3645 26.592 27.9531 27.1065C27.5417 27.621 27.0184 28.0177 26.3822 28.2955C25.7469 28.5734 25.0174 28.7128 24.1946 28.7128C23.3719 28.7128 22.606 28.5675 21.9708 28.2769C21.3346 27.9863 20.8053 27.5955 20.3822 27.1055C19.959 26.6156 19.6409 26.0677 19.4288 25.462C19.2167 24.8562 19.1117 24.2396 19.1117 23.6102V23.2469C19.1117 22.593 19.2167 21.9637 19.4288 21.3589C19.6409 20.754 19.9561 20.2091 20.3733 19.7251C20.7906 19.241 21.311 18.8571 21.9354 18.5724C22.5589 18.2887 23.2756 18.1453 24.0866 18.1453C25.151 18.1453 26.0444 18.3819 26.7651 18.8542C27.4848 19.3265 28.0326 19.9411 28.4087 20.6971L28.4067 20.6981ZM21.8343 21.7516C21.7401 21.9784 21.6694 22.2307 21.6213 22.5047H26.4813C26.4362 22.2032 26.3665 21.9254 26.2653 21.6789C26.0837 21.2371 25.8117 20.8954 25.4484 20.6529C25.0852 20.4104 24.6316 20.2896 24.0866 20.2896C23.5417 20.2896 23.0793 20.4163 22.6973 20.6716C22.3154 20.9259 22.0287 21.2862 21.8353 21.7516H21.8343ZM41.4975 21.1429C40.7828 20.8159 39.9482 20.6097 38.9919 20.5253L37.8657 20.435C37.2118 20.3741 36.7405 20.1924 36.4499 19.89C36.1593 19.5876 36.014 19.2361 36.014 18.8375C36.014 18.5106 36.0955 18.2081 36.2585 17.9293C36.4224 17.6514 36.6669 17.4276 36.9939 17.2577C37.3208 17.0889 37.7322 17.0034 38.228 17.0034C38.7239 17.0034 39.1784 17.0967 39.5172 17.2852C39.8559 17.4728 40.1102 17.7182 40.2801 18.0206C40.4499 18.323 40.5344 18.651 40.5344 19.0015H43.1313C43.1313 18.1424 42.934 17.3913 42.5412 16.7501C42.1475 16.108 41.5849 15.6122 40.8525 15.2607C40.12 14.9102 39.2452 14.7344 38.228 14.7344C37.2108 14.7344 36.4156 14.9003 35.6949 15.2342C34.9742 15.567 34.4116 16.0393 34.0061 16.65C33.5997 17.2617 33.3974 17.9912 33.3974 18.8385C33.3974 19.9764 33.7793 20.8905 34.5412 21.5798C35.3041 22.27 36.3262 22.6686 37.6095 22.7786L38.7356 22.8689C39.5712 22.9416 40.1848 23.1173 40.5785 23.3952C40.9723 23.674 41.1686 24.0432 41.1686 24.5027C41.1686 24.866 41.0655 25.1929 40.8603 25.4836C40.6541 25.7742 40.3458 26.0069 39.9345 26.1826C39.5221 26.3584 39.0086 26.4458 38.391 26.4458C37.7008 26.4458 37.147 26.3466 36.7297 26.1463C36.3125 25.946 36.0061 25.6858 35.8127 25.3657C35.6193 25.0457 35.5221 24.703 35.5221 24.3397H32.9261C32.9261 25.187 33.1382 25.9411 33.5623 26.6009C33.9855 27.2607 34.6031 27.7781 35.4141 28.1532C36.2251 28.5282 37.2177 28.7158 38.392 28.7158C39.4926 28.7158 40.446 28.54 41.2521 28.1895C42.0572 27.839 42.6777 27.3451 43.1127 26.7099C43.5486 26.0736 43.7666 25.3392 43.7666 24.5037C43.7666 23.6681 43.5672 23.027 43.1676 22.4703C42.768 21.9136 42.2113 21.4718 41.4975 21.1448V21.1429ZM51.3935 24.3201C51.3935 24.9377 51.2148 25.4276 50.8574 25.7909C50.5 26.1541 50.0317 26.3358 49.4504 26.3358C48.8692 26.3358 48.448 26.164 48.1151 25.8184C47.7823 25.4737 47.6163 25.0044 47.6163 24.4114V18.4929H45.0204V24.2121C45.0204 25.7015 45.3287 26.8179 45.9462 27.5621C46.5638 28.3063 47.4475 28.6784 48.5972 28.6784H48.7062C49.4691 28.6784 50.1014 28.5125 50.6031 28.1787C51.1058 27.8459 51.4867 27.3461 51.7469 26.6804C51.8225 26.487 51.8844 26.2739 51.9374 26.0511V28.3692H53.9894V18.4919H51.3935V24.3201ZM66.4185 21.242C66.6306 21.8537 66.7366 22.5164 66.7366 23.2302V23.6112C66.7366 24.326 66.6335 24.9917 66.4273 25.6082C66.2211 26.2258 65.9158 26.7639 65.5103 27.2243C65.1048 27.6848 64.6208 28.0442 64.0582 28.3044C63.4946 28.5646 62.8564 28.6951 62.1426 28.6951C61.4288 28.6951 60.7288 28.541 60.1181 28.2317C59.5977 27.9696 59.1686 27.5768 58.8201 27.0692V32H56.2241V18.4909H58.2761V20.9818C58.3655 20.7099 58.4666 20.4497 58.5933 20.216C58.9624 19.5385 59.4553 19.0299 60.0739 18.6912C60.6915 18.3525 61.3807 18.1826 62.1436 18.1826C62.8456 18.1826 63.4789 18.3122 64.0405 18.5724C64.6041 18.8326 65.0871 19.19 65.4936 19.6436C65.8991 20.0972 66.2074 20.6303 66.4195 21.241L66.4185 21.242ZM64.1397 23.4129C64.1397 22.8071 64.0277 22.2779 63.8039 21.8243C63.579 21.3697 63.2678 21.0162 62.8682 20.7619C62.4686 20.5076 62.0032 20.38 61.47 20.38C60.986 20.38 60.5373 20.486 60.1259 20.6981C59.7145 20.9102 59.3817 21.2243 59.1274 21.6426C58.8731 22.0599 58.7464 22.5596 58.7464 23.1409V23.8488C58.7464 24.4055 58.876 24.8837 59.1362 25.2833C59.3964 25.6829 59.7361 25.9882 60.1534 26.2003C60.5707 26.4124 61.0096 26.5174 61.47 26.5174C62.0022 26.5174 62.4686 26.3849 62.8682 26.1178C63.2678 25.8517 63.579 25.4855 63.8039 25.0191C64.0277 24.5538 64.1397 24.0177 64.1397 23.4119V23.4129ZM76.9222 20.6981C77.2972 21.4551 77.4848 22.269 77.4848 23.1399V24.0835H70.0994C70.1426 24.4428 70.2202 24.7757 70.34 25.0731C70.5275 25.5395 70.8181 25.9057 71.2118 26.1718C71.6055 26.4379 72.1043 26.5714 72.7101 26.5714C73.3159 26.5714 73.8049 26.4507 74.1809 26.2081C74.556 25.9666 74.7985 25.676 74.9074 25.3363H77.3041C77.1588 26.002 76.88 26.592 76.4686 27.1065C76.0572 27.621 75.5339 28.0177 74.8976 28.2955C74.2624 28.5734 73.5329 28.7128 72.7101 28.7128C71.8873 28.7128 71.1215 28.5675 70.4862 28.2769C69.85 27.9863 69.3208 27.5955 68.8976 27.1055C68.4745 26.6156 68.1563 26.0677 67.9443 25.462C67.7322 24.8562 67.6271 24.2396 67.6271 23.6102V23.2469C67.6271 22.593 67.7322 21.9637 67.9443 21.3589C68.1563 20.754 68.4715 20.2091 68.8888 19.7251C69.3061 19.241 69.8265 18.8571 70.4509 18.5724C71.0744 18.2887 71.7911 18.1453 72.6021 18.1453C73.6664 18.1453 74.5599 18.3819 75.2806 18.8542C76.0002 19.3265 76.5481 19.9411 76.9241 20.6971L76.9222 20.6981ZM70.3488 21.7516C70.2545 21.9784 70.1838 22.2307 70.1357 22.5047H74.9958C74.9507 22.2032 74.8809 21.9254 74.7798 21.6789C74.5982 21.2371 74.3262 20.8954 73.9629 20.6529C73.5996 20.4104 73.146 20.2896 72.6011 20.2896C72.0562 20.2896 71.5938 20.4163 71.2118 20.6716C70.8299 20.9259 70.5432 21.2862 70.3498 21.7516H70.3488ZM81.8245 19.4718C81.366 20.0314 81.0822 20.7835 80.9713 21.7251V18.4919H78.9192V28.3692H81.5162V23.2489C81.5162 22.4016 81.7459 21.7536 82.2064 21.3058C82.6659 20.8581 83.3139 20.6343 84.1495 20.6343H84.8574V18.3643H84.4764C83.3139 18.3643 82.4313 18.7334 81.8255 19.4718H81.8245ZM92.0287 25.6092C91.8471 25.8753 91.6026 26.0874 91.2933 26.2445C90.985 26.4016 90.6129 26.4801 90.177 26.4801C89.6075 26.4801 89.1451 26.3505 88.7877 26.0893C88.4303 25.8292 88.1671 25.4659 87.9973 25.0005C87.8274 24.5351 87.743 24.0177 87.743 23.4482C87.743 22.8424 87.8343 22.3132 88.0159 21.8596C88.1976 21.405 88.4666 21.0457 88.824 20.7796C89.1804 20.5135 89.6252 20.38 90.1583 20.38C90.8004 20.38 91.2963 20.5498 91.6478 20.8886C91.9983 21.2273 92.2045 21.6456 92.2653 22.1414H94.8073C94.7592 21.3422 94.5285 20.6431 94.1171 20.0442C93.7057 19.4453 93.1608 18.9789 92.4833 18.646C91.8048 18.3132 91.0302 18.1463 90.1583 18.1463C89.3355 18.1463 88.6119 18.2887 87.9885 18.5734C87.365 18.8581 86.8417 19.2391 86.4175 19.7172C85.9934 20.1954 85.6762 20.7432 85.4641 21.3608C85.2521 21.9784 85.146 22.6195 85.146 23.2852V23.6298C85.146 24.2592 85.2491 24.8768 85.4553 25.4816C85.6605 26.0874 85.9727 26.6343 86.39 27.1252C86.8083 27.6151 87.3316 28.0029 87.961 28.2867C88.5903 28.5714 89.3287 28.7138 90.177 28.7138C91.0253 28.7138 91.8471 28.5439 92.5373 28.2052C93.2275 27.8665 93.7813 27.3942 94.1986 26.7884C94.6158 26.1836 94.8427 25.4816 94.879 24.6824H92.3557C92.3193 25.0339 92.2104 25.3422 92.0287 25.6082V25.6092ZM101.924 18.1836H101.815C101.052 18.1836 100.419 18.3652 99.9168 18.7285C99.4465 19.0682 99.0901 19.5572 98.8368 20.1836V15.1154H96.2408V28.3702H98.8368V22.6686C98.8368 22.0275 99.0204 21.5101 99.3905 21.1163C99.7597 20.7236 100.247 20.5263 100.852 20.5263C101.421 20.5263 101.88 20.705 102.232 21.0614C102.583 21.4188 102.759 21.8999 102.759 22.5047V28.3692H105.355V22.7403C105.355 21.2636 105.065 20.1345 104.483 19.354C103.902 18.5734 103.049 18.1826 101.923 18.1826L101.924 18.1836ZM114.898 20.0265C115.242 20.6019 115.415 21.349 115.415 22.269V28.3702H113.363V26.4664C113.283 26.7226 113.185 26.9602 113.064 27.1723C112.792 27.6446 112.416 28.0049 111.938 28.2523C111.459 28.5007 110.876 28.6244 110.187 28.6244C109.498 28.6244 108.846 28.4978 108.308 28.2435C107.769 27.9892 107.351 27.6259 107.055 27.1537C106.758 26.6814 106.61 26.1129 106.61 25.4472C106.61 24.7207 106.789 24.1276 107.146 23.6681C107.502 23.2086 108.008 22.863 108.662 22.6333C109.316 22.4035 110.079 22.2887 110.951 22.2887H112.93V22.216C112.93 21.6593 112.794 21.242 112.522 20.9632C112.25 20.6853 111.828 20.5459 111.26 20.5459C110.969 20.5459 110.612 20.5518 110.189 20.5636C109.765 20.5754 109.332 20.5911 108.89 20.6087C108.448 20.6264 108.057 20.648 107.718 20.6726V18.4752C107.997 18.4507 108.311 18.4271 108.662 18.4026C109.013 18.378 109.38 18.3633 109.761 18.3574C110.143 18.3515 110.496 18.3486 110.823 18.3486C111.84 18.3486 112.688 18.484 113.365 18.757C114.042 19.029 114.554 19.4531 114.9 20.0285L114.898 20.0265ZM112.6 25.9548C112.794 25.6524 112.903 25.241 112.927 24.7197V23.8125H110.929C110.36 23.8125 109.925 23.9519 109.622 24.2297C109.32 24.5086 109.169 24.8719 109.169 25.3196C109.169 25.7673 109.32 26.11 109.622 26.3819C109.925 26.6539 110.361 26.7904 110.929 26.7904C111.268 26.7904 111.583 26.7275 111.874 26.5999C112.164 26.4732 112.406 26.2582 112.6 25.9548ZM116.54 18.4919V20.435H117.921V28.3692H120.517V18.4919H116.54ZM118.883 17.3481C119.379 17.3481 119.748 17.2185 119.989 16.9573C120.232 16.6971 120.353 16.3613 120.353 15.9499C120.353 15.5385 120.232 15.2018 119.989 14.9426C119.748 14.6824 119.378 14.5518 118.883 14.5518C118.388 14.5518 117.999 14.6814 117.757 14.9426C117.514 15.2027 117.393 15.5385 117.393 15.9499C117.393 16.3613 117.514 16.6971 117.757 16.9573C117.998 17.2175 118.374 17.3481 118.883 17.3481ZM130.957 19.3186C130.351 18.5616 129.461 18.1836 128.288 18.1836H128.179C127.391 18.1836 126.735 18.3525 126.208 18.6922C125.682 19.0309 125.285 19.5395 125.019 20.217C124.93 20.4448 124.861 20.6971 124.801 20.9612V18.4929H122.749V28.3702H125.345V22.5783C125.345 21.9607 125.53 21.4649 125.899 21.0898C126.268 20.7148 126.755 20.5272 127.361 20.5272C127.967 20.5272 128.419 20.7089 128.759 21.0722C129.098 21.4354 129.268 21.9136 129.268 22.5066V28.3711H131.864V22.7246C131.864 21.2116 131.561 20.0766 130.957 19.3206V19.3186ZM65.4592 1.56112H67.7734V8.20029H69.2805V1.56112H71.5957V0.228768H65.4592V1.56112ZM85.0704 2.62052C85.2452 3.10064 85.3326 3.58566 85.3326 4.07266V4.31222C85.3326 4.75601 85.2472 5.2165 85.0753 5.69367C84.9045 6.17084 84.6473 6.61463 84.3056 7.02602C83.9639 7.43741 83.529 7.77025 83.0007 8.02455C82.4725 8.27884 81.852 8.40648 81.1382 8.40648C80.4244 8.40648 79.7931 8.27884 79.2658 8.02455C78.7386 7.77025 78.3007 7.43741 77.9561 7.02602C77.6105 6.61463 77.3532 6.17084 77.1863 5.69367C77.0184 5.2165 76.9349 4.757 76.9349 4.31222V4.07266C76.9349 3.58468 77.0223 3.10064 77.1971 2.62052C77.3719 2.1404 77.634 1.70152 77.9835 1.30486C78.3331 0.908198 78.77 0.591065 79.2943 0.355425C79.8186 0.118802 80.4332 0 81.1392 0C81.8451 0 82.448 0.118802 82.9683 0.355425C83.4887 0.592047 83.9256 0.908198 84.2791 1.30486C84.6316 1.70152 84.8957 2.1404 85.0704 2.62052ZM83.8039 4.20422C83.8039 3.80363 83.742 3.43446 83.6183 3.09573C83.4946 2.757 83.3159 2.46048 83.0832 2.20619C82.8505 1.95091 82.5697 1.75454 82.2428 1.6161C81.9148 1.47766 81.5476 1.40893 81.1392 1.40893C80.7307 1.40893 80.3517 1.47864 80.0199 1.6161C79.689 1.75454 79.4062 1.95091 79.1735 2.20619C78.9408 2.46048 78.7641 2.757 78.6443 3.09573C78.5245 3.43446 78.4637 3.80363 78.4637 4.20422C78.4637 4.58223 78.5236 4.93962 78.6443 5.27442C78.7641 5.60923 78.9408 5.90771 79.1735 6.16986C79.4062 6.43201 79.689 6.63525 80.0199 6.78154C80.3508 6.92783 80.7239 7.00049 81.1392 7.00049C81.5545 7.00049 81.9168 6.92783 82.2477 6.78154C82.5785 6.63623 82.8603 6.43201 83.094 6.16986C83.3267 5.90771 83.5034 5.60923 83.6232 5.27442C83.743 4.93962 83.8039 4.58321 83.8039 4.20422ZM93.7067 6.94453H93.5545L90.1475 0.228768H87.6684V8.20029H89.0773V1.48454H89.2187L92.6365 8.20029H95.1264V0.228768H93.7067V6.94453ZM42.4381 4.66765C42.6748 4.9622 42.7936 5.36082 42.7936 5.86352V6.01669C42.7936 6.48994 42.6895 6.89445 42.4823 7.22828C42.2752 7.56308 41.9669 7.81836 41.5594 7.99313C41.1519 8.16789 40.6453 8.25528 40.0415 8.25528H36.8751V0.174767H39.7135C40.6168 0.174767 41.3002 0.364261 41.7666 0.742268C42.2329 1.12027 42.4656 1.66323 42.4656 2.36917V2.52234C42.4656 3.01718 42.3468 3.41188 42.1102 3.70741C41.9826 3.86549 41.8284 3.99804 41.6507 4.10702C41.9747 4.23662 42.2388 4.42121 42.4381 4.66863V4.66765ZM38.3606 1.39715V3.59254H39.8569C40.2428 3.59254 40.5245 3.49239 40.7032 3.2921C40.8819 3.0918 40.9713 2.82769 40.9713 2.50074C40.9713 2.17378 40.8819 1.89789 40.7032 1.69759C40.5255 1.4973 40.2428 1.39715 39.8569 1.39715H38.3606ZM41.2982 5.89593C41.2982 5.53952 41.202 5.26264 41.0086 5.06627C40.8152 4.86991 40.5294 4.77172 40.1514 4.77172H38.3606V7.03191H40.1514C40.5226 7.03191 40.8063 6.93176 41.0037 6.73147C41.201 6.53117 41.2982 6.25233 41.2982 5.89593ZM50.4686 5.07707C50.4686 5.46981 50.3959 5.81051 50.2506 6.09818C50.1053 6.38586 49.8903 6.60776 49.6065 6.76387C49.3228 6.92096 48.9772 6.99853 48.5697 6.99853C48.1622 6.99853 47.8049 6.91998 47.5211 6.76387C47.2374 6.60776 47.0223 6.3839 46.877 6.09229C46.7317 5.80167 46.659 5.46294 46.659 5.07707V0.228768H45.1411V4.98969C45.1411 5.6809 45.2737 6.28179 45.5398 6.79136C45.8049 7.30093 46.1907 7.69759 46.6973 7.98135C47.203 8.2651 47.8274 8.40746 48.5697 8.40746C49.312 8.40746 49.9364 8.26608 50.4421 7.98135C50.9477 7.69759 51.3306 7.30093 51.5888 6.79136C51.8471 6.28179 51.9767 5.6809 51.9767 4.98969V0.228768H50.4696V5.07707H50.4686ZM54.9349 8.20029H56.4529V0.228768H54.9349V8.20029ZM61.4642 0.228768H59.9462V8.20029H64.6964V6.86794H61.4642V0.228768Z" fill="black" fill-opacity="0.75"/>
</svg>
