<svg width="96" height="32" viewBox="0 0 96 32" fill="none" xmlns="http://www.w3.org/2000/svg">
<path d="M91.7141 8.32708V4.69708L88.9531 0.13208H90.6581L92.7701 3.69608H92.1651L94.2661 0.13208H95.9711L93.2211 4.68608V8.32708H91.7141Z" fill="#101114"/>
<path d="M81.25 8.32708V0.13208H84.704C85.2467 0.13208 85.7087 0.227413 86.09 0.41808C86.4787 0.601414 86.7757 0.865414 86.981 1.21008C87.1937 1.54741 87.3 1.95808 87.3 2.44208C87.3 2.81608 87.1973 3.16808 86.992 3.49808C86.794 3.82075 86.475 4.08841 86.035 4.30108V3.60808C86.4383 3.76208 86.7573 3.95275 86.992 4.18008C87.2267 4.40741 87.3917 4.66041 87.487 4.93908C87.5823 5.21775 87.63 5.51108 87.63 5.81908C87.63 6.60375 87.3697 7.21975 86.849 7.66708C86.3357 8.10708 85.6207 8.32708 84.704 8.32708H81.25ZM82.746 7.00708H84.858C85.2467 7.00708 85.5547 6.90075 85.782 6.68808C86.0167 6.46808 86.134 6.17841 86.134 5.81908C86.134 5.45975 86.0167 5.17008 85.782 4.95008C85.5547 4.73008 85.2467 4.62008 84.858 4.62008H82.746V7.00708ZM82.746 3.31108H84.781C85.089 3.31108 85.3347 3.22308 85.518 3.04708C85.7013 2.86375 85.793 2.62908 85.793 2.34308C85.793 2.05708 85.7013 1.82975 85.518 1.66108C85.3347 1.49241 85.089 1.40808 84.781 1.40808H82.746V3.31108Z" fill="#101114"/>
<path d="M68.7344 8.32708V0.13208H71.4074C72.2727 0.13208 73.0244 0.30808 73.6624 0.66008C74.3077 1.00475 74.8064 1.48508 75.1584 2.10108C75.5104 2.70975 75.6864 3.41741 75.6864 4.22408C75.6864 5.02341 75.5104 5.73475 75.1584 6.35808C74.8064 6.97408 74.3077 7.45808 73.6624 7.81008C73.0244 8.15475 72.2727 8.32708 71.4074 8.32708H68.7344ZM70.2304 7.00708H71.4404C71.9977 7.00708 72.478 6.89341 72.8814 6.66608C73.292 6.43141 73.611 6.10875 73.8384 5.69808C74.0657 5.28008 74.1794 4.78875 74.1794 4.22408C74.1794 3.65208 74.0657 3.16075 73.8384 2.75008C73.611 2.33941 73.292 2.02041 72.8814 1.79308C72.478 1.56575 71.9977 1.45208 71.4404 1.45208H70.2304V7.00708Z" fill="#101114"/>
<path d="M60.9766 8.32708V0.13208H66.4216V1.45208H62.4726V3.55308H66.2016V4.87308H62.4726V7.00708H66.4216V8.32708H60.9766Z" fill="#101114"/>
<path d="M51.7031 8.32708V0.13208H53.1991V3.70708H56.6861V0.13208H58.1931V8.32708H56.6861V5.02708H53.1991V8.32708H51.7031Z" fill="#101114"/>
<path d="M46.2968 8.459C45.7761 8.459 45.2921 8.36367 44.8448 8.173C44.4048 7.98233 44.0235 7.71833 43.7008 7.381C43.3855 7.03633 43.1545 6.63667 43.0078 6.182L44.2508 5.643C44.4488 6.11233 44.7348 6.48267 45.1088 6.754C45.4828 7.018 45.9045 7.15 46.3738 7.15C46.6378 7.15 46.8651 7.10967 47.0558 7.029C47.2538 6.941 47.4041 6.82367 47.5068 6.677C47.6168 6.53033 47.6718 6.35433 47.6718 6.149C47.6718 5.907 47.5985 5.709 47.4518 5.555C47.3125 5.39367 47.0998 5.269 46.8138 5.181L45.2408 4.675C44.6028 4.477 44.1225 4.18 43.7998 3.784C43.4771 3.388 43.3158 2.92233 43.3158 2.387C43.3158 1.91767 43.4295 1.50333 43.6568 1.144C43.8915 0.784667 44.2141 0.506 44.6248 0.308C45.0428 0.102667 45.5195 0 46.0548 0C46.5461 0 46.9971 0.088 47.4078 0.264C47.8185 0.432667 48.1705 0.671 48.4638 0.979C48.7645 1.27967 48.9881 1.63533 49.1348 2.046L47.9028 2.596C47.7415 2.18533 47.4995 1.87 47.1768 1.65C46.8541 1.42267 46.4801 1.309 46.0548 1.309C45.8055 1.309 45.5855 1.353 45.3948 1.441C45.2041 1.52167 45.0538 1.639 44.9438 1.793C44.8411 1.93967 44.7898 2.11567 44.7898 2.321C44.7898 2.54833 44.8631 2.75 45.0098 2.926C45.1565 3.09467 45.3801 3.22667 45.6808 3.322L47.1878 3.795C47.8405 4.00767 48.3281 4.301 48.6508 4.675C48.9808 5.049 49.1458 5.511 49.1458 6.061C49.1458 6.53033 49.0248 6.94467 48.7828 7.304C48.5408 7.66333 48.2071 7.94567 47.7818 8.151C47.3565 8.35633 46.8615 8.459 46.2968 8.459Z" fill="#101114"/>
<path d="M33.7656 8.32708L36.5926 0.13208H38.5286L41.3556 8.32708H39.7276L39.1446 6.56708H35.9766L35.3826 8.32708H33.7656ZM36.4056 5.24708H38.7156L37.3516 1.16608H37.7696L36.4056 5.24708Z" fill="#101114"/>
<path d="M26.6875 8.32708V0.13208H32.1325V1.45208H28.1835V3.55308H31.9125V4.87308H28.1835V7.00708H32.1325V8.32708H26.6875Z" fill="#101114"/>
<path d="M19.5 8.32708V0.13208H20.996V7.00708H24.505V8.32708H19.5Z" fill="#101114"/>
<path d="M10.1406 8.32708V0.13208H11.3066L15.8166 6.20408L15.2116 6.32508V0.13208H16.7076V8.32708H15.5306L11.0866 2.21108L11.6366 2.09008V8.32708H10.1406Z" fill="#101114"/>
<path d="M4.19031 8.45908C3.55965 8.45908 2.99865 8.32708 2.50731 8.06308C2.02331 7.79908 1.64198 7.43608 1.36331 6.97408C1.08465 6.51208 0.945312 5.98775 0.945312 5.40108V0.13208H2.44131V5.32408C2.44131 5.66141 2.51465 5.96575 2.66131 6.23708C2.81531 6.50841 3.02431 6.72108 3.28831 6.87508C3.55231 7.02175 3.85298 7.09508 4.19031 7.09508C4.53498 7.09508 4.83565 7.02175 5.09231 6.87508C5.35631 6.72108 5.56165 6.50841 5.70831 6.23708C5.86231 5.96575 5.93931 5.66141 5.93931 5.32408V0.13208H7.43531V5.40108C7.43531 5.98775 7.29598 6.51208 7.01731 6.97408C6.73865 7.43608 6.35365 7.79908 5.86231 8.06308C5.37831 8.32708 4.82098 8.45908 4.19031 8.45908Z" fill="#101114"/>
<path d="M10.294 12C4.74235 12 0.242188 16.5592 0.242188 22.1831V26.547C0.242188 27.3497 0.884396 28 1.67716 28C2.46992 28 3.11684 27.3497 3.11684 26.547V22.1831C3.11684 21.378 3.75669 20.7277 4.55181 20.7277C5.34457 20.7277 5.98678 21.378 5.98678 22.1831V26.547C5.98678 27.3497 6.62899 28 7.42175 28C8.21687 28 8.85908 27.3497 8.85908 26.547V22.1831C8.85908 21.378 9.50128 20.7277 10.294 20.7277C11.0892 20.7277 11.7337 21.378 11.7337 22.1831V26.547C11.7337 27.3497 12.3759 28 13.1687 28C13.9615 28 14.6037 27.3497 14.6037 26.547V22.1831C14.6037 21.378 15.2459 20.7277 16.0433 20.7277C16.8361 20.7277 17.4783 21.378 17.4783 22.1831V26.547C17.4783 27.3497 18.1205 28 18.9156 28C19.7084 28 20.3506 27.3497 20.3506 26.547V22.1831C20.3506 16.5592 15.8481 12 10.294 12Z" fill="#101114"/>
<path d="M78.5781 27.383V17.047H80.9151V19.08L80.7251 18.719C80.9658 18.0983 81.3585 17.6296 81.9031 17.313C82.4605 16.9836 83.1065 16.819 83.8411 16.819C84.6011 16.819 85.2725 16.9836 85.8551 17.313C86.4505 17.6423 86.9128 18.1046 87.2421 18.7C87.5715 19.2826 87.7361 19.9603 87.7361 20.733V27.383H85.2471V21.322C85.2471 20.866 85.1585 20.4733 84.9811 20.144C84.8038 19.8146 84.5568 19.5613 84.2401 19.384C83.9361 19.194 83.5751 19.099 83.1571 19.099C82.7518 19.099 82.3908 19.194 82.0741 19.384C81.7575 19.5613 81.5105 19.8146 81.3331 20.144C81.1558 20.4733 81.0671 20.866 81.0671 21.322V27.383H78.5781Z" fill="#101114"/>
<path d="M71.8512 27.611C70.7872 27.611 69.8563 27.3703 69.0583 26.889C68.2603 26.4076 67.6396 25.7553 67.1962 24.932C66.7529 24.1086 66.5312 23.1966 66.5312 22.196C66.5312 21.1573 66.7529 20.239 67.1962 19.441C67.6522 18.6303 68.2666 17.9906 69.0392 17.522C69.8246 17.0533 70.6986 16.819 71.6613 16.819C72.4719 16.819 73.1812 16.952 73.7892 17.218C74.4099 17.484 74.9356 17.8513 75.3662 18.32C75.7969 18.7886 76.1262 19.327 76.3542 19.935C76.5822 20.5303 76.6962 21.1763 76.6962 21.873C76.6962 22.0503 76.6836 22.234 76.6582 22.424C76.6456 22.614 76.6139 22.7786 76.5632 22.918H68.5832V21.018H75.1572L73.9792 21.911C74.0932 21.3283 74.0616 20.809 73.8843 20.353C73.7196 19.897 73.4409 19.536 73.0482 19.27C72.6682 19.004 72.2059 18.871 71.6613 18.871C71.1419 18.871 70.6796 19.004 70.2743 19.27C69.8689 19.5233 69.5586 19.9033 69.3433 20.41C69.1406 20.904 69.0646 21.5056 69.1152 22.215C69.0646 22.8483 69.1469 23.412 69.3622 23.906C69.5902 24.3873 69.9196 24.761 70.3503 25.027C70.7936 25.293 71.3003 25.426 71.8703 25.426C72.4403 25.426 72.9216 25.3056 73.3143 25.065C73.7196 24.8243 74.0362 24.5013 74.2642 24.096L76.2782 25.084C76.0756 25.578 75.7589 26.015 75.3283 26.395C74.8976 26.775 74.3846 27.0726 73.7892 27.288C73.2066 27.5033 72.5606 27.611 71.8512 27.611Z" fill="#101114"/>
<path d="M56.1641 27.383V13H58.6531V22.424L57.7031 22.139L62.5671 17.047H65.6641L61.8451 21.208L65.7401 27.383H62.8901L59.5081 22.025L60.9901 21.721L57.8741 25.065L58.6531 23.545V27.383H56.1641Z" fill="#101114"/>
<path d="M48.2796 27.611C47.5576 27.611 46.9306 27.4906 46.3986 27.25C45.8666 27.0093 45.4549 26.6673 45.1636 26.224C44.8722 25.768 44.7266 25.2423 44.7266 24.647C44.7266 24.077 44.8532 23.5703 45.1066 23.127C45.3599 22.671 45.7526 22.291 46.2846 21.987C46.8166 21.683 47.4879 21.4676 48.2986 21.341L51.6806 20.79V22.69L48.7736 23.184C48.2796 23.2726 47.9122 23.431 47.6716 23.659C47.4309 23.887 47.3106 24.1846 47.3106 24.552C47.3106 24.9066 47.4436 25.1916 47.7096 25.407C47.9882 25.6096 48.3302 25.711 48.7356 25.711C49.2549 25.711 49.7109 25.6033 50.1036 25.388C50.5089 25.16 50.8192 24.8496 51.0346 24.457C51.2626 24.0643 51.3766 23.6336 51.3766 23.165V20.505C51.3766 20.0616 51.1992 19.6943 50.8446 19.403C50.5026 19.099 50.0466 18.947 49.4766 18.947C48.9446 18.947 48.4696 19.0926 48.0516 19.384C47.6462 19.6626 47.3486 20.0363 47.1586 20.505L45.1256 19.517C45.3282 18.9723 45.6449 18.5036 46.0756 18.111C46.5189 17.7056 47.0382 17.389 47.6336 17.161C48.2289 16.933 48.8749 16.819 49.5716 16.819C50.4202 16.819 51.1676 16.9773 51.8136 17.294C52.4596 17.598 52.9599 18.0286 53.3146 18.586C53.6819 19.1306 53.8656 19.7703 53.8656 20.505V27.383H51.5096V25.616L52.0416 25.578C51.7756 26.0213 51.4589 26.395 51.0916 26.699C50.7242 26.9903 50.3062 27.2183 49.8376 27.383C49.3689 27.535 48.8496 27.611 48.2796 27.611Z" fill="#101114"/>
<path d="M38.0391 27.383V17.047H40.3761V19.346L40.1861 19.004C40.4267 18.2313 40.8004 17.693 41.3071 17.389C41.8264 17.085 42.4471 16.933 43.1691 16.933H43.7771V19.137H42.8841C42.1747 19.137 41.6047 19.3587 41.1741 19.802C40.7434 20.2327 40.5281 20.8407 40.5281 21.626V27.383H38.0391Z" fill="#101114"/>
<path d="M25.3516 27.383V13.228H27.9356V20.6L27.2326 20.353L33.2556 13.228H36.5046L30.8616 19.916L31.0136 18.092L36.6756 27.383H33.6356L29.8356 21.151L27.9356 23.412V27.383H25.3516Z" fill="#101114"/>
</svg>
