<svg width="14" height="15" viewBox="0 0 14 15" fill="none" xmlns="http://www.w3.org/2000/svg">
<path d="M7 2.17188C6.26042 2.17188 5.56771 2.30729 4.92188 2.57812C4.27604 2.85938 3.70833 3.24479 3.21875 3.73438C2.73958 4.21354 2.35938 4.77604 2.07812 5.42188C1.80729 6.06771 1.67188 6.76042 1.67188 7.5C1.67188 8.23958 1.80729 8.93229 2.07812 9.57812C2.35938 10.224 2.73958 10.7917 3.21875 11.2812C3.70833 11.7604 4.27604 12.1406 4.92188 12.4219C5.56771 12.6927 6.26042 12.8281 7 12.8281C7.73958 12.8281 8.43229 12.6927 9.07812 12.4219C9.72396 12.1406 10.2865 11.7604 10.7656 11.2812C11.2552 10.7917 11.6406 10.224 11.9219 9.57812C12.1927 8.93229 12.3281 8.23958 12.3281 7.5C12.3281 6.76042 12.1927 6.06771 11.9219 5.42188C11.6406 4.77604 11.2552 4.21354 10.7656 3.73438C10.2865 3.24479 9.72396 2.85938 9.07812 2.57812C8.43229 2.30729 7.73958 2.17188 7 2.17188ZM0.328125 7.5C0.328125 6.58333 0.505208 5.71875 0.859375 4.90625C1.20312 4.09375 1.67708 3.38542 2.28125 2.78125C2.88542 2.17708 3.59375 1.70312 4.40625 1.35938C5.21875 1.00521 6.08333 0.828125 7 0.828125C7.91667 0.828125 8.78125 1.00521 9.59375 1.35938C10.4062 1.70312 11.1146 2.17708 11.7188 2.78125C12.3229 3.38542 12.7969 4.09375 13.1406 4.90625C13.4948 5.71875 13.6719 6.58333 13.6719 7.5C13.6719 8.41667 13.4948 9.28125 13.1406 10.0938C12.7969 10.9062 12.3229 11.6146 11.7188 12.2188C11.1146 12.8229 10.4062 13.2969 9.59375 13.6406C8.78125 13.9948 7.91667 14.1719 7 14.1719C6.08333 14.1719 5.21875 13.9948 4.40625 13.6406C3.59375 13.2969 2.88542 12.8229 2.28125 12.2188C1.67708 11.6146 1.20312 10.9062 0.859375 10.0938C0.505208 9.28125 0.328125 8.41667 0.328125 7.5ZM7.67188 4.17188V7.21875L9.60938 9.17188L8.67188 10.1094L6.32812 7.78125V4.17188H7.67188Z" fill="black" fill-opacity="0.5"/>
</svg>
