<svg width="23" height="24" viewBox="0 0 23 24" fill="none" xmlns="http://www.w3.org/2000/svg">
<path d="M11.5 23.8C9.91998 23.8 8.42974 23.4948 7.02927 22.8844C5.62881 22.2919 4.40788 21.4749 3.36651 20.4335C2.32514 19.3922 1.5082 18.1712 0.915691 16.7708C0.30523 15.3703 0 13.8801 0 12.3C0 10.72 0.30523 9.22979 0.915691 7.82932C1.5082 6.42885 2.32514 5.20793 3.36651 4.16656C4.40788 3.12519 5.62881 2.30825 7.02927 1.71574C8.42974 1.10528 9.91998 0.800049 11.5 0.800049C13.08 0.800049 14.5703 1.10528 15.9707 1.71574C17.3712 2.30825 18.5921 3.12519 19.6335 4.16656C20.6749 5.20793 21.4918 6.42885 22.0843 7.82932C22.6948 9.22979 23 10.72 23 12.3C23 13.8801 22.6948 15.3703 22.0843 16.7708C21.4918 18.1712 20.6749 19.3922 19.6335 20.4335C18.5921 21.4749 17.3712 22.2919 15.9707 22.8844C14.5703 23.4948 13.08 23.8 11.5 23.8ZM11.4731 6.8867C11.5269 6.8867 11.5808 6.87772 11.6347 6.85977C11.6885 6.84181 11.7424 6.82386 11.7963 6.8059L14.2471 5.86328L11.8501 4.89373C11.7783 4.87577 11.7065 4.86679 11.6347 4.86679C11.5808 4.84884 11.5269 4.83986 11.4731 4.83986C11.4012 4.83986 11.3294 4.84884 11.2576 4.86679C11.2037 4.86679 11.1499 4.87577 11.096 4.89373L8.67213 5.86328L11.1499 6.8059C11.2037 6.82386 11.2576 6.84181 11.3115 6.85977C11.3653 6.87772 11.4192 6.8867 11.4731 6.8867ZM11.9848 11.5729L14.8396 10.4956C14.8575 10.4956 14.8755 10.4866 14.8934 10.4687C14.9114 10.4507 14.9204 10.4238 14.9204 10.3879V6.53658L12.281 7.58693C12.1913 7.62284 12.1105 7.68568 12.0386 7.77546C11.9848 7.84728 11.9578 7.93705 11.9578 8.04478V11.5459C11.9578 11.5639 11.9578 11.5729 11.9578 11.5729C11.9758 11.5729 11.9848 11.5729 11.9848 11.5729ZM10.9344 11.4921C10.9344 11.4921 10.9434 11.4921 10.9614 11.4921V7.96398C10.9614 7.85625 10.9254 7.76648 10.8536 7.69466C10.7998 7.60489 10.7279 7.54205 10.6382 7.50614L7.99883 6.48272V10.334C7.99883 10.352 8.00781 10.3699 8.02576 10.3879C8.04372 10.4058 8.06167 10.4238 8.07963 10.4417L10.9344 11.4921ZM15.5129 13.3235C15.5667 13.3235 15.6206 13.3235 15.6745 13.3235C15.7283 13.3055 15.7822 13.2876 15.8361 13.2696L18.3138 12.327L15.8899 11.3574C15.8361 11.3395 15.7732 11.3215 15.7014 11.3036C15.6475 11.2856 15.5847 11.2766 15.5129 11.2766C15.4411 11.2766 15.3692 11.2856 15.2974 11.3036C15.2436 11.3215 15.1897 11.3395 15.1358 11.3574L12.7119 12.327L15.1897 13.2696C15.2436 13.2876 15.2974 13.3055 15.3513 13.3235C15.4052 13.3235 15.459 13.3235 15.5129 13.3235ZM16.1593 17.9827C16.1772 17.9827 16.1862 17.9737 16.1862 17.9558L18.8794 16.9593C18.9153 16.9593 18.9333 16.9503 18.9333 16.9324C18.9512 16.8965 18.9602 16.8695 18.9602 16.8516V13.0003L16.3478 14.0237C16.24 14.0776 16.1593 14.1494 16.1054 14.2392C16.0515 14.311 16.0246 14.3918 16.0246 14.4815V17.8481C16.0246 17.884 16.0336 17.9199 16.0515 17.9558C16.0874 17.9737 16.1233 17.9827 16.1593 17.9827ZM14.8665 17.9827C14.8845 17.9827 14.9024 17.9827 14.9204 17.9827C14.9383 17.9648 14.9473 17.9468 14.9473 17.9289C14.9653 17.9289 14.9742 17.9199 14.9742 17.9019C14.9922 17.884 15.0012 17.866 15.0012 17.8481V14.4815C15.0012 14.3918 14.9653 14.311 14.8934 14.2392C14.8396 14.1494 14.7678 14.0776 14.678 14.0237L12.0386 13.0003V16.8516C12.0386 16.8695 12.0476 16.8965 12.0656 16.9324C12.0835 16.9503 12.1015 16.9593 12.1194 16.9593L14.8126 17.9558C14.8306 17.9737 14.8396 17.9827 14.8396 17.9827C14.8396 17.9827 14.8486 17.9827 14.8665 17.9827ZM7.48712 13.3235C7.55894 13.3235 7.62178 13.3235 7.67564 13.3235C7.72951 13.3055 7.77439 13.2876 7.8103 13.2696L10.2881 12.327L7.86417 11.3574C7.8103 11.3395 7.74746 11.3215 7.67564 11.3036C7.62178 11.2856 7.55894 11.2766 7.48712 11.2766C7.43325 11.2766 7.37041 11.2856 7.29859 11.3036C7.24473 11.3215 7.18189 11.3395 7.11007 11.3574L4.68618 12.327L7.16393 13.2696C7.2178 13.2876 7.27166 13.3055 7.32553 13.3235C7.37939 13.3235 7.43325 13.3235 7.48712 13.3235ZM8.13349 18.0366C8.15144 18.0366 8.16042 18.0366 8.16042 18.0366C8.16042 18.0366 8.1694 18.0366 8.18735 18.0366L10.8806 17.0401C10.8985 17.0221 10.9165 17.0042 10.9344 16.9862C10.9524 16.9683 10.9614 16.9503 10.9614 16.9324V13.0811L8.32201 14.1045C8.23224 14.1404 8.15144 14.2032 8.07963 14.293C8.02576 14.3648 7.99883 14.4546 7.99883 14.5623V17.9289C7.99883 17.9648 8.00781 17.9917 8.02576 18.0096C8.06167 18.0276 8.09758 18.0366 8.13349 18.0366ZM6.84075 17.9019C6.8587 17.9019 6.87666 17.9019 6.89461 17.9019C6.91257 17.884 6.93052 17.875 6.94848 17.875C6.94848 17.857 6.94848 17.8481 6.94848 17.8481C6.96643 17.8301 6.97541 17.8032 6.97541 17.7673V14.4277C6.97541 14.32 6.94848 14.2302 6.89461 14.1584C6.84075 14.0686 6.75995 14.0057 6.65222 13.9698L4.03981 12.9195V16.7708C4.03981 16.8067 4.03981 16.8336 4.03981 16.8516C4.05777 16.8695 4.0847 16.8875 4.12061 16.9054L6.81382 17.9019C6.83177 17.9019 6.84075 17.9019 6.84075 17.9019Z" fill="url(#paint0_linear_2905_10592)"/>
<path d="M11.5 23.8C9.91998 23.8 8.42974 23.4948 7.02927 22.8844C5.62881 22.2919 4.40788 21.4749 3.36651 20.4335C2.32514 19.3922 1.5082 18.1712 0.915691 16.7708C0.30523 15.3703 0 13.8801 0 12.3C0 10.72 0.30523 9.22979 0.915691 7.82932C1.5082 6.42885 2.32514 5.20793 3.36651 4.16656C4.40788 3.12519 5.62881 2.30825 7.02927 1.71574C8.42974 1.10528 9.91998 0.800049 11.5 0.800049C13.08 0.800049 14.5703 1.10528 15.9707 1.71574C17.3712 2.30825 18.5921 3.12519 19.6335 4.16656C20.6749 5.20793 21.4918 6.42885 22.0843 7.82932C22.6948 9.22979 23 10.72 23 12.3C23 13.8801 22.6948 15.3703 22.0843 16.7708C21.4918 18.1712 20.6749 19.3922 19.6335 20.4335C18.5921 21.4749 17.3712 22.2919 15.9707 22.8844C14.5703 23.4948 13.08 23.8 11.5 23.8ZM11.4731 6.8867C11.5269 6.8867 11.5808 6.87772 11.6347 6.85977C11.6885 6.84181 11.7424 6.82386 11.7963 6.8059L14.2471 5.86328L11.8501 4.89373C11.7783 4.87577 11.7065 4.86679 11.6347 4.86679C11.5808 4.84884 11.5269 4.83986 11.4731 4.83986C11.4012 4.83986 11.3294 4.84884 11.2576 4.86679C11.2037 4.86679 11.1499 4.87577 11.096 4.89373L8.67213 5.86328L11.1499 6.8059C11.2037 6.82386 11.2576 6.84181 11.3115 6.85977C11.3653 6.87772 11.4192 6.8867 11.4731 6.8867ZM11.9848 11.5729L14.8396 10.4956C14.8575 10.4956 14.8755 10.4866 14.8934 10.4687C14.9114 10.4507 14.9204 10.4238 14.9204 10.3879V6.53658L12.281 7.58693C12.1913 7.62284 12.1105 7.68568 12.0386 7.77546C11.9848 7.84728 11.9578 7.93705 11.9578 8.04478V11.5459C11.9578 11.5639 11.9578 11.5729 11.9578 11.5729C11.9758 11.5729 11.9848 11.5729 11.9848 11.5729ZM10.9344 11.4921C10.9344 11.4921 10.9434 11.4921 10.9614 11.4921V7.96398C10.9614 7.85625 10.9254 7.76648 10.8536 7.69466C10.7998 7.60489 10.7279 7.54205 10.6382 7.50614L7.99883 6.48272V10.334C7.99883 10.352 8.00781 10.3699 8.02576 10.3879C8.04372 10.4058 8.06167 10.4238 8.07963 10.4417L10.9344 11.4921ZM15.5129 13.3235C15.5667 13.3235 15.6206 13.3235 15.6745 13.3235C15.7283 13.3055 15.7822 13.2876 15.8361 13.2696L18.3138 12.327L15.8899 11.3574C15.8361 11.3395 15.7732 11.3215 15.7014 11.3036C15.6475 11.2856 15.5847 11.2766 15.5129 11.2766C15.4411 11.2766 15.3692 11.2856 15.2974 11.3036C15.2436 11.3215 15.1897 11.3395 15.1358 11.3574L12.7119 12.327L15.1897 13.2696C15.2436 13.2876 15.2974 13.3055 15.3513 13.3235C15.4052 13.3235 15.459 13.3235 15.5129 13.3235ZM16.1593 17.9827C16.1772 17.9827 16.1862 17.9737 16.1862 17.9558L18.8794 16.9593C18.9153 16.9593 18.9333 16.9503 18.9333 16.9324C18.9512 16.8965 18.9602 16.8695 18.9602 16.8516V13.0003L16.3478 14.0237C16.24 14.0776 16.1593 14.1494 16.1054 14.2392C16.0515 14.311 16.0246 14.3918 16.0246 14.4815V17.8481C16.0246 17.884 16.0336 17.9199 16.0515 17.9558C16.0874 17.9737 16.1233 17.9827 16.1593 17.9827ZM14.8665 17.9827C14.8845 17.9827 14.9024 17.9827 14.9204 17.9827C14.9383 17.9648 14.9473 17.9468 14.9473 17.9289C14.9653 17.9289 14.9742 17.9199 14.9742 17.9019C14.9922 17.884 15.0012 17.866 15.0012 17.8481V14.4815C15.0012 14.3918 14.9653 14.311 14.8934 14.2392C14.8396 14.1494 14.7678 14.0776 14.678 14.0237L12.0386 13.0003V16.8516C12.0386 16.8695 12.0476 16.8965 12.0656 16.9324C12.0835 16.9503 12.1015 16.9593 12.1194 16.9593L14.8126 17.9558C14.8306 17.9737 14.8396 17.9827 14.8396 17.9827C14.8396 17.9827 14.8486 17.9827 14.8665 17.9827ZM7.48712 13.3235C7.55894 13.3235 7.62178 13.3235 7.67564 13.3235C7.72951 13.3055 7.77439 13.2876 7.8103 13.2696L10.2881 12.327L7.86417 11.3574C7.8103 11.3395 7.74746 11.3215 7.67564 11.3036C7.62178 11.2856 7.55894 11.2766 7.48712 11.2766C7.43325 11.2766 7.37041 11.2856 7.29859 11.3036C7.24473 11.3215 7.18189 11.3395 7.11007 11.3574L4.68618 12.327L7.16393 13.2696C7.2178 13.2876 7.27166 13.3055 7.32553 13.3235C7.37939 13.3235 7.43325 13.3235 7.48712 13.3235ZM8.13349 18.0366C8.15144 18.0366 8.16042 18.0366 8.16042 18.0366C8.16042 18.0366 8.1694 18.0366 8.18735 18.0366L10.8806 17.0401C10.8985 17.0221 10.9165 17.0042 10.9344 16.9862C10.9524 16.9683 10.9614 16.9503 10.9614 16.9324V13.0811L8.32201 14.1045C8.23224 14.1404 8.15144 14.2032 8.07963 14.293C8.02576 14.3648 7.99883 14.4546 7.99883 14.5623V17.9289C7.99883 17.9648 8.00781 17.9917 8.02576 18.0096C8.06167 18.0276 8.09758 18.0366 8.13349 18.0366ZM6.84075 17.9019C6.8587 17.9019 6.87666 17.9019 6.89461 17.9019C6.91257 17.884 6.93052 17.875 6.94848 17.875C6.94848 17.857 6.94848 17.8481 6.94848 17.8481C6.96643 17.8301 6.97541 17.8032 6.97541 17.7673V14.4277C6.97541 14.32 6.94848 14.2302 6.89461 14.1584C6.84075 14.0686 6.75995 14.0057 6.65222 13.9698L4.03981 12.9195V16.7708C4.03981 16.8067 4.03981 16.8336 4.03981 16.8516C4.05777 16.8695 4.0847 16.8875 4.12061 16.9054L6.81382 17.9019C6.83177 17.9019 6.84075 17.9019 6.84075 17.9019Z" fill="url(#paint1_radial_2905_10592)" fill-opacity="0.45"/>
<path d="M11.5 23.8C9.91998 23.8 8.42974 23.4948 7.02927 22.8844C5.62881 22.2919 4.40788 21.4749 3.36651 20.4335C2.32514 19.3922 1.5082 18.1712 0.915691 16.7708C0.30523 15.3703 0 13.8801 0 12.3C0 10.72 0.30523 9.22979 0.915691 7.82932C1.5082 6.42885 2.32514 5.20793 3.36651 4.16656C4.40788 3.12519 5.62881 2.30825 7.02927 1.71574C8.42974 1.10528 9.91998 0.800049 11.5 0.800049C13.08 0.800049 14.5703 1.10528 15.9707 1.71574C17.3712 2.30825 18.5921 3.12519 19.6335 4.16656C20.6749 5.20793 21.4918 6.42885 22.0843 7.82932C22.6948 9.22979 23 10.72 23 12.3C23 13.8801 22.6948 15.3703 22.0843 16.7708C21.4918 18.1712 20.6749 19.3922 19.6335 20.4335C18.5921 21.4749 17.3712 22.2919 15.9707 22.8844C14.5703 23.4948 13.08 23.8 11.5 23.8ZM11.4731 6.8867C11.5269 6.8867 11.5808 6.87772 11.6347 6.85977C11.6885 6.84181 11.7424 6.82386 11.7963 6.8059L14.2471 5.86328L11.8501 4.89373C11.7783 4.87577 11.7065 4.86679 11.6347 4.86679C11.5808 4.84884 11.5269 4.83986 11.4731 4.83986C11.4012 4.83986 11.3294 4.84884 11.2576 4.86679C11.2037 4.86679 11.1499 4.87577 11.096 4.89373L8.67213 5.86328L11.1499 6.8059C11.2037 6.82386 11.2576 6.84181 11.3115 6.85977C11.3653 6.87772 11.4192 6.8867 11.4731 6.8867ZM11.9848 11.5729L14.8396 10.4956C14.8575 10.4956 14.8755 10.4866 14.8934 10.4687C14.9114 10.4507 14.9204 10.4238 14.9204 10.3879V6.53658L12.281 7.58693C12.1913 7.62284 12.1105 7.68568 12.0386 7.77546C11.9848 7.84728 11.9578 7.93705 11.9578 8.04478V11.5459C11.9578 11.5639 11.9578 11.5729 11.9578 11.5729C11.9758 11.5729 11.9848 11.5729 11.9848 11.5729ZM10.9344 11.4921C10.9344 11.4921 10.9434 11.4921 10.9614 11.4921V7.96398C10.9614 7.85625 10.9254 7.76648 10.8536 7.69466C10.7998 7.60489 10.7279 7.54205 10.6382 7.50614L7.99883 6.48272V10.334C7.99883 10.352 8.00781 10.3699 8.02576 10.3879C8.04372 10.4058 8.06167 10.4238 8.07963 10.4417L10.9344 11.4921ZM15.5129 13.3235C15.5667 13.3235 15.6206 13.3235 15.6745 13.3235C15.7283 13.3055 15.7822 13.2876 15.8361 13.2696L18.3138 12.327L15.8899 11.3574C15.8361 11.3395 15.7732 11.3215 15.7014 11.3036C15.6475 11.2856 15.5847 11.2766 15.5129 11.2766C15.4411 11.2766 15.3692 11.2856 15.2974 11.3036C15.2436 11.3215 15.1897 11.3395 15.1358 11.3574L12.7119 12.327L15.1897 13.2696C15.2436 13.2876 15.2974 13.3055 15.3513 13.3235C15.4052 13.3235 15.459 13.3235 15.5129 13.3235ZM16.1593 17.9827C16.1772 17.9827 16.1862 17.9737 16.1862 17.9558L18.8794 16.9593C18.9153 16.9593 18.9333 16.9503 18.9333 16.9324C18.9512 16.8965 18.9602 16.8695 18.9602 16.8516V13.0003L16.3478 14.0237C16.24 14.0776 16.1593 14.1494 16.1054 14.2392C16.0515 14.311 16.0246 14.3918 16.0246 14.4815V17.8481C16.0246 17.884 16.0336 17.9199 16.0515 17.9558C16.0874 17.9737 16.1233 17.9827 16.1593 17.9827ZM14.8665 17.9827C14.8845 17.9827 14.9024 17.9827 14.9204 17.9827C14.9383 17.9648 14.9473 17.9468 14.9473 17.9289C14.9653 17.9289 14.9742 17.9199 14.9742 17.9019C14.9922 17.884 15.0012 17.866 15.0012 17.8481V14.4815C15.0012 14.3918 14.9653 14.311 14.8934 14.2392C14.8396 14.1494 14.7678 14.0776 14.678 14.0237L12.0386 13.0003V16.8516C12.0386 16.8695 12.0476 16.8965 12.0656 16.9324C12.0835 16.9503 12.1015 16.9593 12.1194 16.9593L14.8126 17.9558C14.8306 17.9737 14.8396 17.9827 14.8396 17.9827C14.8396 17.9827 14.8486 17.9827 14.8665 17.9827ZM7.48712 13.3235C7.55894 13.3235 7.62178 13.3235 7.67564 13.3235C7.72951 13.3055 7.77439 13.2876 7.8103 13.2696L10.2881 12.327L7.86417 11.3574C7.8103 11.3395 7.74746 11.3215 7.67564 11.3036C7.62178 11.2856 7.55894 11.2766 7.48712 11.2766C7.43325 11.2766 7.37041 11.2856 7.29859 11.3036C7.24473 11.3215 7.18189 11.3395 7.11007 11.3574L4.68618 12.327L7.16393 13.2696C7.2178 13.2876 7.27166 13.3055 7.32553 13.3235C7.37939 13.3235 7.43325 13.3235 7.48712 13.3235ZM8.13349 18.0366C8.15144 18.0366 8.16042 18.0366 8.16042 18.0366C8.16042 18.0366 8.1694 18.0366 8.18735 18.0366L10.8806 17.0401C10.8985 17.0221 10.9165 17.0042 10.9344 16.9862C10.9524 16.9683 10.9614 16.9503 10.9614 16.9324V13.0811L8.32201 14.1045C8.23224 14.1404 8.15144 14.2032 8.07963 14.293C8.02576 14.3648 7.99883 14.4546 7.99883 14.5623V17.9289C7.99883 17.9648 8.00781 17.9917 8.02576 18.0096C8.06167 18.0276 8.09758 18.0366 8.13349 18.0366ZM6.84075 17.9019C6.8587 17.9019 6.87666 17.9019 6.89461 17.9019C6.91257 17.884 6.93052 17.875 6.94848 17.875C6.94848 17.857 6.94848 17.8481 6.94848 17.8481C6.96643 17.8301 6.97541 17.8032 6.97541 17.7673V14.4277C6.97541 14.32 6.94848 14.2302 6.89461 14.1584C6.84075 14.0686 6.75995 14.0057 6.65222 13.9698L4.03981 12.9195V16.7708C4.03981 16.8067 4.03981 16.8336 4.03981 16.8516C4.05777 16.8695 4.0847 16.8875 4.12061 16.9054L6.81382 17.9019C6.83177 17.9019 6.84075 17.9019 6.84075 17.9019Z" fill="url(#paint2_radial_2905_10592)"/>
<defs>
<linearGradient id="paint0_linear_2905_10592" x1="0" y1="12.3" x2="7.26143" y2="12.3" gradientUnits="userSpaceOnUse">
<stop stop-color="#B99FFF"/>
<stop offset="1" stop-color="#674DBC"/>
</linearGradient>
<radialGradient id="paint1_radial_2905_10592" cx="0" cy="0" r="1" gradientUnits="userSpaceOnUse" gradientTransform="translate(11.5 0.727398) rotate(90) scale(23.1453)">
<stop stop-color="#2E2E2E"/>
<stop offset="1" stop-color="#080808"/>
</radialGradient>
<radialGradient id="paint2_radial_2905_10592" cx="0" cy="0" r="1" gradientUnits="userSpaceOnUse" gradientTransform="translate(22.4758 -1.48014) rotate(129.211) scale(40.2541 126.528)">
<stop stop-color="#8049F2"/>
<stop offset="1" stop-color="#6D4EAE" stop-opacity="0"/>
</radialGradient>
</defs>
</svg>
