<svg width="24" height="24" viewBox="0 0 24 24" fill="none" xmlns="http://www.w3.org/2000/svg">
<g id="ExplorerIcon ">
<path d="M12 23.8C10.42 23.8 8.92974 23.4948 7.52927 22.8844C6.12881 22.2919 4.90788 21.4749 3.86651 20.4335C2.82514 19.3922 2.0082 18.1712 1.41569 16.7708C0.80523 15.3703 0.5 13.8801 0.5 12.3C0.5 10.72 0.80523 9.22979 1.41569 7.82932C2.0082 6.42885 2.82514 5.20793 3.86651 4.16656C4.90788 3.12519 6.12881 2.30825 7.52927 1.71574C8.92974 1.10528 10.42 0.800049 12 0.800049C13.58 0.800049 15.0703 1.10528 16.4707 1.71574C17.8712 2.30825 19.0921 3.12519 20.1335 4.16656C21.1749 5.20793 21.9918 6.42885 22.5843 7.82932C23.1948 9.22979 23.5 10.72 23.5 12.3C23.5 13.8801 23.1948 15.3703 22.5843 16.7708C21.9918 18.1712 21.1749 19.3922 20.1335 20.4335C19.0921 21.4749 17.8712 22.2919 16.4707 22.8844C15.0703 23.4948 13.58 23.8 12 23.8ZM11.9731 6.8867C12.0269 6.8867 12.0808 6.87772 12.1347 6.85977C12.1885 6.84181 12.2424 6.82386 12.2963 6.8059L14.7471 5.86328L12.3501 4.89373C12.2783 4.87577 12.2065 4.86679 12.1347 4.86679C12.0808 4.84884 12.0269 4.83986 11.9731 4.83986C11.9012 4.83986 11.8294 4.84884 11.7576 4.86679C11.7037 4.86679 11.6499 4.87577 11.596 4.89373L9.17213 5.86328L11.6499 6.8059C11.7037 6.82386 11.7576 6.84181 11.8115 6.85977C11.8653 6.87772 11.9192 6.8867 11.9731 6.8867ZM12.4848 11.5729L15.3396 10.4956C15.3575 10.4956 15.3755 10.4866 15.3934 10.4687C15.4114 10.4507 15.4204 10.4238 15.4204 10.3879V6.53658L12.781 7.58693C12.6913 7.62284 12.6105 7.68568 12.5386 7.77546C12.4848 7.84728 12.4578 7.93705 12.4578 8.04478V11.5459C12.4578 11.5639 12.4578 11.5729 12.4578 11.5729C12.4758 11.5729 12.4848 11.5729 12.4848 11.5729ZM11.4344 11.4921C11.4344 11.4921 11.4434 11.4921 11.4614 11.4921V7.96398C11.4614 7.85625 11.4254 7.76648 11.3536 7.69466C11.2998 7.60489 11.2279 7.54205 11.1382 7.50614L8.49883 6.48272V10.334C8.49883 10.352 8.50781 10.3699 8.52576 10.3879C8.54372 10.4058 8.56167 10.4238 8.57963 10.4417L11.4344 11.4921ZM16.0129 13.3235C16.0667 13.3235 16.1206 13.3235 16.1745 13.3235C16.2283 13.3055 16.2822 13.2876 16.3361 13.2696L18.8138 12.327L16.3899 11.3574C16.3361 11.3395 16.2732 11.3215 16.2014 11.3036C16.1475 11.2856 16.0847 11.2766 16.0129 11.2766C15.9411 11.2766 15.8692 11.2856 15.7974 11.3036C15.7436 11.3215 15.6897 11.3395 15.6358 11.3574L13.2119 12.327L15.6897 13.2696C15.7436 13.2876 15.7974 13.3055 15.8513 13.3235C15.9052 13.3235 15.959 13.3235 16.0129 13.3235ZM16.6593 17.9827C16.6772 17.9827 16.6862 17.9737 16.6862 17.9558L19.3794 16.9593C19.4153 16.9593 19.4333 16.9503 19.4333 16.9324C19.4512 16.8965 19.4602 16.8695 19.4602 16.8516V13.0003L16.8478 14.0237C16.74 14.0776 16.6593 14.1494 16.6054 14.2392C16.5515 14.311 16.5246 14.3918 16.5246 14.4815V17.8481C16.5246 17.884 16.5336 17.9199 16.5515 17.9558C16.5874 17.9737 16.6233 17.9827 16.6593 17.9827ZM15.3665 17.9827C15.3845 17.9827 15.4024 17.9827 15.4204 17.9827C15.4383 17.9648 15.4473 17.9468 15.4473 17.9289C15.4653 17.9289 15.4742 17.9199 15.4742 17.9019C15.4922 17.884 15.5012 17.866 15.5012 17.8481V14.4815C15.5012 14.3918 15.4653 14.311 15.3934 14.2392C15.3396 14.1494 15.2678 14.0776 15.178 14.0237L12.5386 13.0003V16.8516C12.5386 16.8695 12.5476 16.8965 12.5656 16.9324C12.5835 16.9503 12.6015 16.9593 12.6194 16.9593L15.3126 17.9558C15.3306 17.9737 15.3396 17.9827 15.3396 17.9827C15.3396 17.9827 15.3486 17.9827 15.3665 17.9827ZM7.98712 13.3235C8.05894 13.3235 8.12178 13.3235 8.17564 13.3235C8.22951 13.3055 8.27439 13.2876 8.3103 13.2696L10.7881 12.327L8.36417 11.3574C8.3103 11.3395 8.24746 11.3215 8.17564 11.3036C8.12178 11.2856 8.05894 11.2766 7.98712 11.2766C7.93325 11.2766 7.87041 11.2856 7.79859 11.3036C7.74473 11.3215 7.68189 11.3395 7.61007 11.3574L5.18618 12.327L7.66393 13.2696C7.7178 13.2876 7.77166 13.3055 7.82553 13.3235C7.87939 13.3235 7.93325 13.3235 7.98712 13.3235ZM8.63349 18.0366C8.65144 18.0366 8.66042 18.0366 8.66042 18.0366C8.66042 18.0366 8.6694 18.0366 8.68735 18.0366L11.3806 17.0401C11.3985 17.0221 11.4165 17.0042 11.4344 16.9862C11.4524 16.9683 11.4614 16.9503 11.4614 16.9324V13.0811L8.82201 14.1045C8.73224 14.1404 8.65144 14.2032 8.57963 14.293C8.52576 14.3648 8.49883 14.4546 8.49883 14.5623V17.9289C8.49883 17.9648 8.50781 17.9917 8.52576 18.0096C8.56167 18.0276 8.59758 18.0366 8.63349 18.0366ZM7.34075 17.9019C7.3587 17.9019 7.37666 17.9019 7.39461 17.9019C7.41257 17.884 7.43052 17.875 7.44848 17.875C7.44848 17.857 7.44848 17.8481 7.44848 17.8481C7.46643 17.8301 7.47541 17.8032 7.47541 17.7673V14.4277C7.47541 14.32 7.44848 14.2302 7.39461 14.1584C7.34075 14.0686 7.25995 14.0057 7.15222 13.9698L4.53981 12.9195V16.7708C4.53981 16.8067 4.53981 16.8336 4.53981 16.8516C4.55777 16.8695 4.5847 16.8875 4.62061 16.9054L7.31382 17.9019C7.33177 17.9019 7.34075 17.9019 7.34075 17.9019Z" fill="url(#paint0_radial_4251_12234)"/>
<path d="M12 23.8C10.42 23.8 8.92974 23.4948 7.52927 22.8844C6.12881 22.2919 4.90788 21.4749 3.86651 20.4335C2.82514 19.3922 2.0082 18.1712 1.41569 16.7708C0.80523 15.3703 0.5 13.8801 0.5 12.3C0.5 10.72 0.80523 9.22979 1.41569 7.82932C2.0082 6.42885 2.82514 5.20793 3.86651 4.16656C4.90788 3.12519 6.12881 2.30825 7.52927 1.71574C8.92974 1.10528 10.42 0.800049 12 0.800049C13.58 0.800049 15.0703 1.10528 16.4707 1.71574C17.8712 2.30825 19.0921 3.12519 20.1335 4.16656C21.1749 5.20793 21.9918 6.42885 22.5843 7.82932C23.1948 9.22979 23.5 10.72 23.5 12.3C23.5 13.8801 23.1948 15.3703 22.5843 16.7708C21.9918 18.1712 21.1749 19.3922 20.1335 20.4335C19.0921 21.4749 17.8712 22.2919 16.4707 22.8844C15.0703 23.4948 13.58 23.8 12 23.8ZM11.9731 6.8867C12.0269 6.8867 12.0808 6.87772 12.1347 6.85977C12.1885 6.84181 12.2424 6.82386 12.2963 6.8059L14.7471 5.86328L12.3501 4.89373C12.2783 4.87577 12.2065 4.86679 12.1347 4.86679C12.0808 4.84884 12.0269 4.83986 11.9731 4.83986C11.9012 4.83986 11.8294 4.84884 11.7576 4.86679C11.7037 4.86679 11.6499 4.87577 11.596 4.89373L9.17213 5.86328L11.6499 6.8059C11.7037 6.82386 11.7576 6.84181 11.8115 6.85977C11.8653 6.87772 11.9192 6.8867 11.9731 6.8867ZM12.4848 11.5729L15.3396 10.4956C15.3575 10.4956 15.3755 10.4866 15.3934 10.4687C15.4114 10.4507 15.4204 10.4238 15.4204 10.3879V6.53658L12.781 7.58693C12.6913 7.62284 12.6105 7.68568 12.5386 7.77546C12.4848 7.84728 12.4578 7.93705 12.4578 8.04478V11.5459C12.4578 11.5639 12.4578 11.5729 12.4578 11.5729C12.4758 11.5729 12.4848 11.5729 12.4848 11.5729ZM11.4344 11.4921C11.4344 11.4921 11.4434 11.4921 11.4614 11.4921V7.96398C11.4614 7.85625 11.4254 7.76648 11.3536 7.69466C11.2998 7.60489 11.2279 7.54205 11.1382 7.50614L8.49883 6.48272V10.334C8.49883 10.352 8.50781 10.3699 8.52576 10.3879C8.54372 10.4058 8.56167 10.4238 8.57963 10.4417L11.4344 11.4921ZM16.0129 13.3235C16.0667 13.3235 16.1206 13.3235 16.1745 13.3235C16.2283 13.3055 16.2822 13.2876 16.3361 13.2696L18.8138 12.327L16.3899 11.3574C16.3361 11.3395 16.2732 11.3215 16.2014 11.3036C16.1475 11.2856 16.0847 11.2766 16.0129 11.2766C15.9411 11.2766 15.8692 11.2856 15.7974 11.3036C15.7436 11.3215 15.6897 11.3395 15.6358 11.3574L13.2119 12.327L15.6897 13.2696C15.7436 13.2876 15.7974 13.3055 15.8513 13.3235C15.9052 13.3235 15.959 13.3235 16.0129 13.3235ZM16.6593 17.9827C16.6772 17.9827 16.6862 17.9737 16.6862 17.9558L19.3794 16.9593C19.4153 16.9593 19.4333 16.9503 19.4333 16.9324C19.4512 16.8965 19.4602 16.8695 19.4602 16.8516V13.0003L16.8478 14.0237C16.74 14.0776 16.6593 14.1494 16.6054 14.2392C16.5515 14.311 16.5246 14.3918 16.5246 14.4815V17.8481C16.5246 17.884 16.5336 17.9199 16.5515 17.9558C16.5874 17.9737 16.6233 17.9827 16.6593 17.9827ZM15.3665 17.9827C15.3845 17.9827 15.4024 17.9827 15.4204 17.9827C15.4383 17.9648 15.4473 17.9468 15.4473 17.9289C15.4653 17.9289 15.4742 17.9199 15.4742 17.9019C15.4922 17.884 15.5012 17.866 15.5012 17.8481V14.4815C15.5012 14.3918 15.4653 14.311 15.3934 14.2392C15.3396 14.1494 15.2678 14.0776 15.178 14.0237L12.5386 13.0003V16.8516C12.5386 16.8695 12.5476 16.8965 12.5656 16.9324C12.5835 16.9503 12.6015 16.9593 12.6194 16.9593L15.3126 17.9558C15.3306 17.9737 15.3396 17.9827 15.3396 17.9827C15.3396 17.9827 15.3486 17.9827 15.3665 17.9827ZM7.98712 13.3235C8.05894 13.3235 8.12178 13.3235 8.17564 13.3235C8.22951 13.3055 8.27439 13.2876 8.3103 13.2696L10.7881 12.327L8.36417 11.3574C8.3103 11.3395 8.24746 11.3215 8.17564 11.3036C8.12178 11.2856 8.05894 11.2766 7.98712 11.2766C7.93325 11.2766 7.87041 11.2856 7.79859 11.3036C7.74473 11.3215 7.68189 11.3395 7.61007 11.3574L5.18618 12.327L7.66393 13.2696C7.7178 13.2876 7.77166 13.3055 7.82553 13.3235C7.87939 13.3235 7.93325 13.3235 7.98712 13.3235ZM8.63349 18.0366C8.65144 18.0366 8.66042 18.0366 8.66042 18.0366C8.66042 18.0366 8.6694 18.0366 8.68735 18.0366L11.3806 17.0401C11.3985 17.0221 11.4165 17.0042 11.4344 16.9862C11.4524 16.9683 11.4614 16.9503 11.4614 16.9324V13.0811L8.82201 14.1045C8.73224 14.1404 8.65144 14.2032 8.57963 14.293C8.52576 14.3648 8.49883 14.4546 8.49883 14.5623V17.9289C8.49883 17.9648 8.50781 17.9917 8.52576 18.0096C8.56167 18.0276 8.59758 18.0366 8.63349 18.0366ZM7.34075 17.9019C7.3587 17.9019 7.37666 17.9019 7.39461 17.9019C7.41257 17.884 7.43052 17.875 7.44848 17.875C7.44848 17.857 7.44848 17.8481 7.44848 17.8481C7.46643 17.8301 7.47541 17.8032 7.47541 17.7673V14.4277C7.47541 14.32 7.44848 14.2302 7.39461 14.1584C7.34075 14.0686 7.25995 14.0057 7.15222 13.9698L4.53981 12.9195V16.7708C4.53981 16.8067 4.53981 16.8336 4.53981 16.8516C4.55777 16.8695 4.5847 16.8875 4.62061 16.9054L7.31382 17.9019C7.33177 17.9019 7.34075 17.9019 7.34075 17.9019Z" fill="white"/>
<path d="M12 23.8C10.42 23.8 8.92974 23.4948 7.52927 22.8844C6.12881 22.2919 4.90788 21.4749 3.86651 20.4335C2.82514 19.3922 2.0082 18.1712 1.41569 16.7708C0.80523 15.3703 0.5 13.8801 0.5 12.3C0.5 10.72 0.80523 9.22979 1.41569 7.82932C2.0082 6.42885 2.82514 5.20793 3.86651 4.16656C4.90788 3.12519 6.12881 2.30825 7.52927 1.71574C8.92974 1.10528 10.42 0.800049 12 0.800049C13.58 0.800049 15.0703 1.10528 16.4707 1.71574C17.8712 2.30825 19.0921 3.12519 20.1335 4.16656C21.1749 5.20793 21.9918 6.42885 22.5843 7.82932C23.1948 9.22979 23.5 10.72 23.5 12.3C23.5 13.8801 23.1948 15.3703 22.5843 16.7708C21.9918 18.1712 21.1749 19.3922 20.1335 20.4335C19.0921 21.4749 17.8712 22.2919 16.4707 22.8844C15.0703 23.4948 13.58 23.8 12 23.8ZM11.9731 6.8867C12.0269 6.8867 12.0808 6.87772 12.1347 6.85977C12.1885 6.84181 12.2424 6.82386 12.2963 6.8059L14.7471 5.86328L12.3501 4.89373C12.2783 4.87577 12.2065 4.86679 12.1347 4.86679C12.0808 4.84884 12.0269 4.83986 11.9731 4.83986C11.9012 4.83986 11.8294 4.84884 11.7576 4.86679C11.7037 4.86679 11.6499 4.87577 11.596 4.89373L9.17213 5.86328L11.6499 6.8059C11.7037 6.82386 11.7576 6.84181 11.8115 6.85977C11.8653 6.87772 11.9192 6.8867 11.9731 6.8867ZM12.4848 11.5729L15.3396 10.4956C15.3575 10.4956 15.3755 10.4866 15.3934 10.4687C15.4114 10.4507 15.4204 10.4238 15.4204 10.3879V6.53658L12.781 7.58693C12.6913 7.62284 12.6105 7.68568 12.5386 7.77546C12.4848 7.84728 12.4578 7.93705 12.4578 8.04478V11.5459C12.4578 11.5639 12.4578 11.5729 12.4578 11.5729C12.4758 11.5729 12.4848 11.5729 12.4848 11.5729ZM11.4344 11.4921C11.4344 11.4921 11.4434 11.4921 11.4614 11.4921V7.96398C11.4614 7.85625 11.4254 7.76648 11.3536 7.69466C11.2998 7.60489 11.2279 7.54205 11.1382 7.50614L8.49883 6.48272V10.334C8.49883 10.352 8.50781 10.3699 8.52576 10.3879C8.54372 10.4058 8.56167 10.4238 8.57963 10.4417L11.4344 11.4921ZM16.0129 13.3235C16.0667 13.3235 16.1206 13.3235 16.1745 13.3235C16.2283 13.3055 16.2822 13.2876 16.3361 13.2696L18.8138 12.327L16.3899 11.3574C16.3361 11.3395 16.2732 11.3215 16.2014 11.3036C16.1475 11.2856 16.0847 11.2766 16.0129 11.2766C15.9411 11.2766 15.8692 11.2856 15.7974 11.3036C15.7436 11.3215 15.6897 11.3395 15.6358 11.3574L13.2119 12.327L15.6897 13.2696C15.7436 13.2876 15.7974 13.3055 15.8513 13.3235C15.9052 13.3235 15.959 13.3235 16.0129 13.3235ZM16.6593 17.9827C16.6772 17.9827 16.6862 17.9737 16.6862 17.9558L19.3794 16.9593C19.4153 16.9593 19.4333 16.9503 19.4333 16.9324C19.4512 16.8965 19.4602 16.8695 19.4602 16.8516V13.0003L16.8478 14.0237C16.74 14.0776 16.6593 14.1494 16.6054 14.2392C16.5515 14.311 16.5246 14.3918 16.5246 14.4815V17.8481C16.5246 17.884 16.5336 17.9199 16.5515 17.9558C16.5874 17.9737 16.6233 17.9827 16.6593 17.9827ZM15.3665 17.9827C15.3845 17.9827 15.4024 17.9827 15.4204 17.9827C15.4383 17.9648 15.4473 17.9468 15.4473 17.9289C15.4653 17.9289 15.4742 17.9199 15.4742 17.9019C15.4922 17.884 15.5012 17.866 15.5012 17.8481V14.4815C15.5012 14.3918 15.4653 14.311 15.3934 14.2392C15.3396 14.1494 15.2678 14.0776 15.178 14.0237L12.5386 13.0003V16.8516C12.5386 16.8695 12.5476 16.8965 12.5656 16.9324C12.5835 16.9503 12.6015 16.9593 12.6194 16.9593L15.3126 17.9558C15.3306 17.9737 15.3396 17.9827 15.3396 17.9827C15.3396 17.9827 15.3486 17.9827 15.3665 17.9827ZM7.98712 13.3235C8.05894 13.3235 8.12178 13.3235 8.17564 13.3235C8.22951 13.3055 8.27439 13.2876 8.3103 13.2696L10.7881 12.327L8.36417 11.3574C8.3103 11.3395 8.24746 11.3215 8.17564 11.3036C8.12178 11.2856 8.05894 11.2766 7.98712 11.2766C7.93325 11.2766 7.87041 11.2856 7.79859 11.3036C7.74473 11.3215 7.68189 11.3395 7.61007 11.3574L5.18618 12.327L7.66393 13.2696C7.7178 13.2876 7.77166 13.3055 7.82553 13.3235C7.87939 13.3235 7.93325 13.3235 7.98712 13.3235ZM8.63349 18.0366C8.65144 18.0366 8.66042 18.0366 8.66042 18.0366C8.66042 18.0366 8.6694 18.0366 8.68735 18.0366L11.3806 17.0401C11.3985 17.0221 11.4165 17.0042 11.4344 16.9862C11.4524 16.9683 11.4614 16.9503 11.4614 16.9324V13.0811L8.82201 14.1045C8.73224 14.1404 8.65144 14.2032 8.57963 14.293C8.52576 14.3648 8.49883 14.4546 8.49883 14.5623V17.9289C8.49883 17.9648 8.50781 17.9917 8.52576 18.0096C8.56167 18.0276 8.59758 18.0366 8.63349 18.0366ZM7.34075 17.9019C7.3587 17.9019 7.37666 17.9019 7.39461 17.9019C7.41257 17.884 7.43052 17.875 7.44848 17.875C7.44848 17.857 7.44848 17.8481 7.44848 17.8481C7.46643 17.8301 7.47541 17.8032 7.47541 17.7673V14.4277C7.47541 14.32 7.44848 14.2302 7.39461 14.1584C7.34075 14.0686 7.25995 14.0057 7.15222 13.9698L4.53981 12.9195V16.7708C4.53981 16.8067 4.53981 16.8336 4.53981 16.8516C4.55777 16.8695 4.5847 16.8875 4.62061 16.9054L7.31382 17.9019C7.33177 17.9019 7.34075 17.9019 7.34075 17.9019Z" fill="url(#paint1_radial_4251_12234)"/>
</g>
<defs>
<radialGradient id="paint0_radial_4251_12234" cx="0" cy="0" r="1" gradientUnits="userSpaceOnUse" gradientTransform="translate(12 0.727398) rotate(90) scale(23.1453)">
<stop stop-color="#2E2E2E"/>
<stop offset="1" stop-color="#080808"/>
</radialGradient>
<radialGradient id="paint1_radial_4251_12234" cx="0" cy="0" r="1" gradientUnits="userSpaceOnUse" gradientTransform="translate(22.9758 -1.48013) rotate(112.241) scale(44.1509 63.1238)">
<stop offset="0.155205" stop-color="#8049F2"/>
<stop offset="1" stop-color="#6D4EAE" stop-opacity="0"/>
</radialGradient>
</defs>
</svg>
