<svg width="40" height="40" viewBox="0 0 40 40" fill="none" xmlns="http://www.w3.org/2000/svg">
<g clip-path="url(#clip0_2753_7941)">
<path d="M20.0008 39.1998C30.6029 39.1998 39.2008 30.6023 39.2008 19.9998C39.2008 9.3973 30.6029 0.799805 20.0008 0.799805C9.39863 0.807825 0.800781 9.3973 0.800781 19.9998C0.800781 30.6023 9.39863 39.1998 20.0008 39.1998Z" fill="url(#paint0_linear_2753_7941)"/>
<path fill-rule="evenodd" clip-rule="evenodd" d="M40 20C40 8.9543 31.0457 -4.82823e-07 20 0C8.9543 4.82823e-07 -4.82823e-07 8.9543 0 20C4.82823e-07 31.0457 8.9543 40 20 40C31.0457 40 40 31.0457 40 20ZM22.8545 34.9683C22.8545 36.3251 21.7409 37.4279 20.1603 37.4596C20.1165 37.4601 20.0727 37.4602 20.0288 37.4604H19.9712C10.3414 37.4448 2.53968 29.6335 2.53968 20C2.53968 10.357 10.3569 2.53971 20 2.53971C20.0519 2.53971 20.104 2.53994 20.1558 2.54039C21.9395 2.57216 22.8545 3.67497 22.8545 5.03169C22.8545 6.41249 21.6339 7.42858 20.3408 7.42858C19.0476 7.42858 18.9841 7.42858 17.7463 7.52777C16.5084 7.62697 15.2284 8.64304 15.2284 10.0198C15.2284 11.4047 16.3535 12.5199 17.7463 12.5199H28.7244C30.1132 12.5199 31.2381 13.6352 31.2381 15.0119C31.2381 16.3887 30.1132 17.5039 28.7244 17.5039H11.8152C10.4224 17.5039 9.29738 18.6233 9.29738 20.0041C9.29738 21.3808 10.4224 22.4961 11.8152 22.4961H20.3408C21.7296 22.4961 22.8545 23.6113 22.8545 24.9921C22.8545 26.3689 21.7296 27.4842 20.3408 27.4842H17.7463C16.3535 27.4842 15.2284 28.5994 15.2284 29.9761C15.2284 31.3569 16.3814 32.3649 17.7463 32.4682C17.8538 32.4764 17.9523 32.4838 18.0429 32.4908C18.5232 32.5273 18.7856 32.5473 19.0484 32.5583C19.3649 32.5715 19.682 32.5715 20.3809 32.5715C21.7697 32.5715 22.8545 33.5916 22.8545 34.9683Z" fill="#101114"/>
</g>
<defs>
<linearGradient id="paint0_linear_2753_7941" x1="36" y1="0.999753" x2="16.4934" y2="39.464" gradientUnits="userSpaceOnUse">
<stop stop-color="#B6D0F7"/>
<stop offset="0.229167" stop-color="#EEF4E1"/>
<stop offset="0.432292" stop-color="#D599FF"/>
<stop offset="0.581415" stop-color="#BFD1F9"/>
<stop offset="0.701803" stop-color="#FAFCFE"/>
<stop offset="0.802083" stop-color="#BAE4E2"/>
<stop offset="1" stop-color="#8049F2"/>
</linearGradient>
<clipPath id="clip0_2753_7941">
<rect width="40" height="40" rx="20" fill="white"/>
</clipPath>
</defs>
</svg>
