<svg width="26" height="26" viewBox="0 0 26 26" fill="none" xmlns="http://www.w3.org/2000/svg">
<g clip-path="url(#clip0_26_3863)">
<path d="M13.0005 24.5205C19.3618 24.5205 24.5205 19.362 24.5205 13.0005C24.5205 6.63897 19.3618 1.48047 13.0005 1.48047C6.63918 1.48528 1.48047 6.63897 1.48047 13.0005C1.48047 19.362 6.63918 24.5205 13.0005 24.5205Z" fill="#F0EFFF"/>
<path fill-rule="evenodd" clip-rule="evenodd" d="M25 13C25 6.37258 19.6274 1 13 1C6.37258 1 1 6.37258 1 13C1 19.6274 6.37258 25 13 25C19.6274 25 25 19.6274 25 13ZM14.7127 21.981C14.7127 22.7951 14.0446 23.4568 13.0962 23.4758C13.0699 23.476 13.0436 23.4761 13.0173 23.4762H12.9827C7.20482 23.4669 2.52381 18.7801 2.52381 13C2.52381 7.21418 7.21416 2.52383 13 2.52383C13.0312 2.52383 13.0624 2.52397 13.0935 2.52424C14.1637 2.5433 14.7127 3.20498 14.7127 4.01902C14.7127 4.8475 13.9803 5.45715 13.2045 5.45715C12.4285 5.45715 12.3905 5.45715 11.6478 5.51666C10.905 5.57618 10.137 6.18582 10.137 7.01186C10.137 7.8428 10.8121 8.51196 11.6478 8.51196H18.2346C19.0679 8.51196 19.7429 9.18112 19.7429 10.0072C19.7429 10.8332 19.0679 11.5023 18.2346 11.5023H8.08915C7.25343 11.5023 6.57843 12.174 6.57843 13.0024C6.57843 13.8285 7.25343 14.4977 8.08915 14.4977H13.2045C14.0378 14.4977 14.7127 15.1668 14.7127 15.9953C14.7127 16.8213 14.0378 17.4905 13.2045 17.4905H11.6478C10.8121 17.4905 10.137 18.1597 10.137 18.9857C10.137 19.8142 10.8288 20.419 11.6478 20.4809C11.7123 20.4858 11.7714 20.4903 11.8257 20.4945C12.1139 20.5164 12.2714 20.5284 12.4291 20.535C12.619 20.5429 12.8092 20.5429 13.2286 20.5429C14.0618 20.5429 14.7127 21.1549 14.7127 21.981Z" fill="#7132F5"/>
</g>
<rect x="0.5" y="0.5" width="25" height="25" rx="12.5" stroke="#232241"/>
<defs>
<clipPath id="clip0_26_3863">
<rect x="1" y="1" width="24" height="24" rx="12" fill="white"/>
</clipPath>
</defs>
</svg>
