<svg width="24" height="20" viewBox="0 0 24 20" fill="none" xmlns="http://www.w3.org/2000/svg">
<path d="M11.997 0.90387C5.37099 0.90387 0 6.34529 0 13.0575V18.2658C0 19.2239 0.766482 20 1.71265 20C2.65882 20 3.43092 19.2239 3.43092 18.2658V13.0575C3.43092 12.0966 4.19459 11.3205 5.14357 11.3205C6.08974 11.3205 6.85622 12.0966 6.85622 13.0575V18.2658C6.85622 19.2239 7.6227 20 8.56887 20C9.51785 20 10.2843 19.2239 10.2843 18.2658V13.0575C10.2843 12.0966 11.0508 11.3205 11.997 11.3205C12.946 11.3205 13.7152 12.0966 13.7152 13.0575V18.2658C13.7152 19.2239 14.4817 20 15.4279 20C16.3741 20 17.1406 19.2239 17.1406 18.2658V13.0575C17.1406 12.0966 17.907 11.3205 18.8588 11.3205C19.805 11.3205 20.5715 12.0966 20.5715 13.0575V18.2658C20.5715 19.2239 21.3379 20 22.2869 20C23.2331 20 23.9996 19.2239 23.9996 18.2658V13.0575C23.9996 6.34529 18.6258 0.90387 11.997 0.90387Z" fill="white"/>
</svg>
