<svg width="455" height="70" viewBox="0 0 455 70" fill="none" xmlns="http://www.w3.org/2000/svg">
<path d="M398.041 68.074V1.92597H409.344V10.4032C413.069 3.98106 420.904 -0.000671387 429.767 -0.000671387C444.281 -0.000671387 454.813 7.7059 454.813 27.6145V68.074H443.253V29.2843C443.253 16.9538 437.217 10.917 427.198 10.917C415.895 10.917 409.601 18.6235 409.601 29.6696V68.074H398.041Z" fill="#7132F5"/>
<path d="M358.223 70.0007C337.8 70.0007 324.828 56.2573 324.828 34.6789C324.828 13.9996 338.057 -0.000671387 357.195 -0.000671387C376.205 -0.000671387 389.563 12.8436 389.563 31.2109C389.563 36.4771 389.563 37.6331 389.306 38.7891H336.901C337.672 51.7618 345.764 59.7253 358.351 59.7253C367.214 59.7253 373.379 55.872 376.462 48.8076H388.407C384.939 62.0372 373.764 70.0007 358.223 70.0007ZM336.901 29.2843H377.361C376.847 17.4676 369.14 10.1463 357.195 10.1463C345.764 10.1463 338.186 17.2107 336.901 29.2843Z" fill="#7132F5"/>
<path d="M222.997 70.0007C209.639 70.0007 199.878 62.8079 199.878 50.3489C199.878 37.89 208.74 32.2385 219.144 30.3118L235.328 27.2292C240.851 26.2017 244.062 24.7888 244.062 19.7795C244.062 13.9996 239.181 10.1463 229.42 10.1463C221.456 10.1463 214.52 13.3574 213.621 20.6786H201.676C202.447 7.7059 214.263 -0.000671387 229.548 -0.000671387C248.044 -0.000671387 255.622 9.24721 255.622 20.1649V54.0738C255.622 57.1564 257.035 58.6977 259.604 58.6977C261.787 58.6977 263.072 58.1839 264.228 57.4133V66.7896C262.429 68.3309 259.347 69.3585 255.622 69.3585C250.227 69.3585 245.603 65.8905 244.447 60.239C241.365 64.6061 234.943 70.0007 222.997 70.0007ZM211.823 49.9636C211.823 56.6426 217.474 59.8537 225.052 59.8537C235.713 59.8537 244.062 53.8169 244.062 44.4406V33.7798C242.778 35.1927 238.796 36.3487 234.043 37.2478L223.254 39.3028C215.548 40.7157 211.823 44.0552 211.823 49.9636Z" fill="#7132F5"/>
<path d="M165.151 68.074V1.92596H176.454V12.972C179.666 5.13704 185.445 0.513091 194.565 0.513091C196.492 0.513091 198.418 0.898423 199.446 1.15531V12.972C198.418 12.7152 196.235 12.3298 194.051 12.3298C182.748 12.3298 176.711 21.1924 176.711 35.3211V68.074H165.151Z" fill="#7132F5"/>
<path d="M144.894 1.92595H159.794L133.078 28.1283L161.207 68.074H147.72L125.243 36.0917L114.196 46.6241V68.074H102.637V1.92595H114.196V32.2385L144.894 1.92595Z" fill="#7132F5"/>
<path d="M311.841 1.92595H326.741L300.025 28.1283L328.154 68.074H314.667L292.19 36.0917L281.143 46.6241V68.074H269.584V1.92595H281.143V32.2385L311.841 1.92595Z" fill="#7132F5"/>
<path d="M44.3548 -0.000671387C20.0662 -0.000671387 0.37793 19.9457 0.37793 44.5504V63.6423C0.37793 67.1543 3.18759 69.9993 6.65593 69.9993C10.1243 69.9993 12.9545 67.1543 12.9545 63.6423V44.5504C12.9545 41.028 15.7539 38.183 19.2325 38.183C22.7009 38.183 25.5105 41.028 25.5105 44.5504V63.6423C25.5105 67.1543 28.3202 69.9993 31.7885 69.9993C35.2671 69.9993 38.0768 67.1543 38.0768 63.6423V44.5504C38.0768 41.028 40.8865 38.183 44.3548 38.183C47.8334 38.183 50.6534 41.028 50.6534 44.5504V63.6423C50.6534 67.1543 53.4631 69.9993 56.9314 69.9993C60.3997 69.9993 63.2094 67.1543 63.2094 63.6423V44.5504C63.2094 41.028 66.0191 38.183 69.508 38.183C72.9763 38.183 75.786 41.028 75.786 44.5504V63.6423C75.786 67.1543 78.5956 69.9993 82.0743 69.9993C85.5426 69.9993 88.3523 67.1543 88.3523 63.6423V44.5504C88.3523 19.9457 68.6538 -0.000671387 44.3548 -0.000671387Z" fill="#7132F5"/>
</svg>
