<svg width="26" height="26" viewBox="0 0 26 26" fill="none" xmlns="http://www.w3.org/2000/svg">
<g clip-path="url(#clip0_26_3865)">
<path d="M13 25C19.6274 25 25 19.6274 25 13C25 6.37258 19.6274 1 13 1C6.37258 1 1 6.37258 1 13C1 19.6274 6.37258 25 13 25Z" fill="#FF0420"/>
<path d="M9.50209 16.1898C8.78756 16.1898 8.20215 16.0217 7.74582 15.6854C7.29548 15.3432 7.07031 14.8569 7.07031 14.2264C7.07031 14.0943 7.08534 13.9321 7.11534 13.74C7.19343 13.3077 7.3045 12.7883 7.4486 12.1819C7.85689 10.5307 8.91068 9.70508 10.6099 9.70508C11.0723 9.70508 11.4866 9.78313 11.8528 9.93922C12.2191 10.0893 12.5073 10.3175 12.7175 10.6237C12.9276 10.9239 13.0327 11.2842 13.0327 11.7045C13.0327 11.8306 13.0177 11.9897 12.9877 12.1819C12.8976 12.7163 12.7895 13.2357 12.6634 13.74C12.4533 14.5626 12.09 15.1781 11.5736 15.5864C11.0572 15.9887 10.3668 16.1898 9.50209 16.1898ZM9.62818 14.8929C9.96447 14.8929 10.2496 14.7938 10.4838 14.5957C10.724 14.3975 10.8951 14.0943 10.9972 13.686C11.1353 13.1216 11.2404 12.6292 11.3125 12.2089C11.3365 12.0828 11.3485 11.9537 11.3485 11.8216C11.3485 11.2752 11.0632 11.002 10.4929 11.002C10.1566 11.002 9.86838 11.1011 9.62818 11.2992C9.39404 11.4974 9.2259 11.8006 9.12385 12.2089C9.01575 12.6112 8.90766 13.1036 8.79961 13.686C8.77556 13.8061 8.76356 13.9321 8.76356 14.0642C8.76356 14.6167 9.0518 14.8929 9.62818 14.8929Z" fill="white"/>
<path d="M13.447 16.0996C13.381 16.0996 13.3299 16.0786 13.2939 16.0365C13.2638 15.9885 13.2549 15.9345 13.2669 15.8744L14.5098 10.0201C14.5218 9.95404 14.5548 9.89999 14.6088 9.85795C14.6629 9.81595 14.7199 9.79492 14.78 9.79492H17.1757C17.8422 9.79492 18.3766 9.93302 18.7789 10.2092C19.1872 10.4854 19.3914 10.8847 19.3914 11.4071C19.3914 11.5572 19.3734 11.7133 19.3373 11.8754C19.1872 12.566 18.884 13.0763 18.4277 13.4066C17.9773 13.7368 17.3589 13.9019 16.5723 13.9019H15.3564L14.9421 15.8744C14.9301 15.9405 14.897 15.9945 14.843 16.0365C14.789 16.0786 14.7319 16.0996 14.6719 16.0996H13.447ZM16.6354 12.659C16.8875 12.659 17.1067 12.59 17.2928 12.4519C17.485 12.3138 17.6111 12.1156 17.6711 11.8574C17.6891 11.7553 17.6981 11.6653 17.6981 11.5872C17.6981 11.4131 17.6471 11.281 17.545 11.191C17.4429 11.0949 17.2688 11.0469 17.0226 11.0469H15.9418L15.5996 12.659H16.6354Z" fill="white"/>
</g>
<rect x="0.5" y="0.5" width="25" height="25" rx="12.5" stroke="#232241"/>
<defs>
<clipPath id="clip0_26_3865">
<rect x="1" y="1" width="24" height="24" rx="12" fill="white"/>
</clipPath>
</defs>
</svg>
