<svg width="26" height="26" viewBox="0 0 26 26" fill="none" xmlns="http://www.w3.org/2000/svg">
<rect x="0.5" y="0.5" width="25" height="25" rx="12.5" fill="#213147"/>
<rect x="0.5" y="0.5" width="25" height="25" rx="12.5" stroke="#232241"/>
<path d="M4.35059 8.85835V17.1408C4.35059 17.669 4.62948 18.155 5.09009 18.4212L12.2654 22.5624C12.7218 22.8244 13.2838 22.8244 13.7444 22.5624L20.9197 18.4212C21.3761 18.1592 21.6592 17.669 21.6592 17.1408V8.85835C21.6592 8.33013 21.3803 7.84417 20.9197 7.57795L13.7444 3.43673C13.288 3.17474 12.726 3.17474 12.2654 3.43673L5.09009 7.57795C4.63371 7.83994 4.35059 8.33013 4.35059 8.85835Z" fill="#213147"/>
<path d="M14.5702 14.6055L13.5476 17.4114C13.518 17.4875 13.518 17.5762 13.5476 17.6523L15.3055 22.4781L17.3423 21.3033L14.8998 14.6055C14.8449 14.4492 14.6294 14.4492 14.5702 14.6055Z" fill="#12AAFF"/>
<path d="M16.6186 9.88484C16.5636 9.72849 16.3481 9.72849 16.289 9.88484L15.2663 12.6907C15.2367 12.7668 15.2367 12.8555 15.2663 12.9316L18.1483 20.8379L20.1851 19.6632L16.6186 9.88484Z" fill="#12AAFF"/>
<path d="M13.0006 3.74552C13.0513 3.74552 13.102 3.7582 13.1485 3.78356L20.9112 8.26706C20.9999 8.31777 21.0591 8.41496 21.0591 8.51638V17.4792C21.0591 17.5848 21.0042 17.6778 20.9112 17.7285L13.1485 22.2162C13.1063 22.2416 13.0556 22.2542 13.0006 22.2542C12.9457 22.2542 12.8992 22.2416 12.8527 22.2162L5.09428 17.7327C5.00554 17.682 4.94638 17.5848 4.94638 17.4834V8.51638C4.94638 8.41073 5.00131 8.31777 5.09428 8.26706L12.8569 3.78356C12.8992 3.7582 12.9541 3.74552 13.0006 3.74552ZM13.0006 2.43555C12.726 2.43555 12.4471 2.50738 12.202 2.65106L4.43929 7.13456C3.94488 7.41769 3.64062 7.9459 3.64062 8.51638V17.4792C3.64062 18.0496 3.9491 18.5821 4.43929 18.8652L12.202 23.3487C12.4471 23.4924 12.726 23.5642 13.0006 23.5642C13.2753 23.5642 13.5542 23.4924 13.7993 23.3487L21.562 18.8652C22.0606 18.5821 22.3606 18.0539 22.3606 17.4792V8.51638C22.3606 7.9459 22.0521 7.41346 21.562 7.13034L13.8035 2.65106C13.5542 2.50738 13.2753 2.43555 13.0006 2.43555Z" fill="#9DCCED"/>
<path d="M7.87012 20.8471L8.58427 18.8906L10.0168 20.0865L8.67723 21.312L7.87012 20.8471Z" fill="#213147"/>
<path d="M12.3501 7.87793H10.3809C10.233 7.87793 10.102 7.96667 10.0513 8.10612L5.83398 19.672L7.87079 20.8467L12.5149 8.11035C12.5571 7.99625 12.4726 7.87793 12.3501 7.87793Z" fill="white"/>
<path d="M15.7936 7.87793H13.8286C13.6807 7.87793 13.5497 7.96667 13.499 8.10612L8.68164 21.3115L10.7184 22.4863L15.9584 8.11457C16.0006 7.99625 15.9119 7.87793 15.7936 7.87793Z" fill="white"/>
</svg>
