<svg width="24" height="24" viewBox="0 0 24 24" fill="none" xmlns="http://www.w3.org/2000/svg">
<g clip-path="url(#clip0_2356_35565)">
<path d="M8.28125 11.1024V10.4916C8.31913 10.0086 8.44223 9.5588 8.65057 9.14213C8.8589 8.72547 9.12879 8.36088 9.46023 8.04838C9.80114 7.73588 10.1894 7.49441 10.625 7.32395C11.0606 7.14403 11.5199 7.05407 12.0028 7.05407C12.4763 7.05407 12.9214 7.13456 13.3381 7.29554C13.7453 7.45653 14.1146 7.67907 14.446 7.96316C14.7775 8.23778 15.0521 8.56922 15.2699 8.95748C15.4877 9.33626 15.6297 9.74819 15.696 10.1933L14.858 9.46884L14.1619 10.2501L16.3068 12.1251L18.196 9.9802L17.4006 9.29838L16.733 10.0654C16.6477 9.48778 16.4631 8.95274 16.179 8.46032C15.9044 7.96789 15.5587 7.54176 15.142 7.18191C14.7254 6.81259 14.2472 6.52376 13.7074 6.31543C13.1771 6.1071 12.6089 6.00293 12.0028 6.00293C11.3778 6.00293 10.786 6.11657 10.2273 6.34384C9.66856 6.58058 9.17614 6.89782 8.75 7.29554C8.32386 7.69327 7.97822 8.16202 7.71307 8.70179C7.44792 9.24157 7.29167 9.81922 7.24432 10.4347V11.1024C7.24432 11.2539 7.29167 11.3817 7.38636 11.4859C7.49053 11.5806 7.61837 11.6279 7.76989 11.6279C7.91193 11.6279 8.0303 11.5806 8.125 11.4859C8.22917 11.3817 8.28125 11.2539 8.28125 11.1024Z" fill="url(#paint0_radial_2356_35565)"/>
<path d="M8.28125 11.1024V10.4916C8.31913 10.0086 8.44223 9.5588 8.65057 9.14213C8.8589 8.72547 9.12879 8.36088 9.46023 8.04838C9.80114 7.73588 10.1894 7.49441 10.625 7.32395C11.0606 7.14403 11.5199 7.05407 12.0028 7.05407C12.4763 7.05407 12.9214 7.13456 13.3381 7.29554C13.7453 7.45653 14.1146 7.67907 14.446 7.96316C14.7775 8.23778 15.0521 8.56922 15.2699 8.95748C15.4877 9.33626 15.6297 9.74819 15.696 10.1933L14.858 9.46884L14.1619 10.2501L16.3068 12.1251L18.196 9.9802L17.4006 9.29838L16.733 10.0654C16.6477 9.48778 16.4631 8.95274 16.179 8.46032C15.9044 7.96789 15.5587 7.54176 15.142 7.18191C14.7254 6.81259 14.2472 6.52376 13.7074 6.31543C13.1771 6.1071 12.6089 6.00293 12.0028 6.00293C11.3778 6.00293 10.786 6.11657 10.2273 6.34384C9.66856 6.58058 9.17614 6.89782 8.75 7.29554C8.32386 7.69327 7.97822 8.16202 7.71307 8.70179C7.44792 9.24157 7.29167 9.81922 7.24432 10.4347V11.1024C7.24432 11.2539 7.29167 11.3817 7.38636 11.4859C7.49053 11.5806 7.61837 11.6279 7.76989 11.6279C7.91193 11.6279 8.0303 11.5806 8.125 11.4859C8.22917 11.3817 8.28125 11.2539 8.28125 11.1024Z" fill="white"/>
<path d="M8.28125 11.1024V10.4916C8.31913 10.0086 8.44223 9.5588 8.65057 9.14213C8.8589 8.72547 9.12879 8.36088 9.46023 8.04838C9.80114 7.73588 10.1894 7.49441 10.625 7.32395C11.0606 7.14403 11.5199 7.05407 12.0028 7.05407C12.4763 7.05407 12.9214 7.13456 13.3381 7.29554C13.7453 7.45653 14.1146 7.67907 14.446 7.96316C14.7775 8.23778 15.0521 8.56922 15.2699 8.95748C15.4877 9.33626 15.6297 9.74819 15.696 10.1933L14.858 9.46884L14.1619 10.2501L16.3068 12.1251L18.196 9.9802L17.4006 9.29838L16.733 10.0654C16.6477 9.48778 16.4631 8.95274 16.179 8.46032C15.9044 7.96789 15.5587 7.54176 15.142 7.18191C14.7254 6.81259 14.2472 6.52376 13.7074 6.31543C13.1771 6.1071 12.6089 6.00293 12.0028 6.00293C11.3778 6.00293 10.786 6.11657 10.2273 6.34384C9.66856 6.58058 9.17614 6.89782 8.75 7.29554C8.32386 7.69327 7.97822 8.16202 7.71307 8.70179C7.44792 9.24157 7.29167 9.81922 7.24432 10.4347V11.1024C7.24432 11.2539 7.29167 11.3817 7.38636 11.4859C7.49053 11.5806 7.61837 11.6279 7.76989 11.6279C7.91193 11.6279 8.0303 11.5806 8.125 11.4859C8.22917 11.3817 8.28125 11.2539 8.28125 11.1024Z" fill="url(#paint1_radial_2356_35565)"/>
<path fill-rule="evenodd" clip-rule="evenodd" d="M6.67614 15.5768C6.39205 15.2832 6.25 14.9281 6.25 14.5115C6.25 14.1043 6.39205 13.7539 6.67614 13.4603C6.9697 13.1668 7.32481 13.02 7.74148 13.02C8.14867 13.02 8.49905 13.1668 8.79261 13.4603C9.08617 13.7539 9.23295 14.1043 9.23295 14.5115C9.23295 14.9281 9.08617 15.2832 8.79261 15.5768C8.49905 15.8609 8.14867 16.0029 7.74148 16.0029C7.32481 16.0029 6.9697 15.8609 6.67614 15.5768ZM8.18182 14.0711C8.05871 13.9385 7.91193 13.8722 7.74148 13.8722C7.56155 13.8722 7.41004 13.9385 7.28693 14.0711C7.16383 14.1942 7.10227 14.341 7.10227 14.5115C7.10227 14.6914 7.16383 14.8429 7.28693 14.966C7.41004 15.0891 7.56155 15.1507 7.74148 15.1507C7.91193 15.1507 8.05871 15.0891 8.18182 14.966C8.31439 14.8429 8.38068 14.6914 8.38068 14.5115C8.38068 14.341 8.31439 14.1942 8.18182 14.0711Z" fill="url(#paint2_radial_2356_35565)"/>
<path fill-rule="evenodd" clip-rule="evenodd" d="M6.67614 15.5768C6.39205 15.2832 6.25 14.9281 6.25 14.5115C6.25 14.1043 6.39205 13.7539 6.67614 13.4603C6.9697 13.1668 7.32481 13.02 7.74148 13.02C8.14867 13.02 8.49905 13.1668 8.79261 13.4603C9.08617 13.7539 9.23295 14.1043 9.23295 14.5115C9.23295 14.9281 9.08617 15.2832 8.79261 15.5768C8.49905 15.8609 8.14867 16.0029 7.74148 16.0029C7.32481 16.0029 6.9697 15.8609 6.67614 15.5768ZM8.18182 14.0711C8.05871 13.9385 7.91193 13.8722 7.74148 13.8722C7.56155 13.8722 7.41004 13.9385 7.28693 14.0711C7.16383 14.1942 7.10227 14.341 7.10227 14.5115C7.10227 14.6914 7.16383 14.8429 7.28693 14.966C7.41004 15.0891 7.56155 15.1507 7.74148 15.1507C7.91193 15.1507 8.05871 15.0891 8.18182 14.966C8.31439 14.8429 8.38068 14.6914 8.38068 14.5115C8.38068 14.341 8.31439 14.1942 8.18182 14.0711Z" fill="white"/>
<path fill-rule="evenodd" clip-rule="evenodd" d="M6.67614 15.5768C6.39205 15.2832 6.25 14.9281 6.25 14.5115C6.25 14.1043 6.39205 13.7539 6.67614 13.4603C6.9697 13.1668 7.32481 13.02 7.74148 13.02C8.14867 13.02 8.49905 13.1668 8.79261 13.4603C9.08617 13.7539 9.23295 14.1043 9.23295 14.5115C9.23295 14.9281 9.08617 15.2832 8.79261 15.5768C8.49905 15.8609 8.14867 16.0029 7.74148 16.0029C7.32481 16.0029 6.9697 15.8609 6.67614 15.5768ZM8.18182 14.0711C8.05871 13.9385 7.91193 13.8722 7.74148 13.8722C7.56155 13.8722 7.41004 13.9385 7.28693 14.0711C7.16383 14.1942 7.10227 14.341 7.10227 14.5115C7.10227 14.6914 7.16383 14.8429 7.28693 14.966C7.41004 15.0891 7.56155 15.1507 7.74148 15.1507C7.91193 15.1507 8.05871 15.0891 8.18182 14.966C8.31439 14.8429 8.38068 14.6914 8.38068 14.5115C8.38068 14.341 8.31439 14.1942 8.18182 14.0711Z" fill="url(#paint3_radial_2356_35565)"/>
<path d="M15.3125 15.5768C15.0284 15.2832 14.8864 14.9281 14.8864 14.5115C14.8864 14.1043 15.0284 13.7539 15.3125 13.4603C15.6061 13.1668 15.9612 13.02 16.3778 13.02C16.785 13.02 17.1354 13.1668 17.429 13.4603C17.7225 13.7539 17.8693 14.1043 17.8693 14.5115C17.8693 14.9281 17.7225 15.2832 17.429 15.5768C17.1354 15.8609 16.785 16.0029 16.3778 16.0029C15.9612 16.0029 15.6061 15.8609 15.3125 15.5768Z" fill="url(#paint4_radial_2356_35565)"/>
<path d="M15.3125 15.5768C15.0284 15.2832 14.8864 14.9281 14.8864 14.5115C14.8864 14.1043 15.0284 13.7539 15.3125 13.4603C15.6061 13.1668 15.9612 13.02 16.3778 13.02C16.785 13.02 17.1354 13.1668 17.429 13.4603C17.7225 13.7539 17.8693 14.1043 17.8693 14.5115C17.8693 14.9281 17.7225 15.2832 17.429 15.5768C17.1354 15.8609 16.785 16.0029 16.3778 16.0029C15.9612 16.0029 15.6061 15.8609 15.3125 15.5768Z" fill="white"/>
<path d="M15.3125 15.5768C15.0284 15.2832 14.8864 14.9281 14.8864 14.5115C14.8864 14.1043 15.0284 13.7539 15.3125 13.4603C15.6061 13.1668 15.9612 13.02 16.3778 13.02C16.785 13.02 17.1354 13.1668 17.429 13.4603C17.7225 13.7539 17.8693 14.1043 17.8693 14.5115C17.8693 14.9281 17.7225 15.2832 17.429 15.5768C17.1354 15.8609 16.785 16.0029 16.3778 16.0029C15.9612 16.0029 15.6061 15.8609 15.3125 15.5768Z" fill="url(#paint5_radial_2356_35565)"/>
<path fill-rule="evenodd" clip-rule="evenodd" d="M24 12C24 18.6274 18.6274 24 12 24C5.37258 24 0 18.6274 0 12C0 5.37258 5.37258 0 12 0C18.6274 0 24 5.37258 24 12ZM23 12C23 18.0751 18.0751 23 12 23C5.92487 23 1 18.0751 1 12C1 5.92487 5.92487 1 12 1C18.0751 1 23 5.92487 23 12Z" fill="url(#paint6_radial_2356_35565)"/>
<path fill-rule="evenodd" clip-rule="evenodd" d="M24 12C24 18.6274 18.6274 24 12 24C5.37258 24 0 18.6274 0 12C0 5.37258 5.37258 0 12 0C18.6274 0 24 5.37258 24 12ZM23 12C23 18.0751 18.0751 23 12 23C5.92487 23 1 18.0751 1 12C1 5.92487 5.92487 1 12 1C18.0751 1 23 5.92487 23 12Z" fill="white"/>
<path fill-rule="evenodd" clip-rule="evenodd" d="M24 12C24 18.6274 18.6274 24 12 24C5.37258 24 0 18.6274 0 12C0 5.37258 5.37258 0 12 0C18.6274 0 24 5.37258 24 12ZM23 12C23 18.0751 18.0751 23 12 23C5.92487 23 1 18.0751 1 12C1 5.92487 5.92487 1 12 1C18.0751 1 23 5.92487 23 12Z" fill="url(#paint7_radial_2356_35565)"/>
</g>
<defs>
<radialGradient id="paint0_radial_2356_35565" cx="0" cy="0" r="1" gradientUnits="userSpaceOnUse" gradientTransform="translate(12 -0.0758096) rotate(90) scale(24.1517)">
<stop stop-color="#2E2E2E"/>
<stop offset="1" stop-color="#080808"/>
</radialGradient>
<radialGradient id="paint1_radial_2356_35565" cx="0" cy="0" r="1" gradientUnits="userSpaceOnUse" gradientTransform="translate(23.453 -2.37932) rotate(112.241) scale(46.0705 65.8683)">
<stop offset="0.155205" stop-color="#8049F2"/>
<stop offset="1" stop-color="#6D4EAE" stop-opacity="0"/>
</radialGradient>
<radialGradient id="paint2_radial_2356_35565" cx="0" cy="0" r="1" gradientUnits="userSpaceOnUse" gradientTransform="translate(12 -0.0758096) rotate(90) scale(24.1517)">
<stop stop-color="#2E2E2E"/>
<stop offset="1" stop-color="#080808"/>
</radialGradient>
<radialGradient id="paint3_radial_2356_35565" cx="0" cy="0" r="1" gradientUnits="userSpaceOnUse" gradientTransform="translate(23.453 -2.37932) rotate(112.241) scale(46.0705 65.8683)">
<stop offset="0.155205" stop-color="#8049F2"/>
<stop offset="1" stop-color="#6D4EAE" stop-opacity="0"/>
</radialGradient>
<radialGradient id="paint4_radial_2356_35565" cx="0" cy="0" r="1" gradientUnits="userSpaceOnUse" gradientTransform="translate(12 -0.0758096) rotate(90) scale(24.1517)">
<stop stop-color="#2E2E2E"/>
<stop offset="1" stop-color="#080808"/>
</radialGradient>
<radialGradient id="paint5_radial_2356_35565" cx="0" cy="0" r="1" gradientUnits="userSpaceOnUse" gradientTransform="translate(23.453 -2.37932) rotate(112.241) scale(46.0705 65.8683)">
<stop offset="0.155205" stop-color="#8049F2"/>
<stop offset="1" stop-color="#6D4EAE" stop-opacity="0"/>
</radialGradient>
<radialGradient id="paint6_radial_2356_35565" cx="0" cy="0" r="1" gradientUnits="userSpaceOnUse" gradientTransform="translate(12 -0.0758096) rotate(90) scale(24.1517)">
<stop stop-color="#2E2E2E"/>
<stop offset="1" stop-color="#080808"/>
</radialGradient>
<radialGradient id="paint7_radial_2356_35565" cx="0" cy="0" r="1" gradientUnits="userSpaceOnUse" gradientTransform="translate(23.453 -2.37932) rotate(112.241) scale(46.0705 65.8683)">
<stop offset="0.155205" stop-color="#8049F2"/>
<stop offset="1" stop-color="#6D4EAE" stop-opacity="0"/>
</radialGradient>
<clipPath id="clip0_2356_35565">
<rect width="24" height="24" rx="12" fill="white"/>
</clipPath>
</defs>
</svg>
