<svg fill="none" height="512" width="512" xmlns="http://www.w3.org/2000/svg">
  <rect width="512" height="512" rx="114.49" fill="#7132F5" />
  <path
    fill-rule="evenodd"
    clip-rule="evenodd"
    d="M113 276.517v61.919c0 11.403 9.119 20.63 20.333 20.63 11.226 0 20.388-9.227 20.388-20.63v-61.919c0-11.419 9.072-20.662 20.345-20.662 11.233 0 20.345 9.243 20.345 20.662v61.919c0 11.403 9.119 20.63 20.344 20.63 11.265 0 20.381-9.227 20.381-20.63v-61.919c0-11.419 9.111-20.662 20.34-20.662 11.277 0 20.396 9.243 20.396 20.662v61.919c0 11.403 9.116 20.63 20.329 20.63 11.226 0 20.345-9.227 20.345-20.63v-61.919c0-11.419 9.115-20.662 20.388-20.662 11.23 0 20.345 9.243 20.345 20.662v61.919c0 11.403 9.119 20.63 20.376 20.63 11.23 0 20.345-9.227 20.345-20.63v-61.919C398 196.71 334.186 132 255.476 132 176.771 132 113 196.71 113 276.517Z"
    fill="#fff"
  />
</svg>
