<svg width="20" height="16" viewBox="0 0 20 16" fill="none" xmlns="http://www.w3.org/2000/svg">
<path fillRule="evenodd" clipRule="evenodd" d="M3.48276 2C2.56457 2 2 2.64948 2 3.24V12.76C2 13.3505 2.56456 14 3.48276 14H16.5172C17.4355 14 18 13.3506 18 12.76V3.24C18 2.64947 17.4355 2 16.5172 2H3.48276ZM0 3.24C0 1.35629 1.65857 0 3.48276 0H16.5172C18.3415 0 20 1.3563 20 3.24V12.76C20 14.6437 18.3415 16 16.5172 16H3.48276C1.65858 16 0 14.6438 0 12.76V3.24Z" fill="#0B0D12"/>
<path fillRule="evenodd" clipRule="evenodd" d="M1.24742 1.3415C1.61111 0.925859 2.24287 0.883741 2.6585 1.24742L9.3415 7.09504C9.71852 7.42494 10.2815 7.42494 10.6585 7.09504L17.3415 1.24742C17.7571 0.883741 18.3889 0.925859 18.7526 1.3415C19.1163 1.75713 19.0741 2.38889 18.6585 2.75258L11.9755 8.60019C10.8444 9.58989 9.15557 9.58989 8.02449 8.60019L1.3415 2.75258C0.925859 2.38889 0.883741 1.75713 1.24742 1.3415Z" fill="#0B0D12"/>
</svg>
