<svg width="26" height="26" viewBox="0 0 26 26" fill="none" xmlns="http://www.w3.org/2000/svg">
<g clip-path="url(#clip0_26_3866)">
<path d="M13 24.998C19.6274 24.998 25 19.6255 25 12.998C25 6.37063 19.6274 0.998047 13 0.998047C6.37258 0.998047 1 6.37063 1 12.998C1 19.6255 6.37258 24.998 13 24.998Z" fill="#DFFE00"/>
<path d="M13.3971 13.8868L15.8175 6.7002H19.7203V19.256H17.0994V12.9993L18.1467 9.43007L17.4008 9.15021L13.9972 19.2557H12.0034L8.59974 9.15021L7.85389 9.43007L8.90117 12.9993V19.256H6.28027V6.7002H10.1831L12.6035 13.8868V15.9954H13.3971V13.8868Z" fill="black"/>
</g>
<rect x="0.5" y="0.5" width="25" height="25" rx="12.5" stroke="#232241"/>
<defs>
<clipPath id="clip0_26_3866">
<rect x="1" y="1" width="24" height="24" rx="12" fill="white"/>
</clipPath>
</defs>
</svg>
