<svg width="200" height="200" viewBox="0 0 200 200" fill="none" xmlns="http://www.w3.org/2000/svg">
<g clipPath="url(#clip0_1645_2485)">
<circle cx="100" cy="100" r="100" fill="#FF0420"/>
<path d="M70.8538 126.578C64.8994 126.578 60.0208 125.177 56.218 122.375C52.4652 119.523 50.5889 115.47 50.5889 110.216C50.5889 109.116 50.714 107.765 50.9641 106.163C51.6146 102.561 52.5403 98.2325 53.7412 93.1788C57.1437 79.4187 65.9251 72.5386 80.0856 72.5386C83.9384 72.5386 87.3909 73.1891 90.4432 74.4901C93.4954 75.741 95.8972 77.6424 97.6485 80.1943C99.3998 82.6961 100.275 85.6983 100.275 89.2009C100.275 90.2517 100.15 91.5776 99.9001 93.1788C99.1496 97.6321 98.2489 101.96 97.1981 106.163C95.4469 113.018 92.4196 118.147 88.1165 121.55C83.8133 124.902 78.0591 126.578 70.8538 126.578ZM71.9045 115.77C74.7066 115.77 77.0833 114.945 79.0348 113.294C81.0363 111.642 82.4623 109.116 83.3129 105.713C84.4638 101.01 85.3394 96.9066 85.9399 93.404C86.14 92.3532 86.2401 91.2774 86.2401 90.1766C86.2401 85.6233 83.8633 83.3466 79.1098 83.3466C76.3078 83.3466 73.906 84.1722 71.9045 85.8234C69.9531 87.4746 68.5521 90.0015 67.7015 93.404C66.8008 96.7564 65.9001 100.859 64.9995 105.713C64.7993 106.714 64.6992 107.765 64.6992 108.865C64.6992 113.469 67.101 115.77 71.9045 115.77Z" fill="white"/>
<path d="M103.721 125.828C103.171 125.828 102.746 125.653 102.446 125.302C102.195 124.902 102.12 124.452 102.22 123.951L112.578 75.1656C112.678 74.6152 112.953 74.1648 113.404 73.8146C113.854 73.4643 114.329 73.2892 114.83 73.2892H134.794C140.348 73.2892 144.802 74.44 148.154 76.7417C151.557 79.0434 153.258 82.3709 153.258 86.7241C153.258 87.975 153.108 89.2759 152.808 90.6269C151.557 96.3812 149.03 100.634 145.227 103.386C141.474 106.138 136.32 107.514 129.766 107.514H119.633L116.181 123.951C116.081 124.502 115.805 124.952 115.355 125.302C114.905 125.653 114.429 125.828 113.929 125.828H103.721ZM130.291 97.1567C132.393 97.1567 134.219 96.5813 135.77 95.4305C137.371 94.2796 138.422 92.6284 138.922 90.4768C139.072 89.6262 139.148 88.8757 139.148 88.2252C139.148 86.7741 138.722 85.6733 137.872 84.9227C137.021 84.1222 135.57 83.7219 133.518 83.7219H124.512L121.66 97.1567H130.291Z" fill="white"/>
</g>
<defs>
<clipPath id="clip0_1645_2485">
<rect width="200" height="200" fill="white"/>
</clipPath>
</defs>
</svg>
