<svg width="24" height="24" viewBox="0 0 24 24" fill="none" xmlns="http://www.w3.org/2000/svg">
<g clip-path="url(#clip0_2356_35557)">
<path d="M12.3369 12.9082C12.2393 12.8008 12.127 12.7471 12 12.7471C11.873 12.7471 11.7559 12.791 11.6484 12.8789C11.5508 12.9668 11.502 13.0889 11.502 13.2451V15.1201C11.502 15.2471 11.5459 15.3643 11.6338 15.4717C11.7217 15.5693 11.8437 15.6182 12 15.6182C12.1562 15.6182 12.2783 15.5742 12.3662 15.4863C12.4541 15.3984 12.498 15.2764 12.498 15.1201V13.2451C12.498 13.1279 12.4443 13.0156 12.3369 12.9082Z" fill="url(#paint0_radial_2356_35557)"/>
<path d="M12.3369 12.9082C12.2393 12.8008 12.127 12.7471 12 12.7471C11.873 12.7471 11.7559 12.791 11.6484 12.8789C11.5508 12.9668 11.502 13.0889 11.502 13.2451V15.1201C11.502 15.2471 11.5459 15.3643 11.6338 15.4717C11.7217 15.5693 11.8437 15.6182 12 15.6182C12.1562 15.6182 12.2783 15.5742 12.3662 15.4863C12.4541 15.3984 12.498 15.2764 12.498 15.1201V13.2451C12.498 13.1279 12.4443 13.0156 12.3369 12.9082Z" fill="white"/>
<path d="M12.3369 12.9082C12.2393 12.8008 12.127 12.7471 12 12.7471C11.873 12.7471 11.7559 12.791 11.6484 12.8789C11.5508 12.9668 11.502 13.0889 11.502 13.2451V15.1201C11.502 15.2471 11.5459 15.3643 11.6338 15.4717C11.7217 15.5693 11.8437 15.6182 12 15.6182C12.1562 15.6182 12.2783 15.5742 12.3662 15.4863C12.4541 15.3984 12.498 15.2764 12.498 15.1201V13.2451C12.498 13.1279 12.4443 13.0156 12.3369 12.9082Z" fill="url(#paint1_radial_2356_35557)"/>
<path fill-rule="evenodd" clip-rule="evenodd" d="M16.3506 10.7842C15.999 10.4326 15.5889 10.2568 15.1201 10.2568H15.0029V8.87988C15.0029 8.46973 14.9248 8.08399 14.7686 7.72266C14.6123 7.36133 14.3975 7.04395 14.124 6.77051C13.8604 6.49707 13.5479 6.27735 13.1865 6.11133C12.8154 5.95508 12.4199 5.87695 12 5.87695C11.5898 5.87695 11.2041 5.95508 10.8428 6.11133C10.4814 6.27735 10.1641 6.49707 9.89062 6.77051C9.61719 7.04395 9.40234 7.36133 9.24609 7.72266C9.08008 8.08399 8.99707 8.46973 8.99707 8.87988V10.2568H8.87988C8.41113 10.2568 8.00098 10.4229 7.64941 10.7549C7.29785 11.0869 7.12207 11.502 7.12207 12V16.3799C7.12207 16.8486 7.28809 17.2588 7.62012 17.6104C7.95215 17.9521 8.37207 18.123 8.87988 18.123H15.1201C15.5889 18.123 15.999 17.957 16.3506 17.625C16.7021 17.293 16.8779 16.8779 16.8779 16.3799V12C16.8779 11.5313 16.7021 11.126 16.3506 10.7842ZM9.99316 10.2568V8.87988C9.99316 8.31348 10.1934 7.83984 10.5937 7.45899C11.0039 7.06836 11.4727 6.87305 12 6.87305C12.5273 6.87305 12.9912 7.07324 13.3916 7.47363C13.8018 7.87402 14.0068 8.34277 14.0068 8.87988V10.2568H9.99316ZM15.8818 12V16.3799C15.8818 16.5947 15.8037 16.7754 15.6475 16.9219C15.4912 17.0586 15.3154 17.127 15.1201 17.127H8.87988C8.65527 17.127 8.46973 17.0488 8.32324 16.8926C8.18652 16.7363 8.11816 16.5654 8.11816 16.3799V12C8.11816 11.7852 8.19629 11.6094 8.35254 11.4727C8.50879 11.3262 8.68457 11.2529 8.87988 11.2529H15.1201C15.3447 11.2529 15.5254 11.3311 15.6621 11.4873C15.8086 11.6436 15.8818 11.8145 15.8818 12Z" fill="url(#paint2_radial_2356_35557)"/>
<path fill-rule="evenodd" clip-rule="evenodd" d="M16.3506 10.7842C15.999 10.4326 15.5889 10.2568 15.1201 10.2568H15.0029V8.87988C15.0029 8.46973 14.9248 8.08399 14.7686 7.72266C14.6123 7.36133 14.3975 7.04395 14.124 6.77051C13.8604 6.49707 13.5479 6.27735 13.1865 6.11133C12.8154 5.95508 12.4199 5.87695 12 5.87695C11.5898 5.87695 11.2041 5.95508 10.8428 6.11133C10.4814 6.27735 10.1641 6.49707 9.89062 6.77051C9.61719 7.04395 9.40234 7.36133 9.24609 7.72266C9.08008 8.08399 8.99707 8.46973 8.99707 8.87988V10.2568H8.87988C8.41113 10.2568 8.00098 10.4229 7.64941 10.7549C7.29785 11.0869 7.12207 11.502 7.12207 12V16.3799C7.12207 16.8486 7.28809 17.2588 7.62012 17.6104C7.95215 17.9521 8.37207 18.123 8.87988 18.123H15.1201C15.5889 18.123 15.999 17.957 16.3506 17.625C16.7021 17.293 16.8779 16.8779 16.8779 16.3799V12C16.8779 11.5313 16.7021 11.126 16.3506 10.7842ZM9.99316 10.2568V8.87988C9.99316 8.31348 10.1934 7.83984 10.5937 7.45899C11.0039 7.06836 11.4727 6.87305 12 6.87305C12.5273 6.87305 12.9912 7.07324 13.3916 7.47363C13.8018 7.87402 14.0068 8.34277 14.0068 8.87988V10.2568H9.99316ZM15.8818 12V16.3799C15.8818 16.5947 15.8037 16.7754 15.6475 16.9219C15.4912 17.0586 15.3154 17.127 15.1201 17.127H8.87988C8.65527 17.127 8.46973 17.0488 8.32324 16.8926C8.18652 16.7363 8.11816 16.5654 8.11816 16.3799V12C8.11816 11.7852 8.19629 11.6094 8.35254 11.4727C8.50879 11.3262 8.68457 11.2529 8.87988 11.2529H15.1201C15.3447 11.2529 15.5254 11.3311 15.6621 11.4873C15.8086 11.6436 15.8818 11.8145 15.8818 12Z" fill="white"/>
<path fill-rule="evenodd" clip-rule="evenodd" d="M16.3506 10.7842C15.999 10.4326 15.5889 10.2568 15.1201 10.2568H15.0029V8.87988C15.0029 8.46973 14.9248 8.08399 14.7686 7.72266C14.6123 7.36133 14.3975 7.04395 14.124 6.77051C13.8604 6.49707 13.5479 6.27735 13.1865 6.11133C12.8154 5.95508 12.4199 5.87695 12 5.87695C11.5898 5.87695 11.2041 5.95508 10.8428 6.11133C10.4814 6.27735 10.1641 6.49707 9.89062 6.77051C9.61719 7.04395 9.40234 7.36133 9.24609 7.72266C9.08008 8.08399 8.99707 8.46973 8.99707 8.87988V10.2568H8.87988C8.41113 10.2568 8.00098 10.4229 7.64941 10.7549C7.29785 11.0869 7.12207 11.502 7.12207 12V16.3799C7.12207 16.8486 7.28809 17.2588 7.62012 17.6104C7.95215 17.9521 8.37207 18.123 8.87988 18.123H15.1201C15.5889 18.123 15.999 17.957 16.3506 17.625C16.7021 17.293 16.8779 16.8779 16.8779 16.3799V12C16.8779 11.5313 16.7021 11.126 16.3506 10.7842ZM9.99316 10.2568V8.87988C9.99316 8.31348 10.1934 7.83984 10.5937 7.45899C11.0039 7.06836 11.4727 6.87305 12 6.87305C12.5273 6.87305 12.9912 7.07324 13.3916 7.47363C13.8018 7.87402 14.0068 8.34277 14.0068 8.87988V10.2568H9.99316ZM15.8818 12V16.3799C15.8818 16.5947 15.8037 16.7754 15.6475 16.9219C15.4912 17.0586 15.3154 17.127 15.1201 17.127H8.87988C8.65527 17.127 8.46973 17.0488 8.32324 16.8926C8.18652 16.7363 8.11816 16.5654 8.11816 16.3799V12C8.11816 11.7852 8.19629 11.6094 8.35254 11.4727C8.50879 11.3262 8.68457 11.2529 8.87988 11.2529H15.1201C15.3447 11.2529 15.5254 11.3311 15.6621 11.4873C15.8086 11.6436 15.8818 11.8145 15.8818 12Z" fill="url(#paint3_radial_2356_35557)"/>
<path fill-rule="evenodd" clip-rule="evenodd" d="M24 12C24 18.6274 18.6274 24 12 24C5.37258 24 0 18.6274 0 12C0 5.37258 5.37258 0 12 0C18.6274 0 24 5.37258 24 12ZM23 12C23 18.0751 18.0751 23 12 23C5.92487 23 1 18.0751 1 12C1 5.92487 5.92487 1 12 1C18.0751 1 23 5.92487 23 12Z" fill="url(#paint4_radial_2356_35557)"/>
<path fill-rule="evenodd" clip-rule="evenodd" d="M24 12C24 18.6274 18.6274 24 12 24C5.37258 24 0 18.6274 0 12C0 5.37258 5.37258 0 12 0C18.6274 0 24 5.37258 24 12ZM23 12C23 18.0751 18.0751 23 12 23C5.92487 23 1 18.0751 1 12C1 5.92487 5.92487 1 12 1C18.0751 1 23 5.92487 23 12Z" fill="white"/>
<path fill-rule="evenodd" clip-rule="evenodd" d="M24 12C24 18.6274 18.6274 24 12 24C5.37258 24 0 18.6274 0 12C0 5.37258 5.37258 0 12 0C18.6274 0 24 5.37258 24 12ZM23 12C23 18.0751 18.0751 23 12 23C5.92487 23 1 18.0751 1 12C1 5.92487 5.92487 1 12 1C18.0751 1 23 5.92487 23 12Z" fill="url(#paint5_radial_2356_35557)"/>
</g>
<defs>
<radialGradient id="paint0_radial_2356_35557" cx="0" cy="0" r="1" gradientUnits="userSpaceOnUse" gradientTransform="translate(12 -0.0758096) rotate(90) scale(24.1517)">
<stop stop-color="#2E2E2E"/>
<stop offset="1" stop-color="#080808"/>
</radialGradient>
<radialGradient id="paint1_radial_2356_35557" cx="0" cy="0" r="1" gradientUnits="userSpaceOnUse" gradientTransform="translate(23.453 -2.37932) rotate(112.241) scale(46.0705 65.8683)">
<stop offset="0.155205" stop-color="#8049F2"/>
<stop offset="1" stop-color="#6D4EAE" stop-opacity="0"/>
</radialGradient>
<radialGradient id="paint2_radial_2356_35557" cx="0" cy="0" r="1" gradientUnits="userSpaceOnUse" gradientTransform="translate(12 -0.0758096) rotate(90) scale(24.1517)">
<stop stop-color="#2E2E2E"/>
<stop offset="1" stop-color="#080808"/>
</radialGradient>
<radialGradient id="paint3_radial_2356_35557" cx="0" cy="0" r="1" gradientUnits="userSpaceOnUse" gradientTransform="translate(23.453 -2.37932) rotate(112.241) scale(46.0705 65.8683)">
<stop offset="0.155205" stop-color="#8049F2"/>
<stop offset="1" stop-color="#6D4EAE" stop-opacity="0"/>
</radialGradient>
<radialGradient id="paint4_radial_2356_35557" cx="0" cy="0" r="1" gradientUnits="userSpaceOnUse" gradientTransform="translate(12 -0.0758096) rotate(90) scale(24.1517)">
<stop stop-color="#2E2E2E"/>
<stop offset="1" stop-color="#080808"/>
</radialGradient>
<radialGradient id="paint5_radial_2356_35557" cx="0" cy="0" r="1" gradientUnits="userSpaceOnUse" gradientTransform="translate(23.453 -2.37932) rotate(112.241) scale(46.0705 65.8683)">
<stop offset="0.155205" stop-color="#8049F2"/>
<stop offset="1" stop-color="#6D4EAE" stop-opacity="0"/>
</radialGradient>
<clipPath id="clip0_2356_35557">
<rect width="24" height="24" rx="12" fill="white"/>
</clipPath>
</defs>
</svg>
