<svg width="24" height="24" viewBox="0 0 24 24" fill="none" xmlns="http://www.w3.org/2000/svg">
<g clip-path="url(#clip0_2356_35561)">
<path d="M13.3623 8.99261C13.2777 8.95876 13.1761 8.94183 13.0576 8.94183H10.6328C10.5059 8.94183 10.4001 8.95452 10.3154 8.97991C10.2308 9.00531 10.1631 9.04762 10.1123 9.10687C10.0531 9.16611 10.0107 9.23805 9.98535 9.32269C9.95996 9.40732 9.94727 9.50889 9.94727 9.62738V10.3383C9.94727 10.4568 9.95996 10.5584 9.98535 10.643C10.0107 10.7276 10.0531 10.7953 10.1123 10.8461C10.1631 10.9054 10.2308 10.9477 10.3154 10.9731C10.4001 10.9985 10.5059 11.0112 10.6328 11.0112H13.0576C13.1761 11.0112 13.2777 10.9985 13.3623 10.9731C13.4469 10.9477 13.5189 10.9054 13.5781 10.8461C13.6289 10.7953 13.667 10.7276 13.6924 10.643C13.7262 10.5584 13.7432 10.4568 13.7432 10.3383V9.62738C13.7432 9.50889 13.7305 9.40732 13.7051 9.32269C13.6797 9.23805 13.6374 9.16611 13.5781 9.10687C13.5189 9.05609 13.4469 9.018 13.3623 8.99261Z" fill="url(#paint0_radial_2356_35561)"/>
<path d="M13.3623 8.99261C13.2777 8.95876 13.1761 8.94183 13.0576 8.94183H10.6328C10.5059 8.94183 10.4001 8.95452 10.3154 8.97991C10.2308 9.00531 10.1631 9.04762 10.1123 9.10687C10.0531 9.16611 10.0107 9.23805 9.98535 9.32269C9.95996 9.40732 9.94727 9.50889 9.94727 9.62738V10.3383C9.94727 10.4568 9.95996 10.5584 9.98535 10.643C10.0107 10.7276 10.0531 10.7953 10.1123 10.8461C10.1631 10.9054 10.2308 10.9477 10.3154 10.9731C10.4001 10.9985 10.5059 11.0112 10.6328 11.0112H13.0576C13.1761 11.0112 13.2777 10.9985 13.3623 10.9731C13.4469 10.9477 13.5189 10.9054 13.5781 10.8461C13.6289 10.7953 13.667 10.7276 13.6924 10.643C13.7262 10.5584 13.7432 10.4568 13.7432 10.3383V9.62738C13.7432 9.50889 13.7305 9.40732 13.7051 9.32269C13.6797 9.23805 13.6374 9.16611 13.5781 9.10687C13.5189 9.05609 13.4469 9.018 13.3623 8.99261Z" fill="white"/>
<path d="M13.3623 8.99261C13.2777 8.95876 13.1761 8.94183 13.0576 8.94183H10.6328C10.5059 8.94183 10.4001 8.95452 10.3154 8.97991C10.2308 9.00531 10.1631 9.04762 10.1123 9.10687C10.0531 9.16611 10.0107 9.23805 9.98535 9.32269C9.95996 9.40732 9.94727 9.50889 9.94727 9.62738V10.3383C9.94727 10.4568 9.95996 10.5584 9.98535 10.643C10.0107 10.7276 10.0531 10.7953 10.1123 10.8461C10.1631 10.9054 10.2308 10.9477 10.3154 10.9731C10.4001 10.9985 10.5059 11.0112 10.6328 11.0112H13.0576C13.1761 11.0112 13.2777 10.9985 13.3623 10.9731C13.4469 10.9477 13.5189 10.9054 13.5781 10.8461C13.6289 10.7953 13.667 10.7276 13.6924 10.643C13.7262 10.5584 13.7432 10.4568 13.7432 10.3383V9.62738C13.7432 9.50889 13.7305 9.40732 13.7051 9.32269C13.6797 9.23805 13.6374 9.16611 13.5781 9.10687C13.5189 9.05609 13.4469 9.018 13.3623 8.99261Z" fill="url(#paint1_radial_2356_35561)"/>
<path fill-rule="evenodd" clip-rule="evenodd" d="M17.1455 16.5971C17.0693 16.5125 16.972 16.4701 16.8535 16.4701H15.8887V8.67523C15.8887 8.38747 15.8421 8.1251 15.749 7.88812C15.6559 7.64268 15.5205 7.43109 15.3428 7.25335C15.165 7.07562 14.9535 6.9402 14.708 6.8471C14.471 6.754 14.2087 6.70745 13.9209 6.70745H9.75684C9.46908 6.70745 9.20247 6.754 8.95703 6.8471C8.72005 6.9402 8.5127 7.07562 8.33496 7.25335C8.15723 7.43109 8.02181 7.64268 7.92871 7.88812C7.83561 8.1251 7.78906 8.38747 7.78906 8.67523V13.3598H6.90039V10.9096L7.33203 10.6557H7.35742C7.36589 10.6472 7.37012 10.6388 7.37012 10.6303L7.4209 10.6049C7.43783 10.588 7.45052 10.5711 7.45898 10.5541C7.47591 10.5287 7.48861 10.5076 7.49707 10.4907C7.514 10.4653 7.52246 10.4399 7.52246 10.4145C7.53092 10.3806 7.53092 10.351 7.52246 10.3256C7.514 10.2918 7.5013 10.2579 7.48438 10.2241C7.46745 10.1817 7.43359 10.1479 7.38281 10.1225C7.33203 10.0971 7.27279 10.0844 7.20508 10.0844H7.19238C7.17546 10.0844 7.1543 10.0886 7.12891 10.0971C7.10352 10.0971 7.07812 10.1013 7.05273 10.1098H6.98926L6.30371 10.2875H6.27832V10.3002C6.21061 10.3341 6.1556 10.3849 6.11328 10.4526C6.07943 10.5118 6.0625 10.5795 6.0625 10.6557V13.766C6.0625 13.8845 6.10059 13.9861 6.17676 14.0707C6.25293 14.1469 6.35026 14.185 6.46875 14.185H7.76367V16.4701H6.78613C6.66764 16.4701 6.56608 16.5125 6.48145 16.5971C6.40527 16.6733 6.36719 16.7706 6.36719 16.8891C6.36719 17.0076 6.40527 17.1091 6.48145 17.1938C6.56608 17.27 6.66764 17.308 6.78613 17.308H16.8535C16.9635 17.308 17.0609 17.27 17.1455 17.1938C17.2301 17.1091 17.2725 17.0076 17.2725 16.8891C17.2725 16.7791 17.2301 16.6817 17.1455 16.5971ZM15.0635 8.67523V16.4701H8.62695V8.67523C8.62695 8.50596 8.65234 8.34938 8.70312 8.2055C8.75391 8.06162 8.83008 7.9389 8.93164 7.83734C9.0332 7.74424 9.15169 7.6723 9.28711 7.62152C9.43099 7.56227 9.5918 7.53265 9.76953 7.53265H13.9209C14.0986 7.53265 14.2594 7.55804 14.4033 7.60882C14.5472 7.6596 14.6657 7.73577 14.7588 7.83734C14.8604 7.9389 14.9365 8.06162 14.9873 8.2055C15.0381 8.34938 15.0635 8.50596 15.0635 8.67523Z" fill="url(#paint2_radial_2356_35561)"/>
<path fill-rule="evenodd" clip-rule="evenodd" d="M17.1455 16.5971C17.0693 16.5125 16.972 16.4701 16.8535 16.4701H15.8887V8.67523C15.8887 8.38747 15.8421 8.1251 15.749 7.88812C15.6559 7.64268 15.5205 7.43109 15.3428 7.25335C15.165 7.07562 14.9535 6.9402 14.708 6.8471C14.471 6.754 14.2087 6.70745 13.9209 6.70745H9.75684C9.46908 6.70745 9.20247 6.754 8.95703 6.8471C8.72005 6.9402 8.5127 7.07562 8.33496 7.25335C8.15723 7.43109 8.02181 7.64268 7.92871 7.88812C7.83561 8.1251 7.78906 8.38747 7.78906 8.67523V13.3598H6.90039V10.9096L7.33203 10.6557H7.35742C7.36589 10.6472 7.37012 10.6388 7.37012 10.6303L7.4209 10.6049C7.43783 10.588 7.45052 10.5711 7.45898 10.5541C7.47591 10.5287 7.48861 10.5076 7.49707 10.4907C7.514 10.4653 7.52246 10.4399 7.52246 10.4145C7.53092 10.3806 7.53092 10.351 7.52246 10.3256C7.514 10.2918 7.5013 10.2579 7.48438 10.2241C7.46745 10.1817 7.43359 10.1479 7.38281 10.1225C7.33203 10.0971 7.27279 10.0844 7.20508 10.0844H7.19238C7.17546 10.0844 7.1543 10.0886 7.12891 10.0971C7.10352 10.0971 7.07812 10.1013 7.05273 10.1098H6.98926L6.30371 10.2875H6.27832V10.3002C6.21061 10.3341 6.1556 10.3849 6.11328 10.4526C6.07943 10.5118 6.0625 10.5795 6.0625 10.6557V13.766C6.0625 13.8845 6.10059 13.9861 6.17676 14.0707C6.25293 14.1469 6.35026 14.185 6.46875 14.185H7.76367V16.4701H6.78613C6.66764 16.4701 6.56608 16.5125 6.48145 16.5971C6.40527 16.6733 6.36719 16.7706 6.36719 16.8891C6.36719 17.0076 6.40527 17.1091 6.48145 17.1938C6.56608 17.27 6.66764 17.308 6.78613 17.308H16.8535C16.9635 17.308 17.0609 17.27 17.1455 17.1938C17.2301 17.1091 17.2725 17.0076 17.2725 16.8891C17.2725 16.7791 17.2301 16.6817 17.1455 16.5971ZM15.0635 8.67523V16.4701H8.62695V8.67523C8.62695 8.50596 8.65234 8.34938 8.70312 8.2055C8.75391 8.06162 8.83008 7.9389 8.93164 7.83734C9.0332 7.74424 9.15169 7.6723 9.28711 7.62152C9.43099 7.56227 9.5918 7.53265 9.76953 7.53265H13.9209C14.0986 7.53265 14.2594 7.55804 14.4033 7.60882C14.5472 7.6596 14.6657 7.73577 14.7588 7.83734C14.8604 7.9389 14.9365 8.06162 14.9873 8.2055C15.0381 8.34938 15.0635 8.50596 15.0635 8.67523Z" fill="white"/>
<path fill-rule="evenodd" clip-rule="evenodd" d="M17.1455 16.5971C17.0693 16.5125 16.972 16.4701 16.8535 16.4701H15.8887V8.67523C15.8887 8.38747 15.8421 8.1251 15.749 7.88812C15.6559 7.64268 15.5205 7.43109 15.3428 7.25335C15.165 7.07562 14.9535 6.9402 14.708 6.8471C14.471 6.754 14.2087 6.70745 13.9209 6.70745H9.75684C9.46908 6.70745 9.20247 6.754 8.95703 6.8471C8.72005 6.9402 8.5127 7.07562 8.33496 7.25335C8.15723 7.43109 8.02181 7.64268 7.92871 7.88812C7.83561 8.1251 7.78906 8.38747 7.78906 8.67523V13.3598H6.90039V10.9096L7.33203 10.6557H7.35742C7.36589 10.6472 7.37012 10.6388 7.37012 10.6303L7.4209 10.6049C7.43783 10.588 7.45052 10.5711 7.45898 10.5541C7.47591 10.5287 7.48861 10.5076 7.49707 10.4907C7.514 10.4653 7.52246 10.4399 7.52246 10.4145C7.53092 10.3806 7.53092 10.351 7.52246 10.3256C7.514 10.2918 7.5013 10.2579 7.48438 10.2241C7.46745 10.1817 7.43359 10.1479 7.38281 10.1225C7.33203 10.0971 7.27279 10.0844 7.20508 10.0844H7.19238C7.17546 10.0844 7.1543 10.0886 7.12891 10.0971C7.10352 10.0971 7.07812 10.1013 7.05273 10.1098H6.98926L6.30371 10.2875H6.27832V10.3002C6.21061 10.3341 6.1556 10.3849 6.11328 10.4526C6.07943 10.5118 6.0625 10.5795 6.0625 10.6557V13.766C6.0625 13.8845 6.10059 13.9861 6.17676 14.0707C6.25293 14.1469 6.35026 14.185 6.46875 14.185H7.76367V16.4701H6.78613C6.66764 16.4701 6.56608 16.5125 6.48145 16.5971C6.40527 16.6733 6.36719 16.7706 6.36719 16.8891C6.36719 17.0076 6.40527 17.1091 6.48145 17.1938C6.56608 17.27 6.66764 17.308 6.78613 17.308H16.8535C16.9635 17.308 17.0609 17.27 17.1455 17.1938C17.2301 17.1091 17.2725 17.0076 17.2725 16.8891C17.2725 16.7791 17.2301 16.6817 17.1455 16.5971ZM15.0635 8.67523V16.4701H8.62695V8.67523C8.62695 8.50596 8.65234 8.34938 8.70312 8.2055C8.75391 8.06162 8.83008 7.9389 8.93164 7.83734C9.0332 7.74424 9.15169 7.6723 9.28711 7.62152C9.43099 7.56227 9.5918 7.53265 9.76953 7.53265H13.9209C14.0986 7.53265 14.2594 7.55804 14.4033 7.60882C14.5472 7.6596 14.6657 7.73577 14.7588 7.83734C14.8604 7.9389 14.9365 8.06162 14.9873 8.2055C15.0381 8.34938 15.0635 8.50596 15.0635 8.67523Z" fill="url(#paint3_radial_2356_35561)"/>
<path fill-rule="evenodd" clip-rule="evenodd" d="M24 12C24 18.6274 18.6274 24 12 24C5.37258 24 0 18.6274 0 12C0 5.37258 5.37258 0 12 0C18.6274 0 24 5.37258 24 12ZM23 12C23 18.0751 18.0751 23 12 23C5.92487 23 1 18.0751 1 12C1 5.92487 5.92487 1 12 1C18.0751 1 23 5.92487 23 12Z" fill="url(#paint4_radial_2356_35561)"/>
<path fill-rule="evenodd" clip-rule="evenodd" d="M24 12C24 18.6274 18.6274 24 12 24C5.37258 24 0 18.6274 0 12C0 5.37258 5.37258 0 12 0C18.6274 0 24 5.37258 24 12ZM23 12C23 18.0751 18.0751 23 12 23C5.92487 23 1 18.0751 1 12C1 5.92487 5.92487 1 12 1C18.0751 1 23 5.92487 23 12Z" fill="white"/>
<path fill-rule="evenodd" clip-rule="evenodd" d="M24 12C24 18.6274 18.6274 24 12 24C5.37258 24 0 18.6274 0 12C0 5.37258 5.37258 0 12 0C18.6274 0 24 5.37258 24 12ZM23 12C23 18.0751 18.0751 23 12 23C5.92487 23 1 18.0751 1 12C1 5.92487 5.92487 1 12 1C18.0751 1 23 5.92487 23 12Z" fill="url(#paint5_radial_2356_35561)"/>
</g>
<defs>
<radialGradient id="paint0_radial_2356_35561" cx="0" cy="0" r="1" gradientUnits="userSpaceOnUse" gradientTransform="translate(12 -0.0758096) rotate(90) scale(24.1517)">
<stop stop-color="#2E2E2E"/>
<stop offset="1" stop-color="#080808"/>
</radialGradient>
<radialGradient id="paint1_radial_2356_35561" cx="0" cy="0" r="1" gradientUnits="userSpaceOnUse" gradientTransform="translate(23.453 -2.37932) rotate(112.241) scale(46.0705 65.8683)">
<stop offset="0.155205" stop-color="#8049F2"/>
<stop offset="1" stop-color="#6D4EAE" stop-opacity="0"/>
</radialGradient>
<radialGradient id="paint2_radial_2356_35561" cx="0" cy="0" r="1" gradientUnits="userSpaceOnUse" gradientTransform="translate(12 -0.0758096) rotate(90) scale(24.1517)">
<stop stop-color="#2E2E2E"/>
<stop offset="1" stop-color="#080808"/>
</radialGradient>
<radialGradient id="paint3_radial_2356_35561" cx="0" cy="0" r="1" gradientUnits="userSpaceOnUse" gradientTransform="translate(23.453 -2.37932) rotate(112.241) scale(46.0705 65.8683)">
<stop offset="0.155205" stop-color="#8049F2"/>
<stop offset="1" stop-color="#6D4EAE" stop-opacity="0"/>
</radialGradient>
<radialGradient id="paint4_radial_2356_35561" cx="0" cy="0" r="1" gradientUnits="userSpaceOnUse" gradientTransform="translate(12 -0.0758096) rotate(90) scale(24.1517)">
<stop stop-color="#2E2E2E"/>
<stop offset="1" stop-color="#080808"/>
</radialGradient>
<radialGradient id="paint5_radial_2356_35561" cx="0" cy="0" r="1" gradientUnits="userSpaceOnUse" gradientTransform="translate(23.453 -2.37932) rotate(112.241) scale(46.0705 65.8683)">
<stop offset="0.155205" stop-color="#8049F2"/>
<stop offset="1" stop-color="#6D4EAE" stop-opacity="0"/>
</radialGradient>
<clipPath id="clip0_2356_35561">
<rect width="24" height="24" rx="12" fill="white"/>
</clipPath>
</defs>
</svg>
