<svg width="140" height="32" viewBox="0 0 140 32" fill="none" xmlns="http://www.w3.org/2000/svg">
<path d="M30.3707 1.65869H32.8295V8.71281H34.4308V1.65869H36.8907V0.243066H30.3707V1.65869ZM51.2066 2.7843C51.3922 3.29443 51.4851 3.80977 51.4851 4.3272V4.58174C51.4851 5.05326 51.3943 5.54253 51.2118 6.04952C51.0303 6.55652 50.7569 7.02804 50.3939 7.46514C50.0308 7.90225 49.5687 8.25589 49.0075 8.52608C48.4462 8.79627 47.7869 8.93188 47.0285 8.93188C46.2701 8.93188 45.5993 8.79627 45.0391 8.52608C44.4789 8.25589 44.0137 7.90225 43.6475 7.46514C43.2803 7.02804 43.007 6.55652 42.8297 6.04952C42.6513 5.54253 42.5626 5.05431 42.5626 4.58174V4.3272C42.5626 3.80873 42.6554 3.29443 42.8411 2.7843C43.0268 2.27418 43.3053 1.80787 43.6767 1.38641C44.0481 0.964961 44.5123 0.628007 45.0694 0.377639C45.6265 0.126227 46.2795 0 47.0296 0C47.7796 0 48.4201 0.126227 48.973 0.377639C49.5259 0.62905 49.9902 0.964961 50.3657 1.38641C50.7402 1.80787 51.0209 2.27418 51.2066 2.7843ZM49.8608 4.46699C49.8608 4.04136 49.7951 3.64912 49.6637 3.28921C49.5322 2.92931 49.3423 2.61426 49.0951 2.34407C48.8479 2.07284 48.5495 1.8642 48.2021 1.71711C47.8537 1.57002 47.4635 1.49699 47.0296 1.49699C46.5956 1.49699 46.1929 1.57106 45.8403 1.71711C45.4888 1.8642 45.1883 2.07284 44.9411 2.34407C44.6938 2.61426 44.5061 2.92931 44.3788 3.28921C44.2515 3.64912 44.1868 4.04136 44.1868 4.46699C44.1868 4.86862 44.2505 5.24834 44.3788 5.60407C44.5061 5.95981 44.6938 6.27694 44.9411 6.55547C45.1883 6.83401 45.4888 7.04995 45.8403 7.20539C46.1919 7.36082 46.5883 7.43802 47.0296 7.43802C47.4708 7.43802 47.8558 7.36082 48.2073 7.20539C48.5589 7.05099 48.8583 6.83401 49.1066 6.55547C49.3538 6.27694 49.5416 5.95981 49.6689 5.60407C49.7961 5.24834 49.8608 4.86966 49.8608 4.46699ZM60.3825 7.37856H60.2208L56.6009 0.243066H53.9669V8.71281H55.4639V1.57732H55.6141L59.2455 8.71281H61.891V0.243066H60.3825V7.37856ZM5.91077 4.95938C6.16219 5.27234 6.28841 5.69588 6.28841 6.22999V6.39273C6.28841 6.89556 6.17783 7.32536 5.95772 7.68004C5.7376 8.03578 5.41004 8.30701 4.97711 8.4927C4.54418 8.67839 4.00589 8.77123 3.36432 8.77123H0V0.18569H3.01589C3.97564 0.18569 4.7017 0.387027 5.19722 0.78866C5.6917 1.19029 5.93998 1.76718 5.93998 2.51724V2.67998C5.93998 3.20576 5.81375 3.62512 5.56234 3.93913C5.42672 4.10708 5.26295 4.24791 5.07413 4.36371C5.41838 4.50141 5.699 4.69753 5.91077 4.96042V4.95938ZM1.57732 1.48447V3.81707H3.16715C3.57713 3.81707 3.87653 3.71066 4.06639 3.49785C4.25625 3.28504 4.35119 3.00442 4.35119 2.65703C4.35119 2.30965 4.25625 2.01651 4.06639 1.80369C3.87757 1.59088 3.57713 1.48447 3.16715 1.48447H1.57732ZM4.69857 6.26442C4.69857 5.88574 4.59634 5.59156 4.39083 5.38292C4.18532 5.17428 3.88174 5.06996 3.48011 5.06996H1.57732V7.4714H3.48011C3.87444 7.4714 4.17593 7.365 4.38561 7.15218C4.5953 6.93937 4.69857 6.6431 4.69857 6.26442ZM14.4431 5.39439C14.4431 5.81167 14.3659 6.17366 14.2115 6.47932C14.0571 6.78498 13.8287 7.02074 13.5272 7.18661C13.2257 7.35352 12.8585 7.43593 12.4256 7.43593C11.9926 7.43593 11.6129 7.35248 11.3114 7.18661C11.0099 7.02074 10.7815 6.78289 10.6271 6.47306C10.4727 6.16427 10.3955 5.80437 10.3955 5.39439V0.243066H8.78271V5.30155C8.78271 6.03596 8.92354 6.6744 9.20625 7.21582C9.48791 7.75724 9.89788 8.17869 10.4362 8.48018C10.9734 8.78166 11.6369 8.93293 12.4256 8.93293C13.2142 8.93293 13.8777 8.78271 14.4149 8.48018C14.9522 8.17869 15.359 7.75724 15.6334 7.21582C15.9078 6.6744 16.0455 6.03596 16.0455 5.30155V0.243066H14.4442V5.39439H14.4431ZM19.1876 8.71281H20.8004V0.243066H19.1876V8.71281ZM26.1249 0.243066H24.5121V8.71281H29.5591V7.29719H26.1249V0.243066Z" fill="#101114"/>
<path d="M4.24478 17.1864H7.44637V19.2112H4.24478V23.8608C4.24478 24.3761 4.37936 24.7704 4.64955 25.0469C4.91973 25.3233 5.31198 25.4621 5.82628 25.4621H7.44637V27.8155H5.94207C4.95207 27.8155 4.14151 27.6904 3.51141 27.4389C2.88132 27.1886 2.41501 26.7609 2.11248 26.1558C1.80995 25.5518 1.65869 24.735 1.65869 23.7053V19.2102H0V17.1853H1.65869V14.2529H4.24374V17.1853L4.24478 17.1864ZM15.0471 16.8588H14.9313C14.1208 16.8588 13.4479 17.0518 12.9148 17.4378C12.4151 17.7987 12.0354 18.3193 11.7673 18.9838V13.5978H9.00908V27.681H11.7673V21.6231C11.7673 20.9419 11.9634 20.3921 12.3557 19.9738C12.7479 19.5565 13.2653 19.3468 13.909 19.3468C14.5141 19.3468 15.0023 19.5367 15.3757 19.9154C15.7482 20.2951 15.9349 20.8063 15.9349 21.4489V27.6799H18.6931V21.6993C18.6931 20.1303 18.3843 18.9306 17.7668 18.1012C17.1492 17.2719 16.2426 16.8567 15.0471 16.8567V16.8588ZM30.0369 19.5304C30.4354 20.3347 30.6346 21.1996 30.6346 22.1249V23.1274H22.7877C22.8336 23.5092 22.916 23.8628 23.0433 24.1789C23.2425 24.6745 23.5513 25.0636 23.9696 25.3463C24.3879 25.629 24.9179 25.7709 25.5615 25.7709C26.2052 25.7709 26.7247 25.6425 27.1243 25.3849C27.5228 25.1282 27.7804 24.8195 27.8962 24.4585H30.4427C30.2883 25.1658 29.992 25.7928 29.5549 26.3394C29.1178 26.886 28.5618 27.3075 27.8858 27.6027C27.2108 27.8979 26.4357 28.0461 25.5615 28.0461C24.6873 28.0461 23.8736 27.8917 23.1987 27.5829C22.5227 27.2741 21.9604 26.8589 21.5108 26.3384C21.0612 25.8178 20.7232 25.2357 20.4979 24.592C20.2725 23.9484 20.1609 23.2933 20.1609 22.6246V22.2386C20.1609 21.5438 20.2725 20.8751 20.4979 20.2325C20.7232 19.5899 21.058 19.0109 21.5014 18.4966C21.9448 17.9823 22.4977 17.5744 23.1611 17.2719C23.8236 16.9704 24.5851 16.8181 25.4468 16.8181C26.5776 16.8181 27.5269 17.0695 28.2926 17.5713C29.0573 18.0731 29.6394 18.7261 30.039 19.5294L30.0369 19.5304ZM23.0537 20.6498C22.9535 20.8908 22.8784 21.1589 22.8273 21.4499H27.9912C27.9432 21.1297 27.8691 20.8344 27.7617 20.5726C27.5687 20.1032 27.2797 19.7401 26.8937 19.4824C26.5077 19.2248 26.0258 19.0965 25.4468 19.0965C24.8678 19.0965 24.3765 19.231 23.9707 19.5023C23.5649 19.7725 23.2602 20.1553 23.0547 20.6498H23.0537ZM43.9459 20.003C43.1864 19.6556 42.2997 19.4365 41.2836 19.3468L40.0871 19.2509C39.3923 19.1862 38.8916 18.9932 38.5828 18.6719C38.274 18.3506 38.1196 17.9771 38.1196 17.5536C38.1196 17.2062 38.2062 16.8849 38.3794 16.5886C38.5536 16.2934 38.8133 16.0555 39.1607 15.8751C39.5081 15.6956 39.9452 15.6049 40.472 15.6049C40.9988 15.6049 41.4818 15.704 41.8417 15.9043C42.2016 16.1035 42.4718 16.3643 42.6523 16.6856C42.8328 17.0069 42.9225 17.3554 42.9225 17.7278H45.6818C45.6818 16.815 45.4721 16.0169 45.0548 15.3357C44.6365 14.6535 44.0387 14.1267 43.2605 13.7532C42.4823 13.3808 41.5528 13.194 40.472 13.194C39.3913 13.194 38.5463 13.3703 37.7806 13.725C37.0148 14.0787 36.4171 14.5804 35.9863 15.2293C35.5544 15.8792 35.3395 16.6543 35.3395 17.5546C35.3395 18.7637 35.7453 19.7349 36.5548 20.4672C37.3654 21.2006 38.4513 21.6241 39.8148 21.741L41.0113 21.837C41.8991 21.9141 42.5511 22.1009 42.9694 22.3961C43.3878 22.6924 43.5964 23.0846 43.5964 23.5728C43.5964 23.9588 43.4869 24.3062 43.2688 24.615C43.0498 24.9238 42.7222 25.171 42.2851 25.3578C41.847 25.5445 41.3014 25.6373 40.6452 25.6373C39.9118 25.6373 39.3235 25.532 38.8801 25.3192C38.4367 25.1063 38.1112 24.8299 37.9057 24.4898C37.7002 24.1497 37.597 23.7857 37.597 23.3997H34.8387C34.8387 24.2999 35.0641 25.1011 35.5147 25.8022C35.9643 26.5032 36.6205 27.053 37.4822 27.4515C38.3439 27.85 39.3986 28.0492 40.6462 28.0492C41.8157 28.0492 42.8286 27.8625 43.6851 27.4901C44.5405 27.1176 45.1998 26.5929 45.6619 25.918C46.1251 25.242 46.3567 24.4616 46.3567 23.5739C46.3567 22.6861 46.1449 22.0049 45.7204 21.4134C45.2958 20.8219 44.7043 20.3525 43.9459 20.0051V20.003ZM54.4603 23.3788C54.4603 24.035 54.2704 24.5555 53.8907 24.9415C53.511 25.3275 53.0134 25.5205 52.3958 25.5205C51.7782 25.5205 51.3307 25.3379 50.977 24.9707C50.6234 24.6046 50.4471 24.1059 50.4471 23.4758V17.1874H47.6889V23.2641C47.6889 24.8466 48.0164 26.0327 48.6726 26.8235C49.3288 27.6142 50.2677 28.0096 51.4893 28.0096H51.6051C52.4156 28.0096 53.0874 27.8333 53.6205 27.4786C54.1546 27.1249 54.5594 26.5939 54.8358 25.8867C54.9162 25.6811 54.9819 25.4548 55.0382 25.218V27.681H57.2185V17.1864H54.4603V23.3788ZM70.4244 20.1084C70.6497 20.7583 70.7624 21.4624 70.7624 22.2208V22.6256C70.7624 23.3851 70.6529 24.0924 70.4338 24.7475C70.2147 25.4037 69.8903 25.9753 69.4594 26.4646C69.0286 26.9539 68.5143 27.3357 67.9165 27.6121C67.3177 27.8886 66.6397 28.0273 65.8813 28.0273C65.1228 28.0273 64.379 27.8635 63.7302 27.5349C63.1773 27.2564 62.7214 26.8391 62.3511 26.2998V31.5387H59.5928V17.1853H61.7731V19.8319C61.8681 19.543 61.9755 19.2665 62.1101 19.0182C62.5023 18.2984 63.026 17.758 63.6832 17.3981C64.3394 17.0382 65.0717 16.8578 65.8823 16.8578C66.6282 16.8578 67.301 16.9955 67.8978 17.2719C68.4966 17.5484 69.0098 17.9281 69.4417 18.41C69.8725 18.892 70.2001 19.4585 70.4254 20.1073L70.4244 20.1084ZM68.0031 22.4149C68.0031 21.7712 67.8842 21.2089 67.6464 20.727C67.4075 20.244 67.0768 19.8684 66.6522 19.5982C66.2276 19.3281 65.7331 19.1924 65.1667 19.1924C64.6524 19.1924 64.1756 19.3051 63.7385 19.5304C63.3014 19.7558 62.9478 20.0896 62.6776 20.534C62.4074 20.9774 62.2728 21.5083 62.2728 22.1259V22.8781C62.2728 23.4696 62.4105 23.9776 62.687 24.4022C62.9634 24.8268 63.3244 25.1512 63.7677 25.3765C64.2111 25.6019 64.6774 25.7135 65.1667 25.7135C65.7321 25.7135 66.2276 25.5727 66.6522 25.2889C67.0768 25.0062 67.4075 24.6171 67.6464 24.1216C67.8842 23.6271 68.0031 23.0575 68.0031 22.4138V22.4149ZM81.5846 19.5304C81.9831 20.3347 82.1823 21.1996 82.1823 22.1249V23.1274H74.3354C74.3813 23.5092 74.4637 23.8628 74.5909 24.1789C74.7902 24.6745 75.099 25.0636 75.5173 25.3463C75.9356 25.629 76.4656 25.7709 77.1092 25.7709C77.7529 25.7709 78.2724 25.6425 78.6719 25.3849C79.0704 25.1282 79.3281 24.8195 79.4439 24.4585H81.9904C81.836 25.1658 81.5397 25.7928 81.1026 26.3394C80.6655 26.886 80.1095 27.3075 79.4335 27.6027C78.7585 27.8979 77.9834 28.0461 77.1092 28.0461C76.235 28.0461 75.4213 27.8917 74.7464 27.5829C74.0704 27.2741 73.5081 26.8589 73.0585 26.3384C72.6089 25.8178 72.2709 25.2357 72.0455 24.592C71.8202 23.9484 71.7086 23.2933 71.7086 22.6246V22.2386C71.7086 21.5438 71.8202 20.8751 72.0455 20.2325C72.2709 19.5899 72.6057 19.0109 73.0491 18.4966C73.4924 17.9823 74.0453 17.5744 74.7088 17.2719C75.3713 16.9704 76.1328 16.8181 76.9945 16.8181C78.1253 16.8181 79.0746 17.0695 79.8403 17.5713C80.605 18.0731 81.1871 18.7261 81.5866 19.5294L81.5846 19.5304ZM74.6003 20.6498C74.5002 20.8908 74.4251 21.1589 74.374 21.4499H79.5378C79.4898 21.1297 79.4157 20.8344 79.3083 20.5726C79.1153 20.1032 78.8263 19.7401 78.4403 19.4824C78.0544 19.2248 77.5724 19.0965 76.9934 19.0965C76.4145 19.0965 75.9231 19.231 75.5173 19.5023C75.1115 19.7725 74.8069 20.1553 74.6014 20.6498H74.6003ZM86.7933 18.2275C86.3061 18.8221 86.0046 19.6212 85.8867 20.6216V17.1864H83.7064V27.681H86.4657V22.2407C86.4657 21.3404 86.7098 20.6519 87.1991 20.1762C87.6873 19.7005 88.3758 19.4626 89.2636 19.4626H90.0157V17.0507H89.6109C88.3758 17.0507 87.438 17.443 86.7943 18.2275H86.7933ZM97.6352 24.7485C97.4422 25.0312 97.1825 25.2566 96.8539 25.4235C96.5263 25.5904 96.1309 25.6738 95.6678 25.6738C95.0627 25.6738 94.5714 25.5361 94.1916 25.2586C93.8119 24.9822 93.5323 24.5962 93.3519 24.1017C93.1714 23.6073 93.0817 23.0575 93.0817 22.4524C93.0817 21.8088 93.1787 21.2465 93.3717 20.7645C93.5647 20.2815 93.8505 19.8997 94.2302 19.617C94.6089 19.3343 95.0815 19.1924 95.6479 19.1924C96.3302 19.1924 96.857 19.3729 97.2305 19.7328C97.6039 20.0927 97.822 20.5371 97.8867 21.0639H100.587C100.536 20.2148 100.291 19.472 99.8541 18.8357C99.417 18.1993 98.838 17.7038 98.1182 17.3501C97.3974 16.9965 96.5743 16.8192 95.6479 16.8192C94.7737 16.8192 94.0049 16.9704 93.3425 17.2729C92.68 17.5755 92.124 17.9802 91.6734 18.4883C91.2227 18.9963 90.8857 19.5784 90.6604 20.2346C90.4351 20.8908 90.3224 21.572 90.3224 22.2793V22.6454C90.3224 23.3141 90.4319 23.9703 90.651 24.6129C90.869 25.2566 91.2008 25.8376 91.6441 26.3592C92.0885 26.8798 92.6446 27.2918 93.3133 27.5933C93.982 27.8959 94.7664 28.0471 95.6678 28.0471C96.5691 28.0471 97.4422 27.8667 98.1756 27.5067C98.909 27.1468 99.4974 26.6451 99.9407 26.0014C100.384 25.3588 100.625 24.6129 100.664 23.7637H97.9826C97.944 24.1372 97.8282 24.4648 97.6352 24.7475V24.7485ZM108.149 16.8588H108.033C107.222 16.8588 106.55 17.0518 106.016 17.4378C105.517 17.7987 105.138 18.3182 104.869 18.9838V13.5988H102.111V27.682H104.869V21.6241C104.869 20.9429 105.064 20.3932 105.457 19.9748C105.849 19.5576 106.367 19.3479 107.01 19.3479C107.615 19.3479 108.103 19.5377 108.476 19.9164C108.85 20.2961 109.036 20.8073 109.036 21.4499V27.681H111.795V21.7003C111.795 20.1313 111.486 18.9316 110.868 18.1023C110.251 17.2729 109.344 16.8578 108.148 16.8578L108.149 16.8588ZM121.933 18.8169C122.3 19.4282 122.483 20.2221 122.483 21.1996V27.682H120.303V25.6592C120.218 25.9315 120.114 26.184 119.985 26.4093C119.696 26.9111 119.296 27.2939 118.789 27.5568C118.28 27.8208 117.661 27.9522 116.928 27.9522C116.196 27.9522 115.503 27.8176 114.932 27.5474C114.359 27.2772 113.915 26.8913 113.6 26.3895C113.285 25.8877 113.128 25.2837 113.128 24.5764C113.128 23.8044 113.318 23.1743 113.697 22.6861C114.076 22.1979 114.613 21.8307 115.308 21.5866C116.003 21.3425 116.813 21.2204 117.74 21.2204H119.843V21.1432C119.843 20.5517 119.698 20.1084 119.409 19.8121C119.12 19.5169 118.672 19.3687 118.068 19.3687C117.76 19.3687 117.38 19.375 116.93 19.3875C116.48 19.4 116.02 19.4167 115.55 19.4355C115.081 19.4543 114.665 19.4772 114.306 19.5033V17.1686C114.602 17.1425 114.936 17.1175 115.308 17.0914C115.682 17.0654 116.071 17.0497 116.475 17.0434C116.881 17.0372 117.257 17.0341 117.604 17.0341C118.685 17.0341 119.585 17.178 120.305 17.468C121.025 17.757 121.568 18.2077 121.936 18.819L121.933 18.8169ZM119.492 25.1157C119.698 24.7944 119.814 24.3573 119.84 23.8034V22.8395H117.717C117.112 22.8395 116.65 22.9876 116.328 23.2828C116.007 23.5791 115.846 23.9651 115.846 24.4408C115.846 24.9165 116.007 25.2806 116.328 25.5695C116.65 25.8585 117.113 26.0035 117.717 26.0035C118.077 26.0035 118.412 25.9367 118.72 25.8011C119.029 25.6665 119.286 25.4381 119.492 25.1157ZM123.679 17.1864V19.2509H125.145V27.681H127.904V17.1864H123.679ZM126.168 15.971C126.695 15.971 127.087 15.8333 127.344 15.5558C127.601 15.2794 127.729 14.9226 127.729 14.4855C127.729 14.0484 127.601 13.6906 127.344 13.4152C127.087 13.1387 126.694 13 126.168 13C125.642 13 125.229 13.1377 124.971 13.4152C124.714 13.6916 124.585 14.0484 124.585 14.4855C124.585 14.9226 124.714 15.2794 124.971 15.5558C125.228 15.8323 125.627 15.971 126.168 15.971ZM138.996 18.0647C138.352 17.2604 137.407 16.8588 136.161 16.8588H136.045C135.208 16.8588 134.51 17.0382 133.951 17.3992C133.392 17.7591 132.971 18.2995 132.688 19.0193C132.593 19.2613 132.52 19.5294 132.456 19.81V17.1874H130.276V27.682H133.034V21.5282C133.034 20.872 133.23 20.3452 133.623 19.9467C134.015 19.5482 134.532 19.3489 135.176 19.3489C135.82 19.3489 136.3 19.5419 136.661 19.9279C137.021 20.3139 137.202 20.8219 137.202 21.452V27.683H139.96V21.6836C139.96 20.076 139.639 18.8701 138.996 18.0668V18.0647Z" fill="#101114"/>
</svg>
