<svg width="105" height="32" viewBox="0 0 105 32" fill="none" xmlns="http://www.w3.org/2000/svg">
<path d="M73.4441 8.10153V4.56981L70.7578 0.128418H72.4167L74.4715 3.59592H73.8829L75.927 0.128418H77.5859L74.9103 4.55911V8.10153H73.4441Z" fill="#101114"/>
<path d="M63.2578 8.10153V0.128418H66.6183C67.1463 0.128418 67.5958 0.22117 67.9668 0.406674C68.345 0.585044 68.6339 0.841896 68.8337 1.17723C69.0406 1.50543 69.1441 1.90498 69.1441 2.37587C69.1441 2.73975 69.0442 3.08221 68.8444 3.40328C68.6518 3.71721 68.3414 3.97763 67.9133 4.18454V3.5103C68.3057 3.66013 68.6161 3.84564 68.8444 4.06681C69.0727 4.28799 69.2333 4.53414 69.326 4.80526C69.4188 5.07638 69.4651 5.36177 69.4651 5.66144C69.4651 6.42486 69.2119 7.02418 68.7053 7.4594C68.2058 7.88748 67.5102 8.10153 66.6183 8.10153H63.2578ZM64.7133 6.81727H66.7682C67.1463 6.81727 67.446 6.71381 67.6672 6.50691C67.8955 6.29286 68.0096 6.01104 68.0096 5.66144C68.0096 5.31183 67.8955 5.03001 67.6672 4.81596C67.446 4.60192 67.1463 4.4949 66.7682 4.4949H64.7133V6.81727ZM64.7133 3.22134H66.6932C66.9929 3.22134 67.2319 3.13573 67.4103 2.96449C67.5887 2.78612 67.6779 2.55781 67.6779 2.27955C67.6779 2.0013 67.5887 1.78012 67.4103 1.61602C67.2319 1.45192 66.9929 1.36987 66.6932 1.36987H64.7133V3.22134Z" fill="#101114"/>
<path d="M51.0781 8.10153V0.128418H53.6788C54.5207 0.128418 55.252 0.299652 55.8728 0.642122C56.5006 0.977456 56.9858 1.44478 57.3283 2.0441C57.6707 2.63629 57.842 3.3248 57.842 4.10962C57.842 4.88731 57.6707 5.57939 57.3283 6.18584C56.9858 6.78516 56.5006 7.25606 55.8728 7.59853C55.252 7.93386 54.5207 8.10153 53.6788 8.10153H51.0781ZM52.5336 6.81727H53.7109C54.2531 6.81727 54.7205 6.70668 55.1129 6.4855C55.5124 6.25719 55.8228 5.94326 56.044 5.54371C56.2652 5.13703 56.3758 4.659 56.3758 4.10962C56.3758 3.55311 56.2652 3.07508 56.044 2.67553C55.8228 2.27598 55.5124 1.96562 55.1129 1.74444C54.7205 1.52327 54.2531 1.41268 53.7109 1.41268H52.5336V6.81727Z" fill="#101114"/>
<path d="M43.5391 8.10153V0.128418H48.8367V1.41268H44.9946V3.45679H48.6226V4.74105H44.9946V6.81727H48.8367V8.10153H43.5391Z" fill="#101114"/>
<path d="M35.2891 8.10153V0.128418H38.2536C38.7958 0.128418 39.2739 0.228305 39.6877 0.428079C40.1087 0.620717 40.4369 0.906108 40.6723 1.28425C40.9078 1.65526 41.0255 2.10832 41.0255 2.64343C41.0255 3.1928 40.8935 3.66013 40.6295 4.04541C40.3726 4.43069 40.023 4.71608 39.5807 4.90158L41.4108 8.10153H39.7626L37.8041 4.60192L38.7459 5.15843H36.7446V8.10153H35.2891ZM36.7446 3.87417H38.275C38.539 3.87417 38.7673 3.82423 38.9599 3.72434C39.1526 3.61732 39.3024 3.47106 39.4094 3.28556C39.5165 3.10005 39.57 2.88601 39.57 2.64343C39.57 2.39371 39.5165 2.17967 39.4094 2.0013C39.3024 1.81579 39.1526 1.6731 38.9599 1.57321C38.7673 1.46619 38.539 1.41268 38.275 1.41268H36.7446V3.87417Z" fill="#101114"/>
<path d="M29.5009 8.22995C28.8873 8.22995 28.3415 8.10153 27.8635 7.84468C27.3926 7.58782 27.0216 7.23465 26.7504 6.78516C26.4793 6.33567 26.3438 5.82553 26.3438 5.25475V0.128418H27.7993V5.17984C27.7993 5.50804 27.8706 5.80413 28.0133 6.06812C28.1631 6.3321 28.3665 6.53901 28.6233 6.68884C28.8802 6.83154 29.1727 6.90289 29.5009 6.90289C29.8363 6.90289 30.1288 6.83154 30.3785 6.68884C30.6354 6.53901 30.8351 6.3321 30.9778 6.06812C31.1277 5.80413 31.2026 5.50804 31.2026 5.17984V0.128418H32.6581V5.25475C32.6581 5.82553 32.5225 6.33567 32.2514 6.78516C31.9803 7.23465 31.6057 7.58782 31.1277 7.84468C30.6568 8.10153 30.1145 8.22995 29.5009 8.22995Z" fill="#101114"/>
<path d="M20.7078 8.22996C20.137 8.22996 19.609 8.12651 19.1239 7.9196C18.6458 7.71269 18.2249 7.42373 17.861 7.05272C17.5043 6.68172 17.226 6.24649 17.0262 5.74706C16.8265 5.24763 16.7266 4.70182 16.7266 4.10963C16.7266 3.51744 16.8229 2.97163 17.0155 2.4722C17.2153 1.96563 17.4936 1.53041 17.8503 1.16654C18.2142 0.795527 18.6387 0.510136 19.1239 0.310362C19.609 0.103454 20.137 0 20.7078 0C21.2786 0 21.7887 0.0963195 22.2382 0.288958C22.6949 0.481597 23.0802 0.738449 23.3941 1.05951C23.708 1.37344 23.9328 1.71948 24.0683 2.09762L22.7626 2.70765C22.6128 2.3081 22.3595 1.9799 22.0028 1.72305C21.646 1.45906 21.2144 1.32707 20.7078 1.32707C20.2084 1.32707 19.766 1.44479 19.3807 1.68024C19.0026 1.91569 18.7065 2.24032 18.4924 2.65414C18.2855 3.06795 18.1821 3.55312 18.1821 4.10963C18.1821 4.66614 18.2855 5.15487 18.4924 5.57583C18.7065 5.98964 19.0026 6.31428 19.3807 6.54972C19.766 6.78517 20.2084 6.90289 20.7078 6.90289C21.2144 6.90289 21.646 6.77447 22.0028 6.51762C22.3595 6.25363 22.6128 5.92186 22.7626 5.52231L24.0683 6.13234C23.9328 6.51048 23.708 6.86009 23.3941 7.18115C23.0802 7.49508 22.6949 7.74836 22.2382 7.941C21.7887 8.13364 21.2786 8.22996 20.7078 8.22996Z" fill="#101114"/>
<path d="M9.42188 8.10159V0.128479H14.7195V1.41274H10.8774V3.45685H14.5055V4.74111H10.8774V6.81733H14.7195V8.10159H9.42188Z" fill="#101114"/>
<path d="M4.16092 8.22996C3.65435 8.22996 3.18345 8.13721 2.74822 7.95171C2.32013 7.7662 1.94912 7.50935 1.63518 7.18115C1.32838 6.84582 1.10363 6.45697 0.960938 6.01461L2.1703 5.49021C2.36294 5.94683 2.6412 6.30714 3.00507 6.57113C3.36895 6.82798 3.77921 6.9564 4.23584 6.9564C4.49269 6.9564 4.71387 6.91716 4.89938 6.83868C5.09202 6.75306 5.23828 6.63891 5.33817 6.49621C5.44519 6.35352 5.49871 6.18228 5.49871 5.98251C5.49871 5.74706 5.42736 5.55442 5.28466 5.40459C5.1491 5.24763 4.94219 5.12633 4.66393 5.04072L3.1335 4.54842C2.51277 4.35578 2.04544 4.06682 1.7315 3.68154C1.41757 3.29627 1.2606 2.84321 1.2606 2.32237C1.2606 1.86574 1.37119 1.46263 1.59237 1.11302C1.82069 0.763421 2.13462 0.4923 2.53417 0.299661C2.94086 0.099887 3.40463 0 3.92547 0C4.40351 0 4.8423 0.0856172 5.24185 0.256852C5.6414 0.420952 5.98388 0.652831 6.26927 0.952492C6.5618 1.24502 6.77941 1.59105 6.92211 1.9906L5.72345 2.52571C5.56649 2.12616 5.33104 1.81937 5.0171 1.60532C4.70317 1.38415 4.33929 1.27356 3.92547 1.27356C3.68289 1.27356 3.46884 1.31637 3.28333 1.40198C3.09783 1.48047 2.95156 1.59462 2.84454 1.74445C2.74465 1.88715 2.69471 2.05838 2.69471 2.25816C2.69471 2.47933 2.76606 2.67554 2.90875 2.84677C3.05145 3.01087 3.26906 3.1393 3.56159 3.23205L5.02781 3.69225C5.66281 3.89915 6.13728 4.18454 6.45121 4.54842C6.77228 4.91229 6.93281 5.36178 6.93281 5.89689C6.93281 6.35352 6.81509 6.75663 6.57964 7.10623C6.34419 7.45584 6.01955 7.73053 5.60573 7.9303C5.19191 8.13007 4.7103 8.22996 4.16092 8.22996Z" fill="#101114"/>
<path d="M88.8047 27.3831V17.0471H91.1417V19.4411L90.8757 19.0421C91.0657 18.2948 91.4457 17.7374 92.0157 17.3701C92.5857 17.0028 93.257 16.8191 94.0297 16.8191C94.8784 16.8191 95.6257 17.0408 96.2717 17.4841C96.9177 17.9274 97.3357 18.5101 97.5257 19.2321L96.8227 19.2891C97.1394 18.4658 97.6144 17.8514 98.2477 17.4461C98.881 17.0281 99.6094 16.8191 100.433 16.8191C101.167 16.8191 101.82 16.9838 102.39 17.3131C102.972 17.6424 103.428 18.1048 103.758 18.7001C104.087 19.2828 104.252 19.9604 104.252 20.7331V27.3831H101.763V21.3221C101.763 20.8661 101.68 20.4734 101.516 20.1441C101.351 19.8148 101.123 19.5614 100.832 19.3841C100.54 19.1941 100.186 19.0991 99.7677 19.0991C99.375 19.0991 99.0267 19.1941 98.7227 19.3841C98.4187 19.5614 98.1844 19.8148 98.0197 20.1441C97.855 20.4734 97.7727 20.8661 97.7727 21.3221V27.3831H95.2837V21.3221C95.2837 20.8661 95.2014 20.4734 95.0367 20.1441C94.872 19.8148 94.6377 19.5614 94.3337 19.3841C94.0424 19.1941 93.694 19.0991 93.2887 19.0991C92.896 19.0991 92.5477 19.1941 92.2437 19.3841C91.9397 19.5614 91.7054 19.8148 91.5407 20.1441C91.376 20.4734 91.2937 20.8661 91.2937 21.3221V27.3831H88.8047Z" fill="#101114"/>
<path d="M81.2309 27.611C80.4329 27.611 79.7363 27.4337 79.1409 27.079C78.5583 26.7243 78.1086 26.2303 77.7919 25.597C77.4879 24.9637 77.3359 24.2227 77.3359 23.374V17.047H79.8249V23.165C79.8249 23.5957 79.9073 23.9757 80.0719 24.305C80.2493 24.6217 80.4963 24.875 80.8129 25.065C81.1423 25.2423 81.5096 25.331 81.9149 25.331C82.3203 25.331 82.6813 25.2423 82.9979 25.065C83.3146 24.875 83.5616 24.6153 83.7389 24.286C83.9163 23.9567 84.0049 23.564 84.0049 23.108V17.047H86.4939V27.383H84.1379V25.35L84.3469 25.711C84.1063 26.3443 83.7073 26.8193 83.1499 27.136C82.6053 27.4527 81.9656 27.611 81.2309 27.611Z" fill="#101114"/>
<path d="M70.8122 27.6111C69.7482 27.6111 68.8172 27.3704 68.0192 26.8891C67.2212 26.4078 66.6005 25.7554 66.1572 24.9321C65.7139 24.1088 65.4922 23.1968 65.4922 22.1961C65.4922 21.1574 65.7139 20.2391 66.1572 19.4411C66.6132 18.6304 67.2275 17.9908 68.0002 17.5221C68.7855 17.0534 69.6595 16.8191 70.6222 16.8191C71.4329 16.8191 72.1422 16.9521 72.7502 17.2181C73.3709 17.4841 73.8965 17.8514 74.3272 18.3201C74.7579 18.7888 75.0872 19.3271 75.3152 19.9351C75.5432 20.5304 75.6572 21.1764 75.6572 21.8731C75.6572 22.0504 75.6445 22.2341 75.6192 22.4241C75.6065 22.6141 75.5749 22.7788 75.5242 22.9181H67.5442V21.0181H74.1182L72.9402 21.9111C73.0542 21.3284 73.0225 20.8091 72.8452 20.3531C72.6805 19.8971 72.4019 19.5361 72.0092 19.2701C71.6292 19.0041 71.1669 18.8711 70.6222 18.8711C70.1029 18.8711 69.6405 19.0041 69.2352 19.2701C68.8299 19.5234 68.5195 19.9034 68.3042 20.4101C68.1015 20.9041 68.0255 21.5058 68.0762 22.2151C68.0255 22.8484 68.1079 23.4121 68.3232 23.9061C68.5512 24.3874 68.8805 24.7611 69.3112 25.0271C69.7545 25.2931 70.2612 25.4261 70.8312 25.4261C71.4012 25.4261 71.8825 25.3058 72.2752 25.0651C72.6805 24.8244 72.9972 24.5014 73.2252 24.0961L75.2392 25.0841C75.0365 25.5781 74.7199 26.0151 74.2892 26.3951C73.8585 26.7751 73.3455 27.0728 72.7502 27.2881C72.1675 27.5034 71.5215 27.6111 70.8122 27.6111Z" fill="#101114"/>
<path d="M58.8047 27.3831V17.0471H61.1417V19.3461L60.9517 19.0041C61.1924 18.2314 61.566 17.6931 62.0727 17.3891C62.592 17.0851 63.2127 16.9331 63.9347 16.9331H64.5427V19.1371H63.6497C62.9404 19.1371 62.3704 19.3588 61.9397 19.8021C61.509 20.2328 61.2937 20.8408 61.2937 21.6261V27.3831H58.8047Z" fill="#101114"/>
<path d="M52.07 27.6111C51.006 27.6111 50.075 27.3704 49.277 26.8891C48.479 26.4078 47.8583 25.7554 47.415 24.9321C46.9717 24.1088 46.75 23.1968 46.75 22.1961C46.75 21.1574 46.9717 20.2391 47.415 19.4411C47.871 18.6304 48.4853 17.9908 49.258 17.5221C50.0433 17.0534 50.9173 16.8191 51.88 16.8191C52.6907 16.8191 53.4 16.9521 54.008 17.2181C54.6287 17.4841 55.1543 17.8514 55.585 18.3201C56.0157 18.7888 56.345 19.3271 56.573 19.9351C56.801 20.5304 56.915 21.1764 56.915 21.8731C56.915 22.0504 56.9023 22.2341 56.877 22.4241C56.8643 22.6141 56.8327 22.7788 56.782 22.9181H48.802V21.0181H55.376L54.198 21.9111C54.312 21.3284 54.2803 20.8091 54.103 20.3531C53.9383 19.8971 53.6597 19.5361 53.267 19.2701C52.887 19.0041 52.4247 18.8711 51.88 18.8711C51.3607 18.8711 50.8983 19.0041 50.493 19.2701C50.0877 19.5234 49.7773 19.9034 49.562 20.4101C49.3593 20.9041 49.2833 21.5058 49.334 22.2151C49.2833 22.8484 49.3657 23.4121 49.581 23.9061C49.809 24.3874 50.1383 24.7611 50.569 25.0271C51.0123 25.2931 51.519 25.4261 52.089 25.4261C52.659 25.4261 53.1403 25.3058 53.533 25.0651C53.9383 24.8244 54.255 24.5014 54.483 24.0961L56.497 25.0841C56.2943 25.5781 55.9777 26.0151 55.547 26.3951C55.1163 26.7751 54.6033 27.0728 54.008 27.2881C53.4253 27.5034 52.7793 27.6111 52.07 27.6111Z" fill="#101114"/>
<path d="M35.9062 27.383V13H38.3953V19.08L38.0532 18.719C38.2939 18.0983 38.6866 17.6297 39.2313 17.313C39.7886 16.9837 40.4346 16.819 41.1693 16.819C41.9293 16.819 42.6006 16.9837 43.1833 17.313C43.7786 17.6423 44.2409 18.1047 44.5702 18.7C44.8996 19.2827 45.0643 19.9603 45.0643 20.733V27.383H42.5753V21.322C42.5753 20.866 42.4866 20.4733 42.3092 20.144C42.1319 19.8147 41.8849 19.5613 41.5683 19.384C41.2643 19.194 40.9033 19.099 40.4853 19.099C40.0799 19.099 39.7189 19.194 39.4023 19.384C39.0856 19.5613 38.8386 19.8147 38.6612 20.144C38.4839 20.4733 38.3953 20.866 38.3953 21.322V27.383H35.9062Z" fill="#101114"/>
<path d="M32.7733 27.497C31.608 27.497 30.7023 27.1804 30.0563 26.547C29.423 25.901 29.1063 24.9954 29.1063 23.83V19.27H27.3203V17.047H27.5103C28.017 17.047 28.4096 16.914 28.6883 16.648C28.967 16.382 29.1063 15.9957 29.1063 15.489V14.691H31.5953V17.047H33.9703V19.27H31.5953V23.697C31.5953 24.039 31.6523 24.3304 31.7663 24.571C31.893 24.8117 32.083 24.9954 32.3363 25.122C32.6023 25.2487 32.938 25.312 33.3433 25.312C33.432 25.312 33.5333 25.3057 33.6473 25.293C33.774 25.2804 33.8943 25.2677 34.0083 25.255V27.383C33.831 27.4084 33.6283 27.4337 33.4003 27.459C33.1723 27.4844 32.9633 27.497 32.7733 27.497Z" fill="#101114"/>
<path d="M16.9688 27.383V13.228H26.3738V15.508H19.5528V19.137H25.9938V21.417H19.5528V25.103H26.3738V27.383H16.9688Z" fill="#101114"/>
<path d="M6.80859 12V17.8789L2.0625 19.9492L6.80859 12ZM7.14062 17.8789V12L11.9453 19.9883L7.14062 17.8789ZM6.80859 18.2305V23.25L1.90625 20.3789L6.80859 18.2305ZM12.043 20.3789L7.14062 23.25V18.2305L12.043 20.3789ZM6.80859 24.2656V28.3086L1.94531 21.4141L6.80859 24.2656ZM11.9844 21.4141L7.14062 28.3086V24.2656L11.9844 21.4141Z" fill="#160F1F"/>
</svg>
