<svg width="204" height="18" viewBox="0 0 204 18" fill="none" xmlns="http://www.w3.org/2000/svg">
<path d="M71.5934 4.06471H74.702V6.03072H71.5934V10.5452C71.5934 11.0455 71.7241 11.4284 71.9864 11.6968C72.2488 11.9652 72.6296 12.0999 73.129 12.0999H74.702V14.385H73.2414C72.2802 14.385 71.4931 14.2635 70.8814 14.0194C70.2696 13.7763 69.8168 13.361 69.5231 12.7735C69.2293 12.187 69.0825 11.394 69.0825 10.3942V6.02971H67.472V4.0637H69.0825V1.21749H71.5924V4.06471H71.5934ZM82.0829 3.74667H81.9704C81.1834 3.74667 80.5301 3.93405 80.0125 4.30882C79.5274 4.65928 79.1587 5.16471 78.8984 5.80991V0.580384H76.2203V14.2543H78.8984V8.37252C78.8984 7.7111 79.0888 7.17731 79.4696 6.77114C79.8505 6.36599 80.3529 6.1624 80.9778 6.1624C81.5653 6.1624 82.0393 6.34674 82.4019 6.71442C82.7635 7.08311 82.9448 7.57943 82.9448 8.20336V14.2533H85.6229V8.44646C85.6229 6.92308 85.3231 5.75826 84.7235 4.95301C84.1238 4.14777 83.2436 3.74464 82.0829 3.74464V3.74667ZM96.637 6.34067C97.024 7.1216 97.2174 7.96128 97.2174 8.85971V9.8331H89.5985C89.6431 10.2038 89.7231 10.5472 89.8466 10.8541C90.0401 11.3352 90.3399 11.713 90.7461 11.9875C91.1523 12.262 91.6668 12.3998 92.2918 12.3998C92.9167 12.3998 93.4211 12.2752 93.8091 12.025C94.196 11.7758 94.4462 11.476 94.5586 11.1255H97.0311C96.8811 11.8123 96.5935 12.421 96.1691 12.9518C95.7447 13.4825 95.2048 13.8917 94.5485 14.1784C93.8931 14.465 93.1405 14.6089 92.2918 14.6089C91.443 14.6089 90.6529 14.4589 89.9976 14.1591C89.3412 13.8593 88.7953 13.4562 88.3587 12.9508C87.9212 12.4453 87.594 11.8801 87.3752 11.2552C87.1564 10.6302 87.048 9.99415 87.048 9.34489V8.97012C87.048 8.29554 87.1564 7.64628 87.3752 7.02234C87.594 6.3984 87.9191 5.83625 88.3496 5.3369C88.7801 4.83754 89.3169 4.44151 89.9611 4.14777C90.6043 3.85504 91.3437 3.70716 92.1803 3.70716C93.2783 3.70716 94.2 3.95127 94.9435 4.43847C95.6859 4.92566 96.2511 5.55973 96.6391 6.33965L96.637 6.34067ZM89.8558 7.42749C89.7585 7.66147 89.6856 7.92178 89.636 8.20438H94.6498C94.6032 7.89342 94.5312 7.60677 94.4269 7.35254C94.2395 6.89674 93.959 6.54426 93.5842 6.29407C93.2094 6.04389 92.7415 5.91931 92.1793 5.91931C91.6172 5.91931 91.1401 6.04997 90.7461 6.31332C90.3521 6.57566 90.0563 6.94739 89.8568 7.42749H89.8558ZM110.142 6.7995C109.404 6.46221 108.544 6.24951 107.557 6.1624L106.395 6.06921C105.721 6.00641 105.234 5.81903 104.935 5.50706C104.635 5.19509 104.485 4.83248 104.485 4.42125C104.485 4.08396 104.569 3.77199 104.737 3.48433C104.906 3.19768 105.158 2.96674 105.496 2.79151C105.833 2.6173 106.257 2.52918 106.769 2.52918C107.28 2.52918 107.749 2.6254 108.099 2.81988C108.448 3.01334 108.711 3.26656 108.886 3.57853C109.061 3.8905 109.148 4.2288 109.148 4.5904H111.827C111.827 3.70412 111.624 2.92927 111.219 2.26785C110.812 1.60542 110.232 1.09392 109.476 0.731304C108.721 0.369703 107.818 0.188397 106.769 0.188397C105.72 0.188397 104.899 0.359575 104.156 0.703956C103.412 1.04732 102.832 1.53452 102.414 2.16454C101.994 2.79557 101.786 3.54814 101.786 4.42226C101.786 5.5962 102.18 6.53919 102.966 7.25024C103.753 7.9623 104.807 8.37353 106.131 8.48697L107.293 8.58016C108.155 8.65511 108.788 8.83642 109.194 9.12306C109.6 9.41072 109.803 9.79157 109.803 10.2656C109.803 10.6404 109.696 10.9777 109.484 11.2775C109.272 11.5773 108.954 11.8173 108.529 11.9986C108.104 12.18 107.574 12.2701 106.937 12.2701C106.225 12.2701 105.654 12.1678 105.223 11.9612C104.793 11.7545 104.477 11.4861 104.277 11.1559C104.078 10.8257 103.977 10.4722 103.977 10.0975H101.299C101.299 10.9716 101.518 11.7495 101.956 12.4301C102.392 13.1108 103.029 13.6446 103.866 14.0315C104.703 14.4184 105.727 14.6119 106.938 14.6119C108.074 14.6119 109.057 14.4306 109.889 14.069C110.719 13.7074 111.359 13.1979 111.808 12.5426C112.258 11.8862 112.483 11.1286 112.483 10.2666C112.483 9.40465 112.277 8.74323 111.865 8.16893C111.453 7.59462 110.878 7.13882 110.142 6.80153V6.7995ZM120.351 10.0772C120.351 10.7143 120.166 11.2197 119.798 11.5945C119.429 11.9693 118.946 12.1567 118.346 12.1567C117.747 12.1567 117.312 11.9794 116.969 11.6229C116.625 11.2673 116.454 10.7832 116.454 10.1714V4.06572H113.776V9.96579C113.776 11.5023 114.094 12.654 114.731 13.4218C115.368 14.1895 116.28 14.5734 117.466 14.5734H117.578C118.365 14.5734 119.018 14.4022 119.535 14.0578C120.054 13.7145 120.447 13.1989 120.715 12.5122C120.793 12.3126 120.857 12.0928 120.912 11.8629V14.2543H123.029V4.06471H120.351V10.0772ZM135.851 6.90181C136.07 7.53283 136.179 8.21653 136.179 8.9529V9.3459C136.179 10.0833 136.073 10.77 135.86 11.4061C135.647 12.0432 135.332 12.5983 134.914 13.0733C134.496 13.5484 133.996 13.9191 133.416 14.1875C132.835 14.4559 132.176 14.5906 131.44 14.5906C130.703 14.5906 129.981 14.4316 129.351 14.1125C128.814 13.8421 128.372 13.4369 128.012 12.9133V18H125.334V4.06471H127.451V6.6344C127.543 6.35383 127.648 6.08542 127.778 5.84435C128.159 5.14546 128.668 4.62079 129.306 4.27134C129.943 3.92189 130.654 3.74667 131.441 3.74667C132.165 3.74667 132.818 3.88037 133.398 4.14878C133.979 4.4172 134.477 4.78589 134.897 5.25384C135.315 5.72179 135.633 6.27179 135.852 6.90181H135.851ZM133.5 9.1413C133.5 8.51635 133.385 7.9704 133.154 7.50245C132.922 7.03348 132.601 6.66884 132.188 6.4065C131.776 6.14417 131.296 6.01249 130.746 6.01249C130.247 6.01249 129.784 6.12188 129.359 6.34067C128.935 6.55945 128.592 6.88357 128.329 7.31506C128.067 7.74554 127.936 8.2611 127.936 8.86073V9.59102C127.936 10.1653 128.07 10.6586 128.338 11.0708C128.607 11.4831 128.957 11.7981 129.388 12.0169C129.818 12.2357 130.271 12.344 130.746 12.344C131.295 12.344 131.776 12.2073 132.188 11.9318C132.601 11.6573 132.922 11.2795 133.154 10.7984C133.385 10.3183 133.5 9.76523 133.5 9.14028V9.1413ZM146.687 6.34067C147.074 7.1216 147.267 7.96128 147.267 8.85971V9.8331H139.648C139.693 10.2038 139.773 10.5472 139.896 10.8541C140.09 11.3352 140.39 11.713 140.796 11.9875C141.202 12.262 141.717 12.3998 142.342 12.3998C142.966 12.3998 143.471 12.2752 143.859 12.025C144.246 11.7758 144.496 11.476 144.608 11.1255H147.081C146.931 11.8123 146.643 12.421 146.219 12.9518C145.794 13.4825 145.255 13.8917 144.598 14.1784C143.943 14.465 143.19 14.6089 142.342 14.6089C141.493 14.6089 140.703 14.4589 140.047 14.1591C139.391 13.8593 138.845 13.4562 138.408 12.9508C137.971 12.4453 137.644 11.8801 137.425 11.2552C137.206 10.6302 137.098 9.99415 137.098 9.34489V8.97012C137.098 8.29554 137.206 7.64628 137.425 7.02234C137.644 6.3984 137.969 5.83625 138.399 5.3369C138.83 4.83754 139.367 4.44151 140.011 4.14777C140.654 3.85504 141.393 3.70716 142.23 3.70716C143.328 3.70716 144.25 3.95127 144.993 4.43847C145.736 4.92566 146.301 5.55973 146.689 6.33965L146.687 6.34067ZM139.906 7.42749C139.808 7.66147 139.735 7.92178 139.686 8.20438H144.699C144.653 7.89342 144.581 7.60677 144.477 7.35254C144.289 6.89674 144.009 6.54426 143.634 6.29407C143.259 6.04389 142.791 5.91931 142.229 5.91931C141.667 5.91931 141.19 6.04997 140.796 6.31332C140.402 6.57566 140.106 6.94739 139.907 7.42749H139.906ZM151.744 5.07658C151.271 5.65393 150.978 6.4298 150.864 7.40116V4.06572H148.747V14.2554H151.426V8.97316C151.426 8.09904 151.663 7.43053 152.138 6.96866C152.612 6.50678 153.281 6.27584 154.143 6.27584H154.873V3.93405H154.48C153.281 3.93405 152.37 4.31489 151.745 5.07658H151.744ZM162.271 11.4071C162.084 11.6816 161.831 11.9004 161.512 12.0625C161.194 12.2245 160.81 12.3056 160.361 12.3056C159.773 12.3056 159.296 12.1719 158.928 11.9024C158.559 11.634 158.287 11.2592 158.112 10.7791C157.937 10.299 157.85 9.76523 157.85 9.17776C157.85 8.55281 157.944 8.00686 158.131 7.53891C158.319 7.06994 158.596 6.69923 158.965 6.42474C159.333 6.15024 159.792 6.01249 160.341 6.01249C161.004 6.01249 161.515 6.18772 161.878 6.53717C162.241 6.88661 162.452 7.3181 162.515 7.82961H165.138C165.088 7.00512 164.85 6.28395 164.425 5.66608C164.001 5.04822 163.439 4.5671 162.74 4.22373C162.04 3.88037 161.241 3.70818 160.341 3.70818C159.493 3.70818 158.746 3.85504 158.103 4.14878C157.46 4.44252 156.92 4.83552 156.482 5.32879C156.045 5.82207 155.718 6.38726 155.499 7.02436C155.28 7.66147 155.171 8.32288 155.171 9.00962V9.36514C155.171 10.0144 155.277 10.6515 155.49 11.2754C155.701 11.9004 156.024 12.4646 156.454 12.971C156.886 13.4764 157.425 13.8765 158.075 14.1693C158.724 14.463 159.486 14.6099 160.361 14.6099C161.236 14.6099 162.084 14.4346 162.796 14.0852C163.508 13.7357 164.079 13.2485 164.51 12.6236C164.94 11.9997 165.174 11.2754 165.211 10.451H162.608C162.571 10.8136 162.458 11.1316 162.271 11.4061V11.4071ZM172.479 3.74667H172.366C171.579 3.74667 170.927 3.93405 170.409 4.30882C169.923 4.65928 169.556 5.16369 169.294 5.80991V0.580384H166.616V14.2543H169.294V8.37252C169.294 7.7111 169.484 7.17731 169.866 6.77114C170.247 6.36599 170.749 6.1624 171.374 6.1624C171.96 6.1624 172.434 6.34674 172.797 6.71442C173.16 7.08311 173.341 7.57943 173.341 8.20336V14.2533H176.019V8.44646C176.019 6.92308 175.719 5.75826 175.12 4.95301C174.52 4.14777 173.64 3.74464 172.478 3.74464L172.479 3.74667ZM185.862 5.64785C186.218 6.2414 186.396 7.01221 186.396 7.96128V14.2554H184.279V12.2914C184.197 12.5557 184.096 12.8009 183.97 13.0196C183.69 13.5068 183.302 13.8786 182.809 14.1338C182.315 14.3901 181.713 14.5177 181.002 14.5177C180.291 14.5177 179.619 14.387 179.064 14.1247C178.508 13.8624 178.077 13.4876 177.771 13.0004C177.465 12.5132 177.312 11.9267 177.312 11.24C177.312 10.4905 177.497 9.87868 177.865 9.40465C178.233 8.93062 178.755 8.57408 179.429 8.33706C180.104 8.10005 180.891 7.98154 181.79 7.98154H183.832V7.90659C183.832 7.33228 183.692 6.90181 183.411 6.61415C183.13 6.3275 182.696 6.18367 182.109 6.18367C181.81 6.18367 181.441 6.18975 181.004 6.2019C180.567 6.21406 180.12 6.23026 179.664 6.24849C179.209 6.26673 178.805 6.28901 178.456 6.31433V4.04749C178.744 4.02217 179.068 3.99786 179.429 3.97254C179.792 3.94722 180.17 3.93202 180.563 3.92595C180.957 3.91987 181.321 3.91683 181.659 3.91683C182.708 3.91683 183.582 4.05661 184.281 4.33819C184.98 4.61876 185.508 5.05633 185.864 5.64988L185.862 5.64785ZM183.493 11.7637C183.693 11.4517 183.805 11.0273 183.83 10.4894V9.55354H181.769C181.182 9.55354 180.733 9.69737 180.421 9.98402C180.109 10.2717 179.953 10.6464 179.953 11.1083C179.953 11.5702 180.109 11.9237 180.421 12.2043C180.733 12.4848 181.183 12.6256 181.769 12.6256C182.119 12.6256 182.444 12.5608 182.743 12.4291C183.043 12.2985 183.292 12.0766 183.493 11.7637ZM187.558 4.06471V6.06921H188.982V14.2543H191.66V4.06471H187.558ZM189.974 2.8847C190.486 2.8847 190.867 2.751 191.116 2.48157C191.366 2.21316 191.491 1.86675 191.491 1.44235C191.491 1.01795 191.366 0.670531 191.116 0.403129C190.867 0.134714 190.485 0 189.974 0C189.464 0 189.063 0.133701 188.813 0.403129C188.563 0.671543 188.438 1.01795 188.438 1.44235C188.438 1.86675 188.563 2.21316 188.813 2.48157C189.062 2.74999 189.45 2.8847 189.974 2.8847ZM202.43 4.91756C201.805 4.13663 200.887 3.74667 199.677 3.74667H199.564C198.752 3.74667 198.075 3.92088 197.532 4.27134C196.989 4.62079 196.58 5.14546 196.305 5.84435C196.213 6.07934 196.142 6.33965 196.08 6.61212V4.06572H193.963V14.2554H196.641V8.28034C196.641 7.64324 196.832 7.13173 197.213 6.74481C197.593 6.35789 198.096 6.16442 198.721 6.16442C199.346 6.16442 199.813 6.35181 200.163 6.72658C200.513 7.10134 200.688 7.59462 200.688 8.2064V14.2564H203.366V8.43126C203.366 6.87041 203.054 5.69951 202.43 4.91959V4.91756ZM6.51245 10.611C6.75656 10.9149 6.87912 11.3261 6.87912 11.8447V12.0027C6.87912 12.4909 6.77175 12.9082 6.55803 13.2526C6.34431 13.598 6.02627 13.8613 5.60592 14.0416C5.18557 14.2219 4.66292 14.3121 4.04 14.3121H0.773438V5.97502H3.70169C4.63355 5.97502 5.33852 6.1705 5.81964 6.56046C6.29974 6.95042 6.54081 7.51055 6.54081 8.23882V8.39683C6.54081 8.90732 6.41825 9.3145 6.17415 9.61938C6.04247 9.78245 5.88345 9.91919 5.70012 10.0316C6.03437 10.1653 6.30683 10.3557 6.51245 10.611ZM2.30492 7.23707V9.50188H3.84856C4.24662 9.50188 4.53732 9.39857 4.72167 9.19194C4.90601 8.98531 4.99819 8.71285 4.99819 8.37556C4.99819 8.03826 4.90601 7.75364 4.72167 7.54701C4.53834 7.34039 4.24662 7.23707 3.84856 7.23707H2.30492ZM5.33548 11.8771C5.33548 11.5094 5.23621 11.2238 5.03668 11.0212C4.83714 10.8186 4.54239 10.7173 4.15243 10.7173H2.30492V13.049H4.15243C4.5353 13.049 4.82802 12.9457 5.03161 12.7391C5.2352 12.5324 5.33548 12.2448 5.33548 11.8771ZM14.9437 11.0334C14.9437 11.4385 14.8688 11.79 14.7189 12.0868C14.5689 12.3835 14.3471 12.6125 14.0544 12.7735C13.7617 12.9356 13.4051 13.0156 12.9848 13.0156C12.5644 13.0156 12.1958 12.9346 11.903 12.7735C11.6103 12.6125 11.3885 12.3815 11.2386 12.0807C11.0887 11.7809 11.0137 11.4314 11.0137 11.0334V6.03174H9.44779V10.9432C9.44779 11.6563 9.58453 12.2762 9.85903 12.8019C10.1325 13.3276 10.5306 13.7368 11.0532 14.0295C11.5749 14.3222 12.2191 14.4691 12.9848 14.4691C13.7505 14.4691 14.3947 14.3232 14.9164 14.0295C15.438 13.7368 15.833 13.3276 16.0994 12.8019C16.3658 12.2762 16.4995 11.6563 16.4995 10.9432V6.03174H14.9447V11.0334H14.9437ZM19.5513 14.2543H21.1173V6.03174H19.5513V14.2554V14.2543ZM25.8819 6.03174H24.316V14.2554H29.2163V12.8809H25.8819V6.03174ZM30.0388 7.40622H32.4261V14.2554H33.9809V7.40622H36.3693V6.03174H30.0388V7.40622ZM50.2691 8.49811C50.4494 8.99342 50.5396 9.49378 50.5396 9.99617V10.2433C50.5396 10.7011 50.4515 11.1762 50.2742 11.6684C50.098 12.1607 49.8326 12.6185 49.4801 13.0429C49.1276 13.4673 48.6789 13.8107 48.134 14.073C47.589 14.3354 46.9489 14.4671 46.2125 14.4671C45.4762 14.4671 44.8249 14.3354 44.281 14.073C43.737 13.8107 43.2853 13.4673 42.9298 13.0429C42.5732 12.6185 42.3078 12.1607 42.1357 11.6684C41.9625 11.1762 41.8764 10.7022 41.8764 10.2433V9.99617C41.8764 9.49277 41.9665 8.99342 42.1468 8.49811C42.3271 8.00281 42.5975 7.55005 42.9581 7.14085C43.3187 6.73164 43.7694 6.40448 44.3103 6.16139C44.8512 5.91728 45.4853 5.79472 46.2135 5.79472C46.9418 5.79472 47.5637 5.91728 48.1005 6.16139C48.6374 6.40549 49.0881 6.73164 49.4527 7.14085C49.8164 7.55005 50.0888 8.00281 50.2691 8.49811ZM48.9625 10.1319C48.9625 9.71864 48.8987 9.3378 48.7711 8.98835C48.6435 8.63891 48.4591 8.33301 48.2191 8.07068C47.979 7.80733 47.6893 7.60475 47.352 7.46193C47.0137 7.31911 46.6349 7.24821 46.2135 7.24821C45.7922 7.24821 45.4012 7.32013 45.0588 7.46193C44.7175 7.60475 44.4258 7.80733 44.1857 8.07068C43.9457 8.33301 43.7634 8.63891 43.6398 8.98835C43.5162 9.3378 43.4534 9.71864 43.4534 10.1319C43.4534 10.5219 43.5152 10.8906 43.6398 11.2359C43.7634 11.5813 43.9457 11.8893 44.1857 12.1597C44.4258 12.4301 44.7175 12.6398 45.0588 12.7907C45.4002 12.9416 45.7851 13.0166 46.2135 13.0166C46.642 13.0166 47.0157 12.9416 47.3571 12.7907C47.6984 12.6408 47.9891 12.4301 48.2302 12.1597C48.4702 11.8893 48.6526 11.5813 48.7761 11.2359C48.8997 10.8906 48.9625 10.5229 48.9625 10.1319ZM59.2382 12.9589H59.0812L55.5665 6.03072H53.009V14.2543H54.4625V7.32621H54.6083L58.1342 14.2543H60.7029V6.03174H59.2382V12.9599V12.9589Z" fill="black"/>
</svg>
